<svg width="116" height="254" viewBox="0 0 116 254" fill="none" xmlns="http://www.w3.org/2000/svg">
<path d="M104.077 57.182L101.757 125.127L115.173 130.773L111.317 51.289L104.077 57.182Z" fill="#BD7B48"/>
<path d="M14.806 120.604C14.806 120.604 54.708 93.11 101.757 125.127L106.159 67.547H9.76901L14.806 120.604Z" fill="#8A4A27"/>
<path d="M106.95 62.486C106.95 86.261 85.161 105.533 58.28 105.533C31.399 105.533 9.61 86.262 9.61 62.486C9.61 38.709 31.399 19.437 58.28 19.437C85.161 19.437 106.95 38.709 106.95 62.486Z" fill="#F8B78F"/>
<path d="M3.493 71.111C3.735 75.006 6.46 78.009 9.579 77.814C12.694 77.625 15.03 74.31 14.788 70.416C14.546 66.52 11.825 63.52 8.706 63.711C5.589 63.904 3.255 67.217 3.493 71.111Z" fill="#F8B78F"/>
<path d="M6.274 65.9C6.594 65.673 7.251 65.566 7.651 65.56C9.714 65.517 11.202 69.037 9.124 69.55C8.308 70.329 9.067 71.318 9.067 71.318C9.731 72.179 10.626 73.423 10.352 74.588C10.194 75.281 9.457 75.621 8.805 75.766C8.284 75.875 8.203 75.432 8.621 75.245C8.939 75.097 9.219 74.85 9.437 74.585C9.456 74.546 9.482 74.509 9.505 74.468C9.526 74.441 9.54 74.415 9.554 74.386C9.632 74.216 9.64 74.042 9.605 73.872C9.125 74.21 8.351 74.257 8.013 73.772C7.65 73.247 7.978 72.465 7.878 71.881C7.796 71.473 7.644 71.08 7.45 70.705C6.593 68.949 8.305 68.75 8.305 68.75C8.565 68.764 8.762 68.797 8.93 68.826C9.815 68.379 8.92 66.939 8.403 66.691C7.811 66.396 7.055 66.453 6.6 66.941C6.139 67.435 5.93 68.224 5.932 68.88C5.94 69.693 6.092 70.509 6.377 71.267C6.543 71.695 6.758 72.203 6.928 72.632C7.117 73.118 6.592 73.302 6.399 72.814C6.003 71.783 5.235 70.265 5.124 68.859C5.036 67.693 5.282 66.596 6.274 65.9Z" fill="#E69D82"/>
<path d="M113.067 71.111C112.825 75.006 110.1 78.009 106.985 77.814C103.866 77.625 101.534 74.31 101.772 70.416C102.014 66.52 104.737 63.52 107.858 63.711C110.976 63.904 113.306 67.217 113.067 71.111Z" fill="#F8B78F"/>
<path d="M110.29 65.9C109.97 65.673 109.31 65.566 108.913 65.56C106.847 65.517 105.358 69.037 107.44 69.55C108.253 70.329 107.497 71.318 107.497 71.318C106.833 72.179 105.938 73.423 106.208 74.588C106.37 75.281 107.103 75.621 107.755 75.766C108.28 75.875 108.36 75.432 107.943 75.245C107.625 75.097 107.341 74.85 107.125 74.585C107.104 74.546 107.08 74.509 107.059 74.468C107.035 74.441 107.024 74.415 107.006 74.386C106.932 74.216 106.924 74.042 106.959 73.872C107.436 74.21 108.213 74.257 108.547 73.772C108.914 73.247 108.582 72.465 108.686 71.881C108.766 71.473 108.92 71.08 109.112 70.705C109.967 68.949 108.255 68.75 108.255 68.75C107.995 68.764 107.802 68.797 107.634 68.826C106.749 68.379 107.644 66.939 108.157 66.691C108.753 66.396 109.505 66.453 109.964 66.941C110.425 67.435 110.634 68.224 110.632 68.88C110.62 69.693 110.47 70.509 110.183 71.267C110.021 71.695 109.806 72.203 109.636 72.632C109.447 73.118 109.968 73.302 110.161 72.814C110.561 71.783 111.329 70.265 111.436 68.859C111.528 67.693 111.278 66.596 110.29 65.9Z" fill="#E69D82"/>
<path d="M61.78 77.916C61.327 77.916 60.964 77.551 60.964 77.1C60.964 75.62 59.763 74.416 58.28 74.416C56.801 74.416 55.6 75.619 55.6 77.1C55.6 77.551 55.233 77.916 54.784 77.916C54.335 77.916 53.97 77.551 53.97 77.1C53.97 74.723 55.904 72.787 58.281 72.787C60.662 72.787 62.592 74.723 62.592 77.1C62.591 77.551 62.23 77.916 61.78 77.916Z" fill="#E89D7F"/>
<path opacity="0.3" d="M24.833 79.242C24.833 81.662 27.952 83.625 31.812 83.625C35.666 83.625 38.792 81.662 38.792 79.242C38.792 76.822 35.665 74.855 31.812 74.855C27.952 74.855 24.833 76.822 24.833 79.242Z" fill="#F27383"/>
<path opacity="0.3" d="M77.769 79.242C77.769 81.662 80.892 83.625 84.747 83.625C88.599 83.625 91.727 81.662 91.727 79.242C91.727 76.822 88.598 74.855 84.747 74.855C80.892 74.855 77.769 76.822 77.769 79.242Z" fill="#F27383"/>
<path d="M58.278 91.201C53.967 90.898 50.633 87.902 50.583 87.861C50.364 87.699 50.296 87.347 50.431 87.084C50.566 86.814 50.857 86.734 51.074 86.898C51.146 86.951 58.279 89.72 65.488 86.898C65.744 86.796 65.992 86.814 66.131 87.084C66.266 87.348 66.197 87.699 65.979 87.861C63.425 89.766 60.562 91.201 58.278 91.201Z" fill="#F3917E"/>
<path d="M58.03 94.896C56.124 94.896 55.051 94.273 54.991 94.236C54.6 94.002 54.475 93.498 54.708 93.109C54.938 92.724 55.438 92.597 55.827 92.826C55.917 92.877 57.675 93.826 60.89 92.756C61.32 92.611 61.785 92.842 61.927 93.274C62.072 93.7 61.837 94.168 61.409 94.309C60.095 94.748 58.962 94.896 58.03 94.896Z" fill="#F5A586"/>
<path d="M38.911 48.963C36.358 48.748 33.854 49.229 31.647 50.551C29.827 51.635 31.581 54.406 33.395 53.324C35.139 52.279 37.065 52.07 39.059 52.24C39.954 52.316 40.659 51.332 40.623 50.529C40.579 49.549 39.802 49.039 38.911 48.963Z" fill="#804532"/>
<path d="M84.825 50.551C82.614 49.231 80.11 48.748 77.557 48.963C76.668 49.041 75.887 49.549 75.842 50.529C75.809 51.332 76.512 52.316 77.408 52.242C79.4 52.07 81.332 52.281 83.076 53.324C84.89 54.406 86.642 51.635 84.825 50.551Z" fill="#804532"/>
<path d="M11.694 75.781C11.694 76.929 10.76 77.865 9.61 77.865C8.46 77.865 7.528 76.929 7.528 75.781C7.528 74.629 8.46 73.699 9.61 73.699C10.761 73.699 11.694 74.629 11.694 75.781Z" fill="white"/>
<path d="M10.112 76.895C9.2 76.895 8.46 76.155 8.46 75.245C8.46 74.513 8.948 73.913 9.614 73.7H9.61C8.46 73.7 7.528 74.63 7.528 75.782C7.528 76.93 8.46 77.866 9.61 77.866C10.76 77.866 11.694 76.93 11.694 75.782C11.694 75.735 11.682 75.684 11.678 75.634C11.499 76.352 10.882 76.895 10.112 76.895Z" fill="#E6E7E8"/>
<path d="M108.243 75.781C108.243 76.929 107.309 77.865 106.159 77.865C105.009 77.865 104.077 76.929 104.077 75.781C104.077 74.629 105.009 73.699 106.159 73.699C107.31 73.699 108.243 74.629 108.243 75.781Z" fill="white"/>
<path d="M106.657 76.895C105.749 76.895 105.009 76.155 105.009 75.245C105.009 74.513 105.497 73.913 106.159 73.7C105.009 73.7 104.077 74.63 104.077 75.782C104.077 76.93 105.009 77.866 106.159 77.866C107.309 77.866 108.243 76.93 108.243 75.782C108.243 75.735 108.231 75.684 108.229 75.634C108.05 76.352 107.431 76.895 106.657 76.895Z" fill="#E6E7E8"/>
<path d="M45.491 65.811C45.491 70.575 41.628 74.438 36.862 74.438C32.096 74.438 28.235 70.575 28.235 65.811C28.235 61.045 32.096 57.182 36.862 57.182C41.628 57.182 45.491 61.045 45.491 65.811Z" fill="white"/>
<path d="M43.878 65.811C43.878 69.043 41.388 71.663 38.319 71.663C35.249 71.663 32.76 69.044 32.76 65.811C32.76 62.579 35.248 59.957 38.319 59.957C41.388 59.957 43.878 62.578 43.878 65.811Z" fill="#926243"/>
<path d="M36.862 74.438C36.862 74.438 36.756 74.442 36.557 74.45C36.357 74.445 36.067 74.499 35.693 74.448C35.314 74.43 34.86 74.365 34.343 74.254C33.829 74.134 33.256 73.951 32.663 73.666C32.081 73.367 31.46 73.005 30.882 72.512C30.284 72.042 29.742 71.437 29.266 70.753C28.793 70.065 28.414 69.278 28.141 68.441C27.883 67.587 27.76 66.73 27.735 65.785C27.756 64.974 27.882 64.007 28.141 63.18C28.412 62.342 28.792 61.556 29.265 60.869C29.741 60.185 30.282 59.578 30.88 59.109C31.458 58.616 32.079 58.254 32.661 57.955C33.254 57.67 33.827 57.486 34.342 57.367C34.86 57.256 35.311 57.191 35.688 57.174C36.06 57.123 36.358 57.177 36.556 57.172C36.755 57.18 36.861 57.184 36.861 57.184C36.861 57.184 36.756 57.199 36.558 57.227C36.362 57.262 36.071 57.276 35.714 57.368C35.352 57.432 34.925 57.554 34.448 57.725C33.975 57.907 33.464 58.152 32.927 58.452C32.406 58.777 31.858 59.158 31.365 59.654C30.851 60.128 30.415 60.724 30.001 61.35C29.593 61.987 29.307 62.713 29.064 63.459C28.844 64.232 28.751 64.955 28.732 65.837C28.748 66.585 28.843 67.419 29.064 68.164C29.305 68.911 29.592 69.638 30.001 70.274C30.416 70.9 30.85 71.498 31.364 71.97C31.857 72.466 32.405 72.847 32.927 73.172C33.464 73.472 33.975 73.718 34.448 73.899C34.926 74.071 35.351 74.191 35.711 74.256C36.066 74.348 36.364 74.361 36.559 74.398C36.757 74.423 36.862 74.438 36.862 74.438Z" fill="#E89D7F"/>
<path d="M71.071 65.811C71.071 70.575 74.932 74.438 79.698 74.438C84.464 74.438 88.327 70.575 88.327 65.811C88.327 61.045 84.464 57.182 79.698 57.182C74.933 57.182 71.071 61.045 71.071 65.811Z" fill="white"/>
<path d="M72.685 65.811C72.685 69.043 75.173 71.663 78.242 71.663C81.312 71.663 83.801 69.044 83.801 65.811C83.801 62.579 81.313 59.957 78.242 59.957C75.173 59.957 72.685 62.578 72.685 65.811Z" fill="#926243"/>
<path d="M79.698 74.438C79.698 74.438 79.803 74.423 80.001 74.396C80.195 74.36 80.494 74.346 80.849 74.254C81.209 74.19 81.634 74.069 82.112 73.897C82.585 73.716 83.096 73.47 83.633 73.17C84.154 72.845 84.702 72.464 85.196 71.968C85.711 71.495 86.146 70.898 86.56 70.272C86.968 69.635 87.256 68.909 87.497 68.162C87.718 67.417 87.813 66.583 87.829 65.835C87.809 64.953 87.717 64.23 87.496 63.457C87.253 62.711 86.967 61.983 86.558 61.348C86.144 60.722 85.708 60.125 85.194 59.652C84.701 59.156 84.153 58.775 83.632 58.45C83.095 58.15 82.584 57.905 82.111 57.723C81.634 57.551 81.207 57.43 80.845 57.366C80.488 57.274 80.197 57.261 80.001 57.225C79.803 57.197 79.698 57.182 79.698 57.182C79.698 57.182 79.804 57.178 80.003 57.17C80.201 57.175 80.5 57.121 80.871 57.172C81.248 57.19 81.7 57.254 82.218 57.365C82.732 57.485 83.305 57.669 83.898 57.953C84.48 58.252 85.102 58.614 85.68 59.107C86.278 59.576 86.819 60.182 87.296 60.866C87.769 61.555 88.15 62.341 88.421 63.179C88.679 64.006 88.806 64.974 88.827 65.784C88.803 66.729 88.68 67.586 88.421 68.44C88.149 69.277 87.77 70.064 87.296 70.752C86.82 71.436 86.277 72.041 85.68 72.511C85.102 73.004 84.481 73.366 83.898 73.665C83.305 73.95 82.732 74.133 82.218 74.253C81.701 74.364 81.248 74.43 80.869 74.447C80.494 74.498 80.204 74.444 80.004 74.449C79.805 74.441 79.698 74.438 79.698 74.438Z" fill="#E89D7F"/>
<path d="M106.931 63.408C106.931 63.408 108.595 63.101 110.765 64.668C110.622 64.565 111.224 61.105 111.244 60.85C111.476 57.571 111.455 54.276 111.318 50.996C110.947 42.074 109.877 32.748 104.99 25.053C100.275 17.627 93.594 11.164 85.814 7.04699C78.83 3.34999 71.035 1.26 63.156 0.747998C57.152 0.356998 51.158 1.023 45.22 1.889C45.216 1.889 -2.102 8.774 6.091 64.416C6.091 64.416 6.482 63.508 9.634 63.463C9.56 63.463 11.247 57.904 11.31 57.567C13.753 44.462 24.833 39.499 24.833 39.499C24.833 39.499 39.517 35.872 43.938 30.263C43.938 30.263 50.362 46.546 66.2 53.572C66.2 53.572 53.97 43.904 51.19 32.652C51.191 32.65 57.419 51.313 106.931 63.408Z" fill="#BD7B48"/>
<path d="M65.544 105.16H50.929V111.703H65.544V105.16Z" fill="#FBB88E"/>
<path d="M65.544 107.102V105.161H50.929V109.147C56.677 109.578 61.577 108.652 65.544 107.102Z" fill="#E69D82"/>
<path d="M29.911 173.576C29.911 173.576 24.663 151.314 39.423 128.144C39.423 128.144 37.851 124.326 34.562 125.279C34.562 125.279 14.611 148.017 24.503 174.818C24.503 174.818 27.798 179.252 29.911 173.576Z" fill="#F8B78F"/>
<path d="M25.013 185.955C22.484 182.348 22.202 178.797 22.202 178.797C22.202 178.797 21.702 175.033 23.501 173.254C23.501 173.254 26.19 169.766 29.827 171.961C30.745 172.518 31.173 173.68 31.679 174.572C31.716 174.636 31.747 174.697 31.784 174.758C32.376 175.781 33.042 176.779 33.946 177.559C35.469 178.87 34.421 180.018 34.421 180.018C33.946 180.583 33.095 180.526 32.577 180.041C31.944 179.441 31.333 178.809 30.708 178.195C29.591 177.47 29.591 178.459 29.591 178.459C30.505 181.107 32.247 184.123 32.247 184.123C32.659 185.299 31.767 185.756 31.767 185.756C31.767 185.756 31.029 186.553 29.339 184.012C29.339 184.012 27.872 181.662 27.235 179.164C27.374 180.81 29.26 184.435 29.26 184.435C30.49 185.915 29.106 186.523 29.106 186.523C27.401 186.943 26.256 183.595 26.256 183.595C25.158 180.655 24.596 179.478 24.596 179.478L26.377 184.248C26.377 184.248 27.273 185.813 26.465 186.272C26.465 186.272 25.847 186.818 25.013 185.955Z" fill="#F8B78F"/>
<path d="M86.007 173.578C86.007 173.578 91.257 151.314 76.491 128.144C76.491 128.144 78.065 124.324 81.356 125.279C81.356 125.279 101.307 148.017 91.415 174.818C91.415 174.818 88.116 179.254 86.007 173.578Z" fill="#F8B78F"/>
<path d="M90.903 185.951C93.428 182.347 93.711 178.797 93.711 178.797C93.711 178.797 94.213 175.033 92.416 173.254C92.416 173.254 89.727 169.766 86.092 171.961C85.17 172.518 84.738 173.682 84.237 174.576C84.2 174.635 84.169 174.697 84.133 174.756C83.539 175.783 82.875 176.779 81.967 177.561C80.447 178.87 81.492 180.018 81.492 180.018C81.967 180.583 82.82 180.526 83.338 180.041C83.971 179.441 84.586 178.807 85.211 178.193C86.322 177.474 86.324 178.459 86.324 178.459C85.41 181.107 83.666 184.123 83.666 184.123C83.254 185.295 84.15 185.756 84.15 185.756C84.15 185.756 84.888 186.553 86.574 184.012C86.574 184.012 88.045 181.66 88.678 179.164C88.541 180.81 86.651 184.435 86.651 184.435C85.424 185.915 86.811 186.521 86.811 186.521C88.512 186.943 89.661 183.599 89.661 183.599C90.755 180.652 91.317 179.478 91.317 179.478L89.536 184.248C89.536 184.248 88.643 185.811 89.452 186.272C89.452 186.272 90.069 186.818 90.903 185.951Z" fill="#F8B78F"/>
<path d="M50.759 239.742H40.511L38.171 199.053H53.097L50.759 239.742Z" fill="#F2B193"/>
<path d="M50.759 239.742H40.511L38.171 199.053H53.097L50.759 239.742Z" fill="#F8B78F"/>
<path opacity="0.5" d="M38.171 199.053V202.027H49.081L46.739 239.742H50.759L53.097 199.053H38.171Z" fill="#F2B193"/>
<path d="M46.052 236.764C44.021 236.76 40.904 237.077 39.716 239.03V240.481C39.716 240.481 37.753 246.114 43.816 246.704C43.816 246.704 51.439 248.159 51.181 240.481L51.191 240.217C50.398 238.152 48.499 236.766 46.052 236.764Z" fill="#F8B78F"/>
<path d="M45.7 253.68C45.7 253.68 52.456 253.719 52.218 246.203L51.568 238.683C51.287 235.449 45.027 235.3 45.027 235.3C39.812 235.411 38.963 238.683 38.963 238.683L35.264 246.724C35.264 246.724 32.872 254.33 45.7 253.68ZM49.655 239.406C49.764 241.195 49.719 243.529 48.28 244.881C46.634 246.418 43.288 245.776 41.456 244.994C39.356 244.099 39.577 240.75 40.653 239.088C40.653 239.088 41.426 237.049 45.028 237.205C45.028 237.205 49.263 237.205 49.655 239.406Z" fill="#F17195"/>
<path d="M45.771 251.346C38.476 251.719 35.941 249.512 35.126 247.444C34.903 249.327 35.315 254.208 45.7 253.68C45.7 253.68 52.255 253.703 52.206 246.496C50.876 251.357 45.771 251.346 45.771 251.346Z" fill="white"/>
<path d="M38.171 243.057C38.171 243.057 38.052 244.01 37.72 245.387C37.677 245.561 37.636 245.739 37.589 245.926C37.546 246.108 37.474 246.324 37.484 246.432C37.464 246.748 37.533 247.077 37.714 247.34C37.771 247.488 37.939 247.576 38.034 247.709L38.499 248.002C38.89 248.199 39.29 248.348 39.724 248.5C40.144 248.642 40.572 248.795 41.001 248.904C41.439 248.986 41.853 249.148 42.274 249.205C42.696 249.272 43.1 249.352 43.487 249.422C43.878 249.449 44.245 249.492 44.592 249.529C45.283 249.64 45.86 249.568 46.278 249.613C46.696 249.64 46.936 249.654 46.936 249.654C46.936 249.654 46.709 249.722 46.309 249.843C46.106 249.902 45.858 249.964 45.577 250.042C45.29 250.126 44.964 250.188 44.602 250.204C44.243 250.239 43.85 250.278 43.432 250.302C43.014 250.288 42.573 250.269 42.119 250.234C41.211 250.144 40.252 249.921 39.318 249.613C38.871 249.435 38.394 249.242 37.963 249.006C37.733 248.869 37.506 248.69 37.297 248.522C37.125 248.289 36.906 248.108 36.803 247.836C36.526 247.332 36.51 246.76 36.617 246.285C36.682 245.992 36.767 245.847 36.848 245.668C36.928 245.492 37.006 245.326 37.08 245.164C37.677 243.879 38.171 243.057 38.171 243.057Z" fill="white"/>
<path d="M65.917 239.742H76.161L78.507 199.053H63.577L65.917 239.742Z" fill="#F2B193"/>
<path d="M65.917 239.742H76.161L78.507 199.053H63.577L65.917 239.742Z" fill="#F8B78F"/>
<path opacity="0.5" d="M78.507 199.053V202.027H67.595L69.933 239.742H65.917L63.577 199.053H78.507Z" fill="#F2B193"/>
<path d="M77.021 238.883C75.56 237.418 73.767 236.334 71.564 236.486C69.259 236.642 66.664 237.353 65.515 239.42L65.552 240.481C65.294 248.159 72.919 246.704 72.919 246.704C78.983 246.114 77.019 240.481 77.019 240.481L77.021 238.883Z" fill="#F8B78F"/>
<path d="M81.474 246.725L77.775 238.684C77.775 238.684 76.929 235.413 71.711 235.301C71.711 235.301 65.455 235.449 65.172 238.684L64.522 246.204C64.284 253.72 71.04 253.681 71.04 253.681C83.866 254.33 81.474 246.725 81.474 246.725ZM71.706 237.205C75.308 237.049 76.085 239.088 76.085 239.088C77.163 240.75 77.378 244.1 75.28 244.994C73.45 245.775 70.098 246.418 68.456 244.881C67.017 243.529 66.974 241.196 67.083 239.406C67.47 237.205 71.706 237.205 71.706 237.205Z" fill="#F17195"/>
<path d="M70.968 251.346C78.259 251.719 80.796 249.512 81.609 247.444C81.832 249.327 81.42 254.208 71.039 253.68C71.039 253.68 64.484 253.703 64.531 246.496C65.857 251.357 70.968 251.346 70.968 251.346Z" fill="white"/>
<path d="M78.566 243.057C78.566 243.057 78.691 244.01 79.021 245.387C79.06 245.561 79.105 245.739 79.146 245.926C79.187 246.108 79.261 246.324 79.253 246.432C79.274 246.748 79.2 247.077 79.021 247.34C78.968 247.488 78.8 247.576 78.705 247.709L78.236 248.002C77.847 248.199 77.447 248.348 77.019 248.5C76.589 248.642 76.165 248.795 75.736 248.904C75.3 248.986 74.884 249.148 74.465 249.205C74.041 249.272 73.637 249.352 73.25 249.422C72.859 249.449 72.49 249.492 72.15 249.529C71.455 249.64 70.877 249.568 70.461 249.613C70.041 249.64 69.803 249.654 69.803 249.654C69.803 249.654 70.032 249.722 70.432 249.843C70.633 249.902 70.877 249.964 71.161 250.042C71.444 250.126 71.772 250.188 72.132 250.204C72.495 250.239 72.888 250.278 73.306 250.302C73.722 250.288 74.164 250.269 74.62 250.234C75.53 250.144 76.487 249.921 77.417 249.613C77.866 249.435 78.345 249.242 78.774 249.006C79.006 248.869 79.231 248.69 79.44 248.522C79.614 248.289 79.835 248.108 79.934 247.836C80.211 247.332 80.225 246.76 80.122 246.285C80.054 245.992 79.964 245.847 79.89 245.668C79.808 245.492 79.734 245.326 79.661 245.164C79.062 243.879 78.566 243.057 78.566 243.057Z" fill="white"/>
<path d="M81.528 117.021C80.141 112.595 76.692 111.875 76.692 111.875L63.784 109.326H58.278H52.776L39.868 111.875C39.868 111.875 36.417 112.596 35.032 117.021C34.182 141.951 33.446 155.843 31.989 175.884C31.989 175.884 42.753 180.261 58.278 179.851C73.809 180.261 84.573 175.884 84.573 175.884C83.976 165.412 82.767 142.545 81.528 117.021Z" fill="#FBB88E"/>
<path d="M66.458 109.865L76.647 111.875C76.647 111.875 80.098 112.596 81.483 117.021C82.458 136.787 82.948 148.746 84.528 175.884C84.528 175.884 73.764 180.261 58.235 179.851C42.708 180.261 31.944 175.884 31.944 175.884C33.155 154.614 33.893 142.687 34.989 117.021C36.374 112.595 39.825 111.875 39.825 111.875L49.573 109.951C49.573 109.951 49.712 116.213 57.827 116.049C57.827 116.049 65.544 117.033 66.458 109.865Z" fill="#957FBB"/>
<path d="M39.636 111.941C39.636 111.941 30.495 112.287 26.808 123.917L24.12 130.884C24.12 130.884 28.165 138.343 37.018 138.097C37.018 138.097 42.528 121.377 39.636 111.941Z" fill="#945EA7"/>
<path d="M76.45 111.941C76.45 111.941 85.591 112.287 89.278 123.917L91.964 130.884C91.964 130.884 87.919 138.343 79.066 138.097C79.066 138.097 73.558 121.377 76.45 111.941Z" fill="#945EA7"/>
<path d="M33.646 203.822C33.646 205.328 32.425 206.549 30.917 206.549C29.411 206.549 28.188 205.328 28.188 203.822C28.188 202.316 29.411 201.093 30.917 201.093C32.425 201.094 33.646 202.316 33.646 203.822Z" fill="#F17195"/>
<path d="M38.536 205.236C38.536 206.742 37.315 207.965 35.809 207.965C34.303 207.965 33.08 206.742 33.08 205.236C33.08 203.73 34.303 202.508 35.809 202.508C37.316 202.508 38.536 203.73 38.536 205.236Z" fill="#F17195"/>
<path d="M43.476 206.121C43.476 207.627 42.253 208.848 40.747 208.848C39.241 208.848 38.018 207.627 38.018 206.121C38.018 204.615 39.241 203.392 40.747 203.392C42.253 203.392 43.476 204.615 43.476 206.121Z" fill="#F17195"/>
<path d="M48.362 206.748C48.362 208.254 47.141 209.475 45.633 209.475C44.127 209.475 42.904 208.254 42.904 206.748C42.904 205.242 44.127 204.02 45.633 204.02C47.142 204.02 48.362 205.242 48.362 206.748Z" fill="#F17195"/>
<path d="M53.298 207.227C53.298 208.735 52.077 209.955 50.571 209.955C49.065 209.955 47.842 208.734 47.842 207.227C47.842 205.721 49.065 204.498 50.571 204.498C52.077 204.498 53.298 205.721 53.298 207.227Z" fill="#F17195"/>
<path d="M55.825 209.955C57.3316 209.955 58.553 208.734 58.553 207.227C58.553 205.72 57.3316 204.499 55.825 204.499C54.3184 204.499 53.097 205.72 53.097 207.227C53.097 208.734 54.3184 209.955 55.825 209.955Z" fill="#F17195"/>
<path d="M63.692 207.588C63.692 209.096 62.469 210.317 60.963 210.317C59.457 210.317 58.234 209.096 58.234 207.588C58.234 206.082 59.457 204.861 60.963 204.861C62.469 204.861 63.692 206.082 63.692 207.588Z" fill="#F17195"/>
<path d="M68.665 207.227C68.665 208.735 67.444 209.955 65.938 209.955C64.43 209.955 63.209 208.734 63.209 207.227C63.209 205.721 64.43 204.498 65.938 204.498C67.444 204.498 68.665 205.721 68.665 207.227Z" fill="#F17195"/>
<path d="M73.771 206.549C73.771 208.057 72.55 209.278 71.042 209.278C69.536 209.278 68.313 208.057 68.313 206.549C68.313 205.043 69.536 203.822 71.042 203.822C72.55 203.822 73.771 205.043 73.771 206.549Z" fill="#F17195"/>
<path d="M78.538 206.121C78.538 207.627 77.317 208.848 75.812 208.848C74.304 208.848 73.083 207.627 73.083 206.121C73.083 204.615 74.304 203.392 75.812 203.392C77.317 203.392 78.538 204.615 78.538 206.121Z" fill="#F17195"/>
<path d="M83.415 204.861C83.415 206.367 82.192 207.588 80.686 207.588C79.18 207.588 77.957 206.367 77.957 204.861C77.957 203.353 79.18 202.133 80.686 202.133C82.192 202.133 83.415 203.353 83.415 204.861Z" fill="#F17195"/>
<path d="M88.058 203.822C88.058 205.328 86.837 206.549 85.329 206.549C83.823 206.549 82.602 205.328 82.602 203.822C82.602 202.316 83.823 201.093 85.329 201.093C86.837 201.094 88.058 202.316 88.058 203.822Z" fill="#F17195"/>
<path d="M84.589 175.227L87.952 202.936C54.907 210.823 28.52 202.563 28.52 202.563L31.663 175.516C31.663 175.516 55.685 179.205 84.589 175.227Z" fill="#957FBB"/>
<path d="M0.880007 130.773L14.806 120.603V48.013L6.59501 38.581C6.59501 38.581 -0.371993 80.463 0.880007 130.773Z" fill="#BD7B48"/>
<path opacity="0.1" d="M12.757 59.668C12.757 59.668 11.753 71.875 10.739 82.008C10.739 82.008 10.772 78.172 9.18601 72.883C9.18601 72.883 7.37901 76.789 5.37201 83.836C5.37201 83.836 4.09701 68.93 7.01101 58.232C7.01101 58.232 6.40401 66.035 9.01501 70.48C9.01501 70.48 9.54601 65.576 12.757 59.668Z" fill="white"/>
<path opacity="0.1" d="M11.599 90.895C11.599 90.895 10.597 103.102 9.58101 113.235C9.58101 113.235 9.61401 109.399 8.03001 104.11C8.03001 104.11 6.22101 108.016 4.21401 115.065C4.21401 115.065 2.94101 100.157 5.85301 89.46C5.85301 89.46 5.24601 97.263 7.85701 101.708C7.85701 101.708 8.38801 96.803 11.599 90.895Z" fill="white"/>
<path d="M69.576 132.707H46.896V156.58H69.576V132.707Z" fill="#945EA7"/>
<path opacity="0.1" d="M86.353 16.209C74.361 12.268 62.419 14.621 62.419 14.621C82.558 22.041 85.05 27.742 85.05 27.742C74.804 21.549 61.987 20.644 61.987 20.644C64.985 27.609 77.954 31.101 77.954 31.101C60.005 30.765 55.993 22.337 55.993 22.337C52.35 20.312 51.739 27.028 51.739 27.028C51.635 20.936 46.046 19.087 46.046 19.087L46.288 5.749C46.288 5.749 74.417 -0.103997 86.353 16.209Z" fill="white"/>
<path opacity="0.1" d="M24.833 28.369C28.591 23.348 35.87 19.142 35.87 19.142C26.778 21.855 17.12 30.261 17.12 30.261C21.22 21.587 30.712 15.204 30.712 15.204C23.382 16.835 18.091 22.126 18.091 22.126C31.529 6.112 45.763 5.565 45.763 5.565L43.449 26.952C43.449 26.952 40.829 20.967 24.833 28.369Z" fill="white"/>
<path opacity="0.1" d="M81.323 38.17C81.323 38.17 102.841 45.475 106.159 54.75C106.159 54.75 104.796 49.453 100.315 43.812C100.315 43.812 107.116 44.998 108.805 50.642C108.805 50.642 109.686 37.126 86.266 30.556C86.266 30.556 95.067 35.726 97.871 41.833C97.871 41.833 89.528 35.932 81.323 38.17Z" fill="white"/>
<path opacity="0.1" d="M31.62 32.963C31.62 32.963 11.723 43.94 10.095 53.656C10.095 53.656 10.505 48.203 13.917 41.861C13.917 41.861 7.43099 44.228 6.76499 50.086C6.76499 50.086 3.515 36.936 25.413 26.34C25.413 26.34 17.663 32.977 15.974 39.485C15.974 39.485 23.151 32.203 31.62 32.963Z" fill="white"/>
</svg>
