<svg width="119" height="268" viewBox="0 0 119 268" fill="none" xmlns="http://www.w3.org/2000/svg">
<path d="M54.262 253.742H44.014L41.672 213.053H56.6L54.262 253.742Z" fill="#F2B193"/>
<path d="M54.262 253.742H44.014L41.672 213.053H56.6L54.262 253.742Z" fill="#D0835F"/>
<path d="M41.672 213.053V216.027H52.582L50.242 253.742H54.262L56.6 213.053H41.672Z" fill="#E6E7E8"/>
<path d="M54.684 254.478L55.186 239.798H43.215L43.219 254.478C43.219 254.478 41.256 260.111 47.319 260.701C47.319 260.701 54.943 262.158 54.684 254.478Z" fill="white"/>
<path d="M50.035 249.299H47.658C45.142 249.235 44.242 251.156 44.242 251.156C42.916 251.408 42.463 252.683 42.463 252.683L38.768 260.724C38.768 260.724 36.374 268.329 49.202 267.679C49.202 267.679 55.96 267.718 55.722 260.199L55.072 252.683C54.965 251.767 55.066 251.64 53.752 251.292C53.129 249.299 50.035 249.299 50.035 249.299Z" fill="#006FBA"/>
<path d="M49.273 265.344C41.978 265.717 39.443 263.512 38.628 261.44C38.407 263.325 38.817 268.206 49.2 267.68C49.2 267.68 55.757 267.703 55.708 260.496C54.379 265.357 49.273 265.344 49.273 265.344Z" fill="white"/>
<path d="M42.49 258.195C41.496 260.886 46.873 261.07 46.873 261.07C51.812 261.33 52.107 259.193 52.107 259.193L53.75 251.295C53.129 249.301 50.035 249.301 50.035 249.301H47.658C45.142 249.235 44.242 251.156 44.242 251.156L42.49 258.195Z" fill="#BCBEC0"/>
<path d="M49.273 265.346C41.978 265.719 39.443 263.512 38.628 261.444C38.407 263.327 38.817 268.208 49.2 267.68C49.2 267.68 55.757 267.703 55.708 260.496C54.379 265.357 49.273 265.346 49.273 265.346Z" fill="white"/>
<path d="M44.477 253.154C44.477 253.48 44.215 253.742 43.889 253.742C43.565 253.742 43.303 253.48 43.303 253.154C43.303 252.832 43.565 252.568 43.889 252.568C44.215 252.568 44.477 252.832 44.477 253.154Z" fill="#BCBEC0"/>
<path d="M43.889 255.195C43.889 255.519 43.627 255.781 43.303 255.781C42.977 255.781 42.715 255.519 42.715 255.195C42.715 254.869 42.977 254.607 43.303 254.607C43.627 254.607 43.889 254.869 43.889 255.195Z" fill="#BCBEC0"/>
<path d="M43.344 257.498C43.344 257.822 43.08 258.086 42.756 258.086C42.432 258.086 42.17 257.822 42.17 257.498C42.17 257.174 42.432 256.912 42.756 256.912C43.08 256.912 43.344 257.174 43.344 257.498Z" fill="#BCBEC0"/>
<path d="M53.871 253.154C53.871 253.48 53.609 253.742 53.285 253.742C52.961 253.742 52.697 253.48 52.697 253.154C52.697 252.832 52.961 252.568 53.285 252.568C53.609 252.568 53.871 252.832 53.871 253.154Z" fill="#BCBEC0"/>
<path d="M53.578 255.195C53.578 255.519 53.314 255.781 52.99 255.781C52.664 255.781 52.404 255.519 52.404 255.195C52.404 254.869 52.664 254.607 52.99 254.607C53.314 254.607 53.578 254.869 53.578 255.195Z" fill="#BCBEC0"/>
<path d="M52.99 257.844C52.99 258.168 52.726 258.432 52.404 258.432C52.078 258.432 51.816 258.168 51.816 257.844C51.816 257.52 52.078 257.26 52.404 257.26C52.727 257.26 52.99 257.52 52.99 257.844Z" fill="#BCBEC0"/>
<path d="M43.361 255.549C43.246 255.549 43.134 255.494 43.066 255.391C42.957 255.229 43.002 255.01 43.164 254.901C46.049 252.967 52.697 252.753 52.98 252.747C52.984 252.743 52.988 252.743 52.99 252.743C53.181 252.743 53.338 252.895 53.344 253.089C53.35 253.284 53.196 253.446 53.002 253.45C52.932 253.454 46.273 253.667 43.559 255.489C43.496 255.529 43.428 255.549 43.361 255.549Z" fill="#BEC0C2"/>
<path d="M42.752 257.853C42.639 257.853 42.527 257.796 42.459 257.695C42.35 257.533 42.395 257.312 42.557 257.205C45.434 255.273 52.307 254.859 52.602 254.842C52.788 254.842 52.961 254.979 52.975 255.176C52.985 255.369 52.836 255.537 52.639 255.547C52.571 255.553 45.668 255.969 42.95 257.793C42.887 257.834 42.82 257.853 42.752 257.853Z" fill="#BEC0C2"/>
<path d="M43.889 253.51C43.737 253.51 43.598 253.408 43.551 253.256C43.496 253.071 43.602 252.873 43.789 252.818C48.498 251.398 53.187 252.758 53.385 252.814C53.573 252.873 53.68 253.068 53.625 253.255C53.57 253.442 53.379 253.546 53.186 253.493C53.139 253.479 48.495 252.138 43.993 253.493C43.959 253.506 43.924 253.51 43.889 253.51Z" fill="white"/>
<path d="M52.619 255.549C52.553 255.549 52.482 255.529 52.424 255.488C49.707 253.666 44.133 253.453 44.076 253.449C43.883 253.443 43.728 253.281 43.736 253.086C43.74 252.891 43.898 252.701 44.099 252.746C44.337 252.752 49.933 252.967 52.816 254.9C52.978 255.009 53.021 255.228 52.914 255.39C52.846 255.494 52.734 255.549 52.619 255.549Z" fill="#DEDFE0"/>
<path d="M52.012 257.853C51.946 257.853 51.875 257.834 51.815 257.792C49.092 255.964 43.518 255.55 43.461 255.546C43.268 255.534 43.119 255.362 43.133 255.169C43.149 254.972 43.295 254.835 43.514 254.841C43.748 254.859 49.332 255.275 52.209 257.204C52.371 257.312 52.414 257.532 52.305 257.694C52.238 257.797 52.125 257.853 52.012 257.853Z" fill="#DEDFE0"/>
<path d="M43.361 255.584C43.209 255.584 43.066 255.486 43.021 255.332C42.964 255.147 43.07 254.949 43.257 254.894C47.966 253.476 52.659 254.837 52.857 254.892C53.043 254.949 53.15 255.144 53.095 255.332C53.038 255.52 52.847 255.623 52.656 255.572C52.607 255.556 47.961 254.217 43.461 255.57C43.428 255.582 43.395 255.584 43.361 255.584Z" fill="white"/>
<path d="M52.146 258.008C52.109 258.008 52.076 258.002 52.041 257.99C51.992 257.974 47.371 256.552 42.848 257.826C42.662 257.883 42.465 257.771 42.41 257.582C42.359 257.391 42.469 257.197 42.656 257.147C47.388 255.813 52.056 257.254 52.252 257.317C52.44 257.376 52.543 257.573 52.482 257.76C52.436 257.91 52.297 258.008 52.146 258.008Z" fill="white"/>
<path d="M48.305 252.867C48.211 252.867 48.117 252.826 48.051 252.752L47.936 252.629C47.084 251.707 46.321 250.76 46.516 250.074C46.571 249.885 46.719 249.636 47.125 249.525C47.541 249.42 47.855 249.537 48.117 249.814C48.342 250.05 48.484 250.386 48.574 250.732C48.988 250.017 49.588 249.369 50.162 249.369C50.348 249.369 50.613 249.433 50.836 249.734C50.91 249.783 51.053 250.023 51.025 250.345C50.961 251.068 50.125 251.878 48.468 252.822C48.418 252.853 48.359 252.867 48.305 252.867ZM50.162 250.039C49.767 250.039 49.043 251.105 48.801 251.838C50.094 251.008 50.319 250.51 50.352 250.32C50.37 250.22 50.338 250.179 50.334 250.175C50.229 250.039 50.184 250.039 50.162 250.039ZM47.395 250.162C47.364 250.162 47.329 250.166 47.291 250.176C47.244 250.188 47.174 250.217 47.16 250.258C47.129 250.369 47.168 250.729 48.051 251.75C48.022 251.205 47.893 250.553 47.631 250.275C47.533 250.174 47.453 250.162 47.395 250.162Z" fill="white"/>
<path d="M41.672 257.053C41.672 257.053 41.553 258.008 41.221 259.385C41.178 259.561 41.139 259.737 41.092 259.926C41.051 260.106 40.977 260.323 40.985 260.432C40.967 260.748 41.036 261.077 41.215 261.34C41.276 261.488 41.44 261.576 41.535 261.707L42.004 262.002C42.395 262.199 42.791 262.346 43.225 262.5C43.647 262.641 44.073 262.793 44.504 262.9C44.943 262.986 45.354 263.148 45.777 263.203C46.199 263.267 46.603 263.351 46.99 263.422C47.379 263.449 47.748 263.492 48.095 263.529C48.786 263.64 49.363 263.568 49.781 263.611C50.199 263.636 50.439 263.654 50.439 263.654C50.439 263.654 50.212 263.72 49.812 263.843C49.609 263.9 49.361 263.964 49.08 264.04C48.795 264.126 48.467 264.188 48.107 264.204C47.744 264.239 47.351 264.278 46.935 264.3C46.517 264.288 46.074 264.269 45.621 264.23C44.715 264.144 43.754 263.919 42.822 263.611C42.373 263.433 41.898 263.24 41.468 263.004C41.234 262.867 41.007 262.689 40.8 262.522C40.626 262.288 40.407 262.104 40.306 261.834C40.027 261.33 40.011 260.76 40.12 260.285C40.184 259.992 40.272 259.846 40.348 259.666C40.43 259.492 40.51 259.326 40.582 259.164C41.178 257.879 41.672 257.053 41.672 257.053Z" fill="white"/>
<path d="M69.418 253.742H79.664L82.008 213.053H67.08L69.418 253.742Z" fill="#F2B193"/>
<path d="M69.418 253.742H79.664L82.008 213.053H67.08L69.418 253.742Z" fill="#D0835F"/>
<path d="M82.008 213.053V216.027H71.096L73.436 253.742H69.418L67.08 213.053H82.008Z" fill="#E6E7E8"/>
<path d="M69.053 254.478L68.555 239.798H80.53L80.522 254.478C80.522 254.478 82.487 260.111 76.421 260.701C76.421 260.701 68.797 262.158 69.053 254.478Z" fill="white"/>
<path d="M70.219 251.293C68.904 251.641 69.004 251.768 68.897 252.684L68.249 260.2C68.011 267.72 74.767 267.68 74.767 267.68C87.597 268.33 85.203 260.725 85.203 260.725L81.508 252.684C81.508 252.684 81.055 251.409 79.729 251.157C79.729 251.157 78.827 249.235 76.313 249.3H73.936C73.934 249.299 70.838 249.299 70.219 251.293Z" fill="#006FBA"/>
<path d="M74.695 265.344C81.988 265.717 84.523 263.512 85.34 261.44C85.561 263.325 85.149 268.206 74.766 267.68C74.766 267.68 68.209 267.703 68.258 260.496C69.588 265.357 74.695 265.344 74.695 265.344Z" fill="white"/>
<path d="M79.727 251.156C79.727 251.156 78.825 249.234 76.311 249.301H73.934C73.934 249.301 70.838 249.301 70.219 251.295L71.862 259.193C71.862 259.193 72.157 261.33 77.094 261.07C77.094 261.07 82.473 260.886 81.479 258.195L79.727 251.156Z" fill="#BCBEC0"/>
<path d="M74.695 265.346C81.988 265.719 84.523 263.512 85.34 261.444C85.561 263.327 85.149 268.208 74.766 267.68C74.766 267.68 68.209 267.703 68.258 260.496C69.588 265.357 74.695 265.346 74.695 265.346Z" fill="white"/>
<path d="M79.492 253.154C79.492 253.48 79.754 253.742 80.078 253.742C80.402 253.742 80.666 253.48 80.666 253.154C80.666 252.832 80.402 252.568 80.078 252.568C79.754 252.568 79.492 252.832 79.492 253.154Z" fill="#BCBEC0"/>
<path d="M80.078 255.195C80.078 255.519 80.342 255.781 80.666 255.781C80.99 255.781 81.254 255.519 81.254 255.195C81.254 254.869 80.99 254.607 80.666 254.607C80.342 254.607 80.078 254.869 80.078 255.195Z" fill="#BCBEC0"/>
<path d="M80.625 257.498C80.625 257.822 80.887 258.086 81.211 258.086C81.537 258.086 81.799 257.822 81.799 257.498C81.799 257.174 81.537 256.912 81.211 256.912C80.887 256.912 80.625 257.174 80.625 257.498Z" fill="#BCBEC0"/>
<path d="M70.096 253.154C70.096 253.48 70.358 253.742 70.684 253.742C71.008 253.742 71.27 253.48 71.27 253.154C71.27 252.832 71.008 252.568 70.684 252.568C70.358 252.568 70.096 252.832 70.096 253.154Z" fill="#BCBEC0"/>
<path d="M70.389 255.195C70.389 255.519 70.655 255.781 70.977 255.781C71.303 255.781 71.565 255.519 71.565 255.195C71.565 254.869 71.303 254.607 70.977 254.607C70.654 254.607 70.389 254.869 70.389 255.195Z" fill="#BCBEC0"/>
<path d="M70.977 257.844C70.977 258.168 71.241 258.432 71.565 258.432C71.891 258.432 72.151 258.168 72.151 257.844C72.151 257.52 71.891 257.26 71.565 257.26C71.24 257.26 70.977 257.52 70.977 257.844Z" fill="#BCBEC0"/>
<path d="M80.608 255.549C80.721 255.549 80.834 255.494 80.901 255.391C81.012 255.229 80.967 255.01 80.805 254.901C77.92 252.967 71.27 252.753 70.987 252.747C70.985 252.743 70.981 252.743 70.977 252.743C70.788 252.743 70.629 252.895 70.625 253.089C70.617 253.284 70.773 253.446 70.967 253.45C71.035 253.454 77.696 253.667 80.41 255.489C80.473 255.529 80.539 255.549 80.608 255.549Z" fill="#BEC0C2"/>
<path d="M81.215 257.853C81.328 257.853 81.442 257.796 81.508 257.695C81.619 257.533 81.574 257.312 81.412 257.205C78.535 255.273 71.66 254.859 71.367 254.842C71.179 254.842 71.008 254.979 70.994 255.176C70.984 255.369 71.133 255.537 71.328 255.547C71.398 255.553 78.299 255.969 81.017 257.793C81.08 257.834 81.148 257.853 81.215 257.853Z" fill="#BEC0C2"/>
<path d="M80.078 253.51C80.23 253.51 80.371 253.408 80.418 253.256C80.473 253.071 80.367 252.873 80.18 252.818C75.471 251.398 70.78 252.758 70.582 252.814C70.394 252.873 70.287 253.068 70.344 253.255C70.399 253.443 70.59 253.546 70.783 253.493C70.83 253.479 75.474 252.138 79.974 253.493C80.01 253.506 80.045 253.51 80.078 253.51Z" fill="white"/>
<path d="M71.348 255.549C71.416 255.549 71.485 255.529 71.545 255.488C74.26 253.666 79.836 253.453 79.893 253.449C80.086 253.443 80.239 253.281 80.233 253.086C80.227 252.891 80.071 252.701 79.868 252.746C79.63 252.752 74.034 252.967 71.151 254.9C70.989 255.009 70.946 255.228 71.055 255.39C71.121 255.494 71.234 255.549 71.348 255.549Z" fill="#DEDFE0"/>
<path d="M71.955 257.853C72.023 257.853 72.092 257.834 72.152 257.792C74.877 255.964 80.449 255.55 80.507 255.546C80.7 255.534 80.849 255.362 80.835 255.169C80.819 254.972 80.671 254.835 80.454 254.841C80.22 254.859 74.636 255.275 71.759 257.204C71.597 257.312 71.552 257.532 71.661 257.694C71.73 257.797 71.842 257.853 71.955 257.853Z" fill="#DEDFE0"/>
<path d="M80.608 255.584C80.76 255.584 80.901 255.486 80.946 255.332C81.003 255.147 80.897 254.949 80.712 254.894C76.001 253.476 71.31 254.837 71.112 254.892C70.926 254.949 70.819 255.144 70.874 255.332C70.929 255.52 71.12 255.623 71.313 255.572C71.36 255.556 76.006 254.217 80.508 255.57C80.539 255.582 80.574 255.584 80.608 255.584Z" fill="white"/>
<path d="M71.82 258.008C71.857 258.008 71.892 258.002 71.925 257.99C71.974 257.974 76.597 256.552 81.118 257.826C81.303 257.883 81.503 257.771 81.556 257.582C81.609 257.391 81.499 257.197 81.312 257.147C76.58 255.813 71.91 257.254 71.716 257.317C71.528 257.376 71.425 257.573 71.484 257.76C71.533 257.91 71.672 258.008 71.82 258.008Z" fill="white"/>
<path d="M75.498 252.822C73.842 251.879 73.006 251.068 72.941 250.345C72.914 250.023 73.058 249.782 73.132 249.734C73.355 249.433 73.62 249.369 73.806 249.369C74.38 249.369 74.98 250.017 75.392 250.732C75.482 250.386 75.626 250.05 75.851 249.814C76.113 249.537 76.427 249.419 76.843 249.525C77.249 249.636 77.398 249.884 77.45 250.074C77.645 250.76 76.882 251.707 76.03 252.629L75.915 252.752C75.851 252.826 75.757 252.867 75.663 252.867C75.609 252.867 75.551 252.853 75.498 252.822ZM73.633 250.176C73.629 250.18 73.598 250.221 73.615 250.321C73.65 250.51 73.875 251.009 75.166 251.839C74.926 251.107 74.199 250.04 73.807 250.04C73.785 250.039 73.74 250.039 73.633 250.176ZM76.338 250.275C76.074 250.552 75.947 251.205 75.918 251.75C76.801 250.728 76.838 250.369 76.807 250.258C76.793 250.217 76.723 250.188 76.676 250.176C76.641 250.166 76.606 250.162 76.574 250.162C76.514 250.162 76.434 250.174 76.338 250.275Z" fill="white"/>
<path d="M82.297 257.053C82.297 257.053 82.416 258.008 82.746 259.385C82.791 259.561 82.83 259.737 82.877 259.926C82.918 260.106 82.99 260.323 82.984 260.432C83 260.748 82.931 261.077 82.752 261.34C82.693 261.488 82.527 261.576 82.434 261.707L81.965 262.002C81.574 262.199 81.178 262.346 80.744 262.5C80.322 262.641 79.894 262.793 79.463 262.9C79.025 262.986 78.613 263.148 78.192 263.203C77.768 263.267 77.364 263.351 76.979 263.422C76.588 263.449 76.221 263.492 75.874 263.529C75.181 263.64 74.604 263.568 74.188 263.611C73.77 263.636 73.53 263.654 73.53 263.654C73.53 263.654 73.757 263.72 74.157 263.843C74.358 263.9 74.608 263.964 74.889 264.04C75.174 264.126 75.502 264.188 75.862 264.204C76.225 264.239 76.616 264.278 77.032 264.3C77.45 264.288 77.895 264.269 78.346 264.23C79.254 264.144 80.213 263.919 81.147 263.611C81.596 263.433 82.071 263.24 82.501 263.004C82.734 262.867 82.96 262.689 83.167 262.522C83.343 262.288 83.56 262.104 83.661 261.834C83.94 261.33 83.956 260.76 83.849 260.285C83.783 259.992 83.697 259.846 83.619 259.666C83.539 259.492 83.459 259.326 83.387 259.164C82.791 257.879 82.297 257.053 82.297 257.053Z" fill="white"/>
<path d="M64.01 205.875L67.276 246.262C77.21 250.977 82.344 246.262 82.344 246.262L85.52 179.862H38.049L40.873 246.262C40.873 246.262 46.789 250.977 56.724 246.262L59.554 205.875H64.01Z" fill="#00A9EB"/>
<path d="M72.664 201.426C68.738 206.758 68.877 233.701 69.242 247.108C68.246 246.815 68.248 246.76 67.275 246.297L64.009 205.91H59.554L56.724 246.297C56.054 246.613 55.376 246.883 54.697 247.119C55.324 240.416 56.593 205.262 51.685 201.426C51.685 201.426 60.815 205.848 72.664 201.426Z" fill="#D1D3D4"/>
<path d="M78.873 179.897C81.537 189.053 82.881 197.547 82.643 207.319C82.539 211.591 80.168 243.348 77.373 246.985C77.141 247.288 76.881 247.548 76.639 247.833C80.047 247.22 82.344 246.298 82.344 246.298L85.52 179.898H78.873V179.897Z" fill="#D1D3D4"/>
<path d="M45.549 246.217C42.969 243.76 41.231 210.244 41.205 207.213C41.139 198.096 40.756 187.6 46.359 179.897H38.048L40.872 246.297C40.872 246.297 43.852 247.502 48.079 248.082C47.148 247.535 46.285 246.918 45.549 246.217Z" fill="#D1D3D4"/>
<path d="M69.09 118.193H54.477V125.191H69.09V118.193Z" fill="#D0835F"/>
<path d="M69.09 120.27V118.194H54.477V122.456C60.221 122.916 65.123 121.93 69.09 120.27Z" fill="#C27457"/>
<path d="M33.412 187.574C33.412 187.574 28.166 165.312 42.926 142.144C42.926 142.144 41.354 138.326 38.065 139.277C38.065 139.277 18.112 162.017 28.006 188.818C28.006 188.818 31.303 193.25 33.412 187.574Z" fill="#D0835F"/>
<path d="M28.514 199.951C25.987 196.347 25.707 192.797 25.707 192.797C25.707 192.797 25.205 189.029 27.004 187.254C27.004 187.254 29.693 183.766 33.33 185.961C34.246 186.518 34.678 187.678 35.182 188.572C35.217 188.635 35.25 188.697 35.289 188.756C35.877 189.781 36.545 190.779 37.447 191.559C38.972 192.87 37.924 194.018 37.924 194.018C37.447 194.583 36.598 194.526 36.08 194.041C35.447 193.439 34.836 192.809 34.209 192.193C33.096 191.47 33.096 192.459 33.096 192.459C34.006 195.107 35.75 198.123 35.75 198.123C36.162 199.295 35.268 199.754 35.268 199.754C35.268 199.754 34.532 200.553 32.842 198.012C32.842 198.012 31.373 195.66 30.738 193.164C30.877 194.81 32.763 198.435 32.763 198.435C33.992 199.915 32.607 200.521 32.607 200.521C30.904 200.943 29.757 197.595 29.757 197.595C28.661 194.652 28.099 193.478 28.099 193.478L29.878 198.248C29.878 198.248 30.776 199.813 29.968 200.27C29.968 200.27 29.35 200.816 28.514 199.951Z" fill="#D0835F"/>
<path d="M89.508 187.576C89.508 187.576 94.758 165.312 79.992 142.142C79.992 142.142 81.566 138.324 84.859 139.279C84.859 139.279 104.81 162.013 94.918 188.818C94.918 188.818 91.617 193.252 89.508 187.576Z" fill="#D0835F"/>
<path d="M94.406 199.951C96.929 196.347 97.213 192.795 97.213 192.795C97.213 192.795 97.717 189.033 95.92 187.254C95.92 187.254 93.228 183.766 89.596 185.961C88.672 186.518 88.241 187.682 87.739 188.572C87.702 188.635 87.673 188.695 87.637 188.756C87.043 189.781 86.379 190.779 85.471 191.559C83.951 192.87 84.994 194.018 84.994 194.018C85.471 194.581 86.322 194.526 86.842 194.041C87.475 193.439 88.09 192.807 88.713 192.193C89.826 191.47 89.826 192.459 89.826 192.459C88.914 195.107 87.17 198.123 87.17 198.123C86.756 199.295 87.654 199.754 87.654 199.754C87.654 199.754 88.392 200.553 90.078 198.01C90.078 198.01 91.547 195.66 92.182 193.16C92.045 194.808 90.155 198.435 90.155 198.435C88.927 199.914 90.313 200.521 90.313 200.521C92.016 200.943 93.165 197.599 93.165 197.599C94.259 194.652 94.819 193.476 94.819 193.476L93.04 198.247C93.04 198.247 92.145 199.81 92.954 200.271C92.954 200.271 93.57 200.818 94.406 199.951Z" fill="#D0835F"/>
<path d="M85.029 131.021C83.642 126.593 80.193 125.875 80.193 125.875L67.285 123.326H61.781H56.279L43.371 125.875C43.371 125.875 39.92 126.594 38.535 131.021C37.685 155.951 36.947 169.839 35.49 189.884C35.49 189.884 46.254 194.261 61.781 193.851C77.312 194.261 88.074 189.884 88.074 189.884C87.477 179.412 86.268 156.545 85.029 131.021Z" fill="#D0835F"/>
<path d="M70.004 123.863L80.193 125.877C80.193 125.877 83.642 126.594 85.029 131.023C86.002 150.785 86.494 162.746 88.074 189.886C88.074 189.886 77.312 194.263 61.781 193.851C46.254 194.263 35.49 189.886 35.49 189.886C36.701 168.611 37.439 156.687 38.535 131.023C39.92 126.593 43.371 125.877 43.371 125.877L53.123 123.951C53.123 123.951 53.26 130.215 61.375 130.049C61.375 130.049 69.09 131.033 70.004 123.863Z" fill="#CAE090"/>
<path d="M87.803 185.162C80.432 188.525 74.407 189.488 67.151 189.947C57.503 190.556 42.243 190.728 41.053 179.775C40.108 171.033 40.229 160.134 40.957 150.572H37.646C36.966 164.441 36.349 174.832 35.49 189.885C35.49 189.885 46.254 194.262 61.781 193.852C77.312 194.262 88.074 189.885 88.074 189.885C87.932 187.443 87.926 187.375 87.803 185.162Z" fill="#E0EBB2"/>
<path d="M43.139 125.941C43.139 125.941 33.996 126.287 30.309 137.916L27.624 144.885C27.624 144.885 31.669 152.342 40.522 152.098C40.522 152.098 46.031 135.377 43.139 125.941Z" fill="white"/>
<path d="M43.139 125.941C43.139 125.941 33.996 126.287 30.309 137.916L27.624 144.885C27.624 144.885 31.669 152.342 40.522 152.098C40.522 152.098 46.031 135.377 43.139 125.941Z" fill="#CAE090"/>
<path d="M34.357 145.963C32.437 142.602 33.878 137.637 35.142 134.346C36.603 130.549 39.595 127.934 43.148 126.155C43.16 126.149 43.173 126.151 43.187 126.145C43.167 126.081 43.156 126.006 43.138 125.942C43.138 125.942 33.995 126.288 30.308 137.917L27.623 144.886C27.623 144.886 31.668 152.343 40.521 152.099C40.521 152.099 40.751 151.386 41.087 150.212C38.311 149.781 35.844 148.566 34.357 145.963Z" fill="#E0EBB2"/>
<path d="M79.951 125.941C79.951 125.941 89.092 126.287 92.779 137.916L95.467 144.885C95.467 144.885 91.422 152.342 82.569 152.098C82.569 152.098 77.061 135.377 79.951 125.941Z" fill="#CAE090"/>
<path d="M88.73 145.963C90.652 142.602 89.21 137.637 87.945 134.346C86.486 130.549 83.494 127.934 79.939 126.155C79.927 126.149 79.915 126.151 79.902 126.145C79.922 126.081 79.931 126.006 79.951 125.942C79.951 125.942 89.092 126.288 92.779 137.917L95.467 144.886C95.467 144.886 91.422 152.343 82.569 152.099C82.569 152.099 82.339 151.386 82.001 150.212C84.779 149.781 87.246 148.566 88.73 145.963Z" fill="#E0EBB2"/>
<path d="M109.555 76.166C109.555 99.941 87.766 119.217 60.885 119.217C34.004 119.217 12.215 99.942 12.215 76.166C12.215 52.393 34.004 33.119 60.885 33.119C87.766 33.119 109.555 52.393 109.555 76.166Z" fill="#D0835F"/>
<path d="M6.09801 84.793C6.34001 88.688 9.06501 91.692 12.182 91.498C15.299 91.305 17.635 87.992 17.393 84.096C17.149 80.203 14.43 77.201 11.309 77.395C8.19101 77.588 5.85901 80.9 6.09801 84.793Z" fill="#D0835F"/>
<path d="M8.875 79.58C9.195 79.353 9.855 79.25 10.254 79.242C12.318 79.201 13.807 82.719 11.727 83.232C10.913 84.011 11.67 85 11.67 85C12.332 85.863 13.229 87.104 12.957 88.268C12.795 88.963 12.062 89.305 11.41 89.446C10.885 89.555 10.806 89.116 11.224 88.925C11.542 88.78 11.824 88.534 12.04 88.269C12.06 88.228 12.087 88.189 12.106 88.152C12.131 88.125 12.143 88.097 12.159 88.07C12.237 87.898 12.243 87.724 12.208 87.558C11.729 87.894 10.954 87.937 10.616 87.454C10.253 86.931 10.581 86.147 10.483 85.561C10.401 85.155 10.245 84.76 10.055 84.387C9.19799 82.633 10.91 82.432 10.91 82.432C11.168 82.448 11.363 82.479 11.533 82.51C12.416 82.061 11.523 80.621 11.008 80.371C10.414 80.08 9.66 80.133 9.201 80.623C8.742 81.117 8.531 81.904 8.537 82.562C8.545 83.376 8.69499 84.191 8.98199 84.947C9.14799 85.377 9.36101 85.886 9.52901 86.312C9.72001 86.802 9.197 86.986 9.004 86.496C8.604 85.467 7.836 83.947 7.729 82.543C7.641 81.377 7.887 80.279 8.875 79.58Z" fill="#C27457"/>
<path d="M115.672 84.793C115.428 88.688 112.705 91.692 109.588 91.498C106.469 91.305 104.135 87.992 104.377 84.096C104.619 80.203 107.34 77.201 110.461 77.395C113.578 77.588 115.91 80.9 115.672 84.793Z" fill="#D0835F"/>
<path d="M112.891 79.58C112.573 79.353 111.914 79.25 111.514 79.242C109.451 79.201 107.963 82.719 110.043 83.232C110.858 84.011 110.098 85 110.098 85C109.436 85.863 108.541 87.104 108.813 88.268C108.975 88.963 109.708 89.305 110.36 89.446C110.883 89.555 110.963 89.116 110.544 88.925C110.226 88.78 109.946 88.534 109.728 88.269C109.708 88.228 109.683 88.189 109.662 88.152C109.639 88.125 109.625 88.097 109.611 88.07C109.535 87.898 109.525 87.724 109.56 87.558C110.039 87.894 110.814 87.937 111.152 87.454C111.515 86.931 111.185 86.147 111.289 85.561C111.367 85.155 111.523 84.76 111.715 84.387C112.572 82.633 110.86 82.432 110.86 82.432C110.6 82.448 110.407 82.479 110.237 82.51C109.352 82.061 110.245 80.621 110.758 80.371C111.356 80.08 112.108 80.133 112.569 80.623C113.028 81.117 113.235 81.904 113.233 82.562C113.225 83.376 113.073 84.191 112.786 84.947C112.622 85.377 112.411 85.886 112.239 86.312C112.048 86.802 112.573 86.986 112.766 86.496C113.164 85.467 113.934 83.947 114.039 82.543C114.129 81.377 113.883 80.279 112.891 79.58Z" fill="#C27457"/>
<path d="M64.381 91.598C63.932 91.598 63.568 91.233 63.568 90.784C63.568 89.305 62.363 88.1 60.884 88.1C59.405 88.1 58.2 89.305 58.2 90.784C58.2 91.233 57.837 91.598 57.386 91.598C56.939 91.598 56.573 91.233 56.573 90.784C56.573 88.403 58.507 86.47 60.884 86.47C63.261 86.47 65.195 88.404 65.195 90.784C65.195 91.232 64.83 91.598 64.381 91.598Z" fill="#C27457"/>
<path opacity="0.3" d="M27.438 90.477C27.438 92.897 30.557 94.86 34.417 94.86C38.271 94.86 41.397 92.897 41.397 90.477C41.397 88.055 38.27 86.088 34.417 86.088C30.557 86.088 27.438 88.055 27.438 90.477Z" fill="#AB664C"/>
<path opacity="0.3" d="M80.369 90.477C80.369 92.897 83.494 94.86 87.349 94.86C91.201 94.86 94.331 92.897 94.331 90.477C94.331 88.055 91.2 86.088 87.349 86.088C83.494 86.088 80.369 88.055 80.369 90.477Z" fill="#AB664C"/>
<path d="M26.232 15.385C9.177 18.754 6.08001 45.291 6.08001 45.291C4.85701 58.379 4.80101 63.381 8.69501 78.393C8.69501 78.393 9.08601 77.489 12.238 77.44C12.164 77.442 13.851 71.881 13.914 71.543C16.355 58.438 27.437 53.477 27.437 53.477C41.388 43.639 36.222 39.063 36.222 39.059C36.466 40.414 40.167 42.897 41.396 43.192C47.621 44.672 54.267 43.329 59.796 43.522C69.634 43.868 80.286 44.514 88.501 50.577C95.595 55.813 101.263 62.848 105.864 70.304C106.309 71.029 109.202 77.45 109.532 77.386C109.532 77.386 111.196 77.077 113.366 78.646C113.366 78.646 121.272 32.47 96.907 19.533C96.908 19.531 54.67 -2.863 26.232 15.385Z" fill="#4A2724"/>
<path d="M17.23 62.914C20.384 57.492 28.656 52.596 28.656 52.596C38.668 45.537 37.615 42.067 36.91 40.172C36.973 40.24 37.043 40.309 37.111 40.379C33.472 32 29.966 23.559 25.521 15.559C5.341 18.532 -0.0019989 46.651 -0.0019989 46.651L0.268005 47.637C2.02101 55.895 9.34 61.012 17.23 62.914Z" fill="#5D362A"/>
<path d="M34.389 66.354C35.86 64.95 37.694 64.321 39.676 64.043C40.565 63.918 41.033 62.803 40.822 62.026C40.562 61.081 39.689 60.758 38.804 60.881C36.267 61.235 33.931 62.258 32.072 64.035C30.539 65.498 32.861 67.813 34.389 66.354Z" fill="#4A2724"/>
<path d="M87.381 66.354C85.908 64.95 84.076 64.321 82.092 64.043C81.205 63.918 80.735 62.803 80.947 62.026C81.209 61.081 82.08 60.758 82.963 60.881C85.502 61.235 87.838 62.258 89.697 64.035C91.23 65.498 88.908 67.813 87.381 66.354Z" fill="#4A2724"/>
<path opacity="0.1" d="M30.592 28.664C30.592 28.664 11.44 40.889 10.428 50.687C10.428 50.687 10.489 45.218 13.494 38.669C13.494 38.669 7.17 41.446 6.879 47.333C6.879 47.333 2.797 34.419 23.975 22.448C23.975 22.448 16.663 29.567 15.395 36.169C15.395 36.169 22.092 28.447 30.592 28.664Z" fill="white"/>
<path d="M60.678 110.215C59.037 110.215 58.115 109.572 58.059 109.529C57.725 109.289 57.649 108.82 57.887 108.484C58.129 108.152 58.592 108.076 58.926 108.31C59.006 108.363 60.408 109.259 62.994 108.228C63.379 108.08 63.814 108.261 63.965 108.646C64.121 109.025 63.934 109.464 63.551 109.617C62.436 110.064 61.473 110.215 60.678 110.215Z" fill="#C27457"/>
<path d="M60.828 106.105C59.717 106.105 58.346 105.056 57.506 104.392C57.074 104.05 56.836 103.919 57.09 103.312C57.256 102.916 58.356 102.953 58.961 102.996C60.199 103.086 60.824 103.117 62.066 103.059C62.666 103.03 64.754 102.752 64.783 103.557C64.816 104.512 61.699 106.105 60.828 106.105Z" fill="#C27457"/>
<path d="M48.096 77.387C48.096 82.151 44.233 86.014 39.467 86.014C34.701 86.014 30.84 82.151 30.84 77.387C30.84 72.621 34.701 68.758 39.467 68.758C44.232 68.758 48.096 72.621 48.096 77.387Z" fill="white"/>
<path d="M46.482 77.387C46.482 80.617 43.992 83.239 40.923 83.239C37.853 83.239 35.364 80.618 35.364 77.387C35.364 74.155 37.852 71.533 40.923 71.533C43.992 71.533 46.482 74.154 46.482 77.387Z" fill="#70432E"/>
<path d="M39.467 86.014C39.467 86.014 39.361 86.018 39.162 86.026C38.962 86.021 38.672 86.075 38.298 86.024C37.919 86.006 37.465 85.941 36.948 85.83C36.434 85.71 35.861 85.527 35.268 85.242C34.686 84.943 34.065 84.581 33.487 84.088C32.889 83.618 32.347 83.013 31.871 82.329C31.398 81.641 31.019 80.854 30.746 80.018C30.488 79.163 30.365 78.307 30.34 77.362C30.361 76.551 30.487 75.584 30.746 74.757C31.017 73.919 31.397 73.133 31.87 72.445C32.346 71.761 32.887 71.154 33.485 70.685C34.063 70.192 34.684 69.83 35.266 69.531C35.859 69.246 36.432 69.062 36.947 68.943C37.465 68.832 37.916 68.767 38.293 68.75C38.665 68.699 38.963 68.753 39.161 68.748C39.36 68.756 39.466 68.76 39.466 68.76C39.466 68.76 39.361 68.775 39.163 68.803C38.967 68.838 38.677 68.852 38.319 68.944C37.957 69.008 37.53 69.13 37.053 69.301C36.58 69.483 36.069 69.728 35.532 70.028C35.011 70.353 34.463 70.734 33.97 71.23C33.456 71.704 33.02 72.3 32.606 72.926C32.198 73.563 31.912 74.289 31.669 75.035C31.449 75.808 31.356 76.531 31.337 77.413C31.353 78.161 31.448 78.995 31.668 79.74C31.909 80.487 32.196 81.214 32.605 81.85C33.02 82.476 33.454 83.074 33.968 83.546C34.461 84.042 35.009 84.423 35.531 84.748C36.068 85.048 36.579 85.294 37.052 85.475C37.53 85.647 37.955 85.767 38.315 85.831C38.67 85.923 38.968 85.936 39.163 85.973C39.361 85.999 39.467 86.014 39.467 86.014Z" fill="#C27457"/>
<path d="M73.674 77.387C73.674 82.151 77.537 86.014 82.303 86.014C87.067 86.014 90.93 82.151 90.93 77.387C90.93 72.621 87.067 68.758 82.303 68.758C77.537 68.758 73.674 72.621 73.674 77.387Z" fill="white"/>
<path d="M75.287 77.387C75.287 80.617 77.775 83.239 80.844 83.239C83.916 83.239 86.404 80.618 86.404 77.387C86.404 74.155 83.916 71.533 80.844 71.533C77.775 71.533 75.287 74.154 75.287 77.387Z" fill="#70432E"/>
<path d="M82.303 86.014C82.303 86.014 82.408 85.999 82.606 85.972C82.8 85.936 83.099 85.922 83.454 85.83C83.813 85.766 84.239 85.644 84.717 85.474C85.19 85.292 85.701 85.046 86.238 84.747C86.759 84.422 87.307 84.041 87.8 83.545C88.315 83.072 88.749 82.474 89.163 81.848C89.571 81.212 89.859 80.485 90.1 79.739C90.321 78.994 90.416 78.16 90.431 77.412C90.411 76.53 90.319 75.807 90.099 75.034C89.856 74.289 89.57 73.561 89.161 72.925C88.747 72.3 88.311 71.702 87.797 71.23C87.305 70.733 86.757 70.352 86.236 70.027C85.699 69.728 85.188 69.482 84.715 69.3C84.238 69.129 83.811 69.007 83.449 68.943C83.092 68.851 82.801 68.838 82.605 68.802C82.408 68.774 82.302 68.759 82.302 68.759C82.302 68.759 82.408 68.755 82.607 68.747C82.805 68.752 83.103 68.699 83.475 68.749C83.852 68.767 84.304 68.831 84.821 68.942C85.335 69.062 85.908 69.246 86.501 69.53C87.083 69.83 87.705 70.192 88.283 70.684C88.881 71.154 89.422 71.76 89.898 72.444C90.371 73.132 90.751 73.919 91.022 74.756C91.28 75.583 91.407 76.551 91.428 77.361C91.404 78.306 91.281 79.163 91.022 80.017C90.749 80.854 90.371 81.64 89.897 82.328C89.421 83.012 88.879 83.616 88.282 84.086C87.704 84.579 87.083 84.941 86.501 85.241C85.908 85.525 85.335 85.709 84.821 85.828C84.305 85.94 83.851 86.006 83.472 86.023C83.097 86.074 82.808 86.02 82.608 86.025C82.409 86.018 82.303 86.014 82.303 86.014Z" fill="#C27457"/>
<path d="M37.285 44.762L29.242 22.447L39.467 43.436L37.285 44.762Z" fill="#D0835F"/>
<path d="M112.596 26.621C112.596 26.621 118.801 39.142 118.198 65.127C72.216 67.781 51.905 43.684 51.905 43.684L61.022 56.858C47.622 51.348 37.081 40.838 37.081 40.838L26.233 15.385C26.233 15.385 32.268 -4.142 68.212 1.057C68.212 1.057 98.004 4.434 112.596 26.621Z" fill="#5D362A"/>
<path opacity="0.1" d="M56.678 14.939C56.678 14.939 39.516 13.177 34.295 18.531C34.295 18.531 36.908 15.308 41.785 12.828C41.785 12.828 36.713 11.5 33.762 14.863C33.762 14.863 37.428 5.256 55.67 8.121C55.67 8.121 47.963 8.908 44.094 12.236C44.094 12.236 51.721 10.801 56.678 14.939Z" fill="white"/>
<path opacity="0.1" d="M78.422 21.82C78.422 21.82 99.777 29.584 102.899 38.925C102.899 38.925 101.649 33.597 97.291 27.864C97.291 27.864 104.064 29.196 105.633 34.876C105.633 34.876 106.801 21.382 83.526 14.313C83.526 14.313 92.216 19.67 94.889 25.836C94.889 25.838 86.672 19.758 78.422 21.82Z" fill="white"/>
<path opacity="0.1" d="M58.494 28.865C58.494 28.865 73.303 46.099 83.146 45.715C83.146 45.715 77.724 46.426 70.816 44.379C70.816 44.379 74.459 50.246 80.328 49.707C80.328 49.707 68.119 55.568 53.277 36.297C53.277 36.297 61.357 42.527 68.07 42.854C68.07 42.854 59.48 37.313 58.494 28.865Z" fill="white"/>
<path opacity="0.1" d="M83.648 46.357C83.648 46.357 104.375 55.667 113.125 51.138C113.125 51.138 108.518 54.087 101.395 55.165C101.395 55.165 107.186 58.929 112.266 55.944C112.266 55.944 103.707 66.44 82.082 55.298C82.082 55.298 92.047 57.507 98.262 54.946C98.262 54.946 88.129 53.584 83.648 46.357Z" fill="white"/>
</svg>
