<svg width="142" height="333" viewBox="0 0 142 333" fill="none" xmlns="http://www.w3.org/2000/svg">
<path d="M71.268 332.079C110.172 332.079 141.709 327.239 141.709 321.268C141.709 315.297 110.172 310.457 71.268 310.457C32.3645 310.457 0.827026 315.297 0.827026 321.268C0.827026 327.239 32.3645 332.079 71.268 332.079Z" fill="#EFE8DF"/>
<path d="M117.408 147.391C117.408 147.391 113.542 155.909 105.205 157.54C96.8691 159.171 96.8691 151.016 96.8691 151.016L117.408 147.391Z" fill="#035A5B"/>
<path d="M5.16803 147.391C5.16803 147.391 7.94703 151.982 17.612 155.486C27.277 158.99 33.077 157.54 33.077 157.54L33.802 151.137L5.16803 147.391Z" fill="#035A5B"/>
<path d="M33.198 146.545L10 141.229C10 141.229 9.28304 149.37 8.47504 160.521C14.764 163.269 21.818 164.884 28.908 165.506C30.4 157.94 31.897 151.098 33.198 146.545Z" fill="#ECA278"/>
<path d="M8.47505 160.522C7.34005 176.192 6.02505 197.807 6.27005 211.15C4.28205 216.979 0.793053 229.565 2.72605 230.411C4.65905 231.257 7.84505 222.748 7.84505 222.748C7.84505 222.748 4.76406 233.299 6.68806 233.988C8.61305 234.677 11.351 223.566 11.351 223.566C11.351 223.566 9.40705 234.794 11.1771 235.55C14.2281 236.713 15.1201 223.373 15.1201 223.373C15.1201 223.373 15.6721 234.158 18.0441 234.351C20.4161 234.544 19.3991 220.583 19.3991 220.583C19.3991 220.583 21.733 226.446 23.505 224.151C25.277 221.856 20.8331 211.953 20.8331 211.953C20.8331 211.953 24.855 186.054 28.907 165.508C21.818 164.884 14.7641 163.27 8.47505 160.522Z" fill="#F8BC8D"/>
<path d="M114.871 147.512C114.871 147.512 122.845 161.044 122.12 168.293C121.395 175.542 98.9231 170.709 98.9231 170.709L91.6741 157.177L114.871 147.512Z" fill="#ECA278"/>
<path d="M26.4321 196.323C26.4321 196.323 62.4361 206.23 99.4061 194.148C99.4061 194.148 89.9821 183.516 65.0941 185.932C40.2051 188.349 35.1311 189.074 26.4321 196.323Z" fill="#429797"/>
<path d="M30.8661 271.585C32.9011 288.112 35.0201 304.668 35.4251 308.405C35.4251 308.405 18.3311 314.796 18.2381 319.252C18.1451 323.708 42.2211 321.755 42.2211 321.755C42.2211 321.755 59.0881 326.62 54.4661 311.879C54.4661 311.879 55.7001 295.354 57.1261 275.872C48.3241 275.447 39.5431 274.079 30.8661 271.585Z" fill="#F8BC8D"/>
<path d="M61.362 213.813C55.519 213.868 32.728 236.868 26.902 236.602C27.315 242.227 29.057 256.895 30.866 271.585C39.543 274.079 48.324 275.448 57.126 275.873C59.174 247.892 61.615 213.811 61.362 213.813Z" fill="#ECA278"/>
<path d="M25.5411 312.352C18.4641 315.529 16.2351 318.678 16.2351 318.678C16.2351 318.678 16.5651 319.708 26.2971 321.036C26.9831 318.048 26.7031 314.955 25.5411 312.352Z" fill="white"/>
<path d="M55.0181 310.393C45.7731 315.325 34.8411 308.306 34.8411 308.306C30.9921 309.3 28.0511 311.224 25.5411 312.351C26.7031 314.954 26.9831 318.047 26.2971 321.036C28.8051 321.378 31.9271 321.74 35.8411 322.11C54.9421 323.913 55.8461 318.745 55.8461 318.745C56.1051 313.694 54.9421 310.664 55.0181 310.393Z" fill="#E95336"/>
<path d="M55.8461 318.744C55.7561 319.727 55.6141 320.76 55.4021 321.844C55.4021 321.844 49.8451 323.698 34.8311 323.385C18.0541 323.035 15.9501 320.759 15.9501 320.759C15.9501 320.759 15.8581 319.911 16.2351 318.677C33.9601 322.605 48.2551 320.558 55.8461 318.744Z" fill="white"/>
<path d="M32.0571 317.062C32.0501 317.062 32.0431 317.062 32.0361 317.061C31.9101 317.046 31.8191 316.928 31.8331 316.796C32.2611 312.836 29.5691 311.025 29.4541 310.95C29.3471 310.88 29.3141 310.731 29.3811 310.619C29.4491 310.507 29.5891 310.474 29.6981 310.542C29.7291 310.562 32.7511 312.581 32.2901 316.848C32.2761 316.973 32.1741 317.065 32.0571 317.062Z" fill="#D83C27"/>
<path d="M35.3921 315.965C35.2651 315.961 35.1641 315.852 35.1671 315.719C35.2671 311.499 32.8881 309.875 32.8651 309.858C32.7581 309.788 32.7261 309.639 32.7941 309.528C32.8611 309.415 33.0021 309.381 33.1101 309.452C33.2171 309.521 35.7341 311.222 35.6271 315.73C35.6231 315.862 35.5181 315.968 35.3921 315.965Z" fill="#D83C27"/>
<path d="M34.2221 311.265C34.1301 311.263 34.0491 311.204 34.0141 311.116C33.8681 310.741 32.6081 307.415 33.4101 306.152C33.6111 305.835 33.9301 305.664 34.3311 305.657C34.8321 305.663 35.0991 305.902 35.2341 306.115C36.0111 307.346 34.6001 310.739 34.4371 311.122C34.3991 311.21 34.3141 311.266 34.2221 311.265ZM34.3731 306.137C34.3611 306.137 34.3491 306.136 34.3361 306.137C34.0831 306.14 33.9101 306.229 33.7921 306.416C33.3141 307.168 33.8381 309.187 34.2371 310.372C34.6891 309.167 35.3091 307.106 34.8491 306.379C34.7851 306.278 34.6661 306.143 34.3731 306.137Z" fill="#D83C27"/>
<path d="M34.2211 311.32C34.1351 311.318 34.0571 311.266 34.0191 311.184C33.9791 311.097 33.9921 310.995 34.0541 310.922C34.3101 310.617 36.5821 307.96 38.0391 308.129C38.4011 308.175 38.6891 308.395 38.8731 308.767C39.1041 309.232 39.0061 309.595 38.8831 309.815C38.1751 311.093 34.6371 311.301 34.2361 311.319C34.2311 311.32 34.2251 311.32 34.2211 311.32ZM37.9021 308.6C37.0341 308.582 35.6031 309.92 34.7891 310.798C36.0231 310.679 38.0661 310.331 38.4851 309.577C38.5461 309.466 38.6101 309.284 38.4641 308.989C38.3481 308.755 38.1951 308.633 37.9821 308.606C37.9561 308.602 37.9291 308.6 37.9021 308.6Z" fill="#D83C27"/>
<path d="M104.481 239.817C98.85 241.337 81.201 253.105 75.485 254.315C75.32 254.35 78.34 263.551 82.076 274.734C90.978 273.549 99.817 271.598 108.505 269.078C106.794 256.395 105.186 244.656 104.481 239.817Z" fill="#ECA278"/>
<path d="M114.146 312.067C113.685 307.889 110.987 287.489 108.505 269.079C99.8171 271.599 90.9781 273.55 82.076 274.735C87.881 292.111 95.414 314.273 95.414 314.273C94.09 329.664 109.506 321.266 109.506 321.266C109.506 321.266 129.941 324.854 128.886 320.524C127.831 316.194 114.146 312.067 114.146 312.067Z" fill="#F8BC8D"/>
<path d="M124.221 314.795C131.333 317.892 133.597 321.016 133.597 321.016C133.597 321.016 133.279 322.05 123.563 323.488C122.843 320.507 123.089 317.411 124.221 314.795Z" fill="white"/>
<path d="M94.723 313.17C104.023 317.998 114.876 310.855 114.876 310.855C118.736 311.806 121.698 313.696 124.221 314.795C123.089 317.411 122.843 320.507 123.563 323.488C121.059 323.859 117.941 324.256 114.032 324.669C94.952 326.688 93.99 321.53 93.99 321.53C93.674 316.483 94.802 313.44 94.723 313.17Z" fill="#E95336"/>
<path d="M93.99 321.53C94.092 322.511 94.244 323.543 94.469 324.624C94.469 324.624 100.047 326.415 115.056 325.933C131.828 325.393 133.906 323.094 133.906 323.094C133.906 323.094 133.988 322.245 133.597 321.016C115.918 325.143 101.601 323.257 93.99 321.53Z" fill="white"/>
<path d="M117.758 319.579C117.765 319.579 117.772 319.579 117.779 319.578C117.905 319.562 117.994 319.442 117.979 319.311C117.507 315.357 120.178 313.515 120.292 313.439C120.399 313.367 120.43 313.219 120.361 313.107C120.292 312.996 120.152 312.964 120.043 313.034C120.013 313.055 117.014 315.107 117.522 319.369C117.538 319.493 117.641 319.583 117.758 319.579Z" fill="#D83C27"/>
<path d="M114.412 318.52C114.539 318.515 114.639 318.404 114.634 318.272C114.486 314.053 116.846 312.402 116.87 312.386C116.976 312.314 117.007 312.166 116.937 312.055C116.869 311.943 116.727 311.91 116.62 311.983C116.514 312.054 114.017 313.782 114.174 318.289C114.179 318.42 114.285 318.524 114.412 318.52Z" fill="#D83C27"/>
<path d="M115.527 313.807C115.435 313.809 115.35 313.754 115.312 313.666C115.144 313.286 113.695 309.908 114.459 308.669C114.591 308.454 114.856 308.212 115.357 308.201C115.758 308.203 116.079 308.37 116.284 308.685C117.1 309.939 115.878 313.279 115.736 313.655C115.702 313.744 115.621 313.803 115.53 313.806C115.528 313.807 115.527 313.807 115.527 313.807ZM114.845 308.929C114.394 309.661 115.037 311.715 115.502 312.915C115.888 311.725 116.389 309.701 115.902 308.954C115.782 308.768 115.608 308.681 115.355 308.681C115.343 308.68 115.33 308.681 115.318 308.681C115.026 308.69 114.909 308.826 114.845 308.929Z" fill="#D83C27"/>
<path d="M115.515 313.861C115.114 313.847 111.574 313.679 110.852 312.409C110.727 312.19 110.625 311.828 110.851 311.361C111.031 310.987 111.317 310.764 111.678 310.714C113.134 310.529 115.435 313.16 115.695 313.462C115.757 313.534 115.771 313.636 115.733 313.723C115.696 313.806 115.618 313.858 115.532 313.861C115.525 313.862 115.52 313.862 115.515 313.861ZM111.738 311.19C111.526 311.219 111.374 311.343 111.261 311.578C111.118 311.875 111.184 312.056 111.247 312.166C111.674 312.916 113.721 313.24 114.956 313.346C114.133 312.477 112.686 311.156 111.818 311.184C111.791 311.184 111.764 311.186 111.738 311.19Z" fill="#D83C27"/>
<path d="M99.0591 203.19L96.1441 189.436C96.1441 189.436 42.5011 186.899 28.3651 191.973L26.2031 209.172C50.3461 205.049 74.5241 202.955 99.0591 203.19Z" fill="#253269"/>
<path d="M26.2031 209.172L20.3911 255.403C20.3911 255.403 30.5401 264.102 60.9861 263.015L62.798 228.219L64.9731 227.857L72.9471 262.653C72.9471 262.653 95.7821 265.915 110.28 256.129L99.0591 203.191C74.5241 202.955 50.3461 205.049 26.2031 209.172Z" fill="#334B9A"/>
<path d="M60.261 188.349L61.711 216.62" stroke="#2F2035" stroke-width="0.5739" stroke-miterlimit="10" stroke-linecap="round" stroke-linejoin="round"/>
<path d="M61.5901 214.204C61.5901 214.204 66.4231 214.566 66.7851 208.284C67.1481 202.001 66.3021 186.537 66.3021 186.537" stroke="#2F2035" stroke-width="0.5739" stroke-miterlimit="10" stroke-linecap="round" stroke-linejoin="round"/>
<path d="M85.2701 189.678C85.2701 189.678 88.0491 202.726 99.6471 210.459" stroke="#2F2035" stroke-width="0.5739" stroke-miterlimit="10" stroke-linecap="round" stroke-linejoin="round"/>
<path d="M28.5461 212.815C28.5461 212.815 41.2321 207.257 41.3531 189.376" stroke="#2F2035" stroke-width="0.5739" stroke-miterlimit="10" stroke-linecap="round" stroke-linejoin="round"/>
<path d="M54.824 229.789L79.834 225.198" stroke="#2F2035" stroke-width="0.5739" stroke-miterlimit="10" stroke-linecap="round" stroke-linejoin="round"/>
<path d="M64.9731 227.856L72.8261 232.448" stroke="#2F2035" stroke-width="0.5739" stroke-miterlimit="10" stroke-linecap="round" stroke-linejoin="round"/>
<path d="M70.41 235.649L76.572 262.833" stroke="#2F2035" stroke-width="0.5739" stroke-miterlimit="10" stroke-linecap="round" stroke-linejoin="round"/>
<path d="M21.6591 255.766L31.0831 195.235" stroke="#2F2035" stroke-width="0.5739" stroke-miterlimit="10" stroke-linecap="round" stroke-linejoin="round"/>
<path d="M59.536 117.79C69.582 118.044 75.275 112.477 78.417 107.144C76.894 106.851 75.384 106.611 73.914 106.433C65.133 105.369 62.221 105.671 61.288 105.908C60.356 105.672 57.444 105.369 48.662 106.433C46.063 106.748 43.345 107.261 40.645 107.919C42.999 112.189 48.2 117.503 59.536 117.79Z" fill="#429797"/>
<path d="M28.9351 154.64C29.4981 154.659 29.9331 154.658 30.1941 154.652L31.2641 151.137C31.2641 151.137 30.2511 152.643 28.9351 154.64Z" fill="#429797"/>
<path d="M6.75103 143.903C5.77803 146.035 5.16803 147.391 5.16803 147.391C16.411 153.575 25.439 154.524 28.935 154.64C30.251 152.643 31.264 151.136 31.264 151.136C21.363 150.563 12.399 146.835 6.75103 143.903Z" fill="#429797"/>
<path d="M94.761 154.58L91.461 151.58C91.29 151.592 91.121 151.61 90.949 151.62L93.886 161.271C93.31 158.926 92.694 156.681 92.036 154.64C92.036 154.64 93.021 154.701 94.761 154.58Z" fill="#429797"/>
<path d="M94.7611 154.58C98.8591 154.296 107.232 152.989 117.409 147.391C117.409 147.391 116.841 146.129 115.933 144.138C110.415 147.055 101.441 150.89 91.4611 151.58L94.7611 154.58Z" fill="#429797"/>
<path d="M103.751 119.123C100.283 113.865 89.035 109.186 78.417 107.144C75.275 112.477 69.582 118.044 59.536 117.79C48.2 117.503 42.999 112.189 40.645 107.919C30.915 110.289 21.416 114.659 18.579 119.482C18.322 119.919 18.031 120.442 17.718 121.022C46.221 127.951 76.398 128.31 103.751 119.123Z" fill="#FAB94C"/>
<path d="M103.751 119.123C76.3991 128.31 46.222 127.95 17.718 121.022C16.07 124.074 13.726 128.919 11.506 133.634C44.178 143.043 78.221 141.723 110.26 131.919C107.867 126.874 105.443 121.939 103.998 119.482C103.926 119.362 103.83 119.243 103.751 119.123Z" fill="#4CA5A2"/>
<path d="M11.506 133.634C9.68303 137.507 7.94404 141.288 6.75104 143.903C12.399 146.836 21.363 150.563 31.265 151.137L90.708 150.895L91.461 151.58C101.441 150.89 110.415 147.055 115.933 144.138C114.568 141.144 112.427 136.486 110.26 131.919C78.221 141.723 44.177 143.043 11.506 133.634Z" fill="#FAB94C"/>
<path d="M27.435 179.586C26.745 188.69 26.431 196.323 26.431 196.323C34.115 191.646 58.155 190.61 61.287 190.533C64.419 190.61 91.721 189.471 99.405 194.148C99.405 194.148 98.639 186.983 97.201 178.084C73.898 176.326 50.345 177.271 27.435 179.586Z" fill="#4CA5A2"/>
<path d="M97.202 178.084C96.555 174.078 95.772 169.721 94.861 165.507C72.63 164.679 50.521 162.614 28.746 165.709C28.211 170.197 27.778 175.071 27.436 179.586C50.345 177.271 73.898 176.326 97.202 178.084Z" fill="#FAB94C"/>
<path d="M90.949 151.62C91.121 151.61 91.29 151.592 91.461 151.58L90.708 150.895L31.265 151.137L30.195 154.652C30.403 154.647 30.54 154.64 30.54 154.64C29.847 157.555 29.252 161.46 28.746 165.709C50.521 162.614 72.63 164.679 94.861 165.507C94.551 164.072 94.226 162.653 93.887 161.271L90.949 151.62Z" fill="#4CA5A2"/>
<path d="M54.1851 173.071C62.7881 163.563 70.0671 152.858 75.7471 141.362" stroke="#429797" stroke-width="0.5739" stroke-miterlimit="10" stroke-linecap="round" stroke-linejoin="round"/>
<path d="M65.541 177.913C72.495 170.62 77.071 161.095 78.421 151.109" stroke="#429797" stroke-width="0.5739" stroke-miterlimit="10" stroke-linecap="round" stroke-linejoin="round"/>
<path d="M31.264 148.962C30.781 147.754 33.439 130.597 35.13 126.248C36.821 121.899 40.929 110.542 40.929 110.542" stroke="#429797" stroke-width="0.5739" stroke-miterlimit="10" stroke-linecap="round" stroke-linejoin="round"/>
<path d="M79.834 110.541C79.834 110.541 88.291 125.523 89.499 130.839C90.707 136.155 91.19 148.72 91.19 148.72" stroke="#429797" stroke-width="0.5739" stroke-miterlimit="10" stroke-linecap="round" stroke-linejoin="round"/>
<path d="M26.915 192.457C26.915 192.457 57.12 180.617 98.198 189.557" stroke="#429797" stroke-width="0.5739" stroke-miterlimit="10" stroke-linecap="round" stroke-linejoin="round"/>
<path d="M44.8851 96.154L45.5621 103.231C54.1381 105.169 62.9861 105.402 71.1651 103.846L71.3161 93.723L44.8851 96.154Z" fill="#ECA278"/>
<path d="M45.563 103.232L46.592 108.246C46.592 108.246 48.052 114.003 58.101 114.003C69.364 114.003 71.0141 108.246 71.0141 108.246L71.165 103.847C62.986 105.402 54.139 105.169 45.563 103.232Z" fill="#F8BC8D"/>
<path d="M27.8491 12.06C19.5041 15.298 12.5141 21.887 8.79007 30.027C7.96407 31.832 7.28307 33.847 7.75307 35.776C8.22307 37.705 10.2771 39.353 12.1551 38.71C6.02607 42.138 2.83607 50.074 4.88507 56.79C6.93507 63.506 14.0131 68.308 21.0111 67.73" stroke="#BE6854" stroke-width="0.6559" stroke-miterlimit="10"/>
<path d="M92.5471 33.391C92.5471 33.391 96.642 48.183 94.661 69.024C93.115 85.285 78.6181 99.968 58.6421 99.369C39.8671 98.806 21.1941 89.45 17.8661 62.724C14.5391 35.998 24.76 15.94 49.062 12.383C73.364 8.82502 89.2441 16.693 92.5471 33.391Z" fill="#F8BC8D"/>
<path d="M90.1661 13.758C95.2771 17.131 100.575 20.701 103.588 26.033C106.6 31.364 106.492 38.998 101.677 42.782C102.556 46.671 103.435 50.559 104.314 54.448C104.966 57.331 105.621 60.271 105.355 63.214C105.089 66.157 103.744 69.158 101.214 70.686C97.9741 72.642 93.4981 71.598 90.8371 68.907C88.1761 66.216 87.1291 62.253 87.2071 58.469C87.2851 54.685 88.3661 51.002 89.4391 47.373C85.7551 41.815 82.6691 35.859 80.2541 29.643C79.0261 26.481 77.9571 23.051 78.7051 19.742C79.4531 16.433 82.6751 13.462 85.9911 14.175" fill="#BE6854"/>
<path d="M98.5281 72.241C102.477 71.504 105.795 68.136 106.473 64.177C107.002 61.088 106.049 57.951 104.99 55.001C103.192 49.99 101.054 45.1 98.5981 40.377C99.5501 41.998 100.916 43.768 102.795 43.711C104.13 43.671 105.283 42.635 105.809 41.407C106.336 40.18 106.343 38.794 106.228 37.464C105.806 32.586 103.814 27.856 100.62 24.145C97.4261 20.434 93.0451 17.76 88.2841 16.617" stroke="#BE6854" stroke-width="0.6559" stroke-miterlimit="10"/>
<path d="M18.681 59.746C18.681 59.746 25.934 58.771 27.968 46.481C27.968 46.481 34.199 44.577 37.343 32.393C37.343 32.393 67.838 47.499 77.355 42.301C77.355 42.301 81.288 39.901 79.556 35.02C79.556 35.02 84.266 39.009 93.368 37.101C102.47 35.192 98.861 21.876 93.245 19.677C93.245 19.677 97.999 3.166 79.763 3.928C61.527 4.69 58.839 1.448 48.34 1.004C37.841 0.56 30.91 6.26 27.638 11.497C27.638 11.497 1.69804 22.623 9.45604 38.387C9.45604 38.387 0.147043 52.624 10.41 58.96C20.672 65.296 18.681 59.746 18.681 59.746Z" fill="#BE6854"/>
<path d="M25.639 16.765C23.42 14.527 21.536 11.957 20.071 9.16699C19.738 8.53399 19.544 7.54399 20.209 7.28199C20.713 7.08299 21.218 7.53999 21.567 7.95399C22.82 9.43299 24.072 10.913 25.325 12.393C24.02 9.86399 23.21 7.07999 22.954 4.24599C22.86 3.20199 22.982 1.90799 23.937 1.47799C24.658 1.15299 25.54 1.53799 26.032 2.15699C26.525 2.77599 26.719 3.57299 26.901 4.34299C27.781 8.06999 28.66 11.798 29.54 15.525" fill="#BE6854"/>
<path d="M33.7331 30.652C43.3221 35.331 53.2021 39.414 63.2981 42.868C66.6431 44.013 70.1541 45.102 73.6561 44.614C77.1571 44.126 80.6281 41.588 81.0151 38.074C81.3041 35.451 79.8871 32.975 78.5231 30.717C80.6091 34.111 84.2181 36.527 88.1511 37.162C92.0841 37.797 96.2701 36.639 99.3181 34.074" stroke="#BE6854" stroke-width="0.6559" stroke-miterlimit="10"/>
<path d="M85.269 79.954L87.556 64.915C87.556 64.915 105.562 61.343 104.924 75.771C104.285 90.199 89.13 89.491 85.269 79.954Z" fill="#F8BC8D"/>
<path d="M90.0971 81.253C90.1371 81.257 90.178 81.252 90.219 81.238C90.37 81.186 90.45 81.021 90.398 80.87C90.373 80.797 87.96 73.603 93.081 70.85C94.88 69.883 96.5861 69.647 98.1561 70.146C100.864 71.01 102.278 73.809 102.292 73.837C102.364 73.98 102.536 74.038 102.679 73.968C102.822 73.898 102.881 73.724 102.81 73.581C102.749 73.457 101.279 70.538 98.3361 69.596C96.6111 69.046 94.7511 69.295 92.8071 70.34C87.2511 73.326 89.8241 80.981 89.8511 81.058C89.8891 81.171 89.9881 81.243 90.0971 81.253Z" fill="#763633"/>
<path d="M97.72 76.299C97.808 76.307 97.8981 76.276 97.9621 76.205C98.0691 76.086 98.06 75.904 97.941 75.796C97.897 75.756 93.404 71.772 89.48 75.019C89.357 75.121 89.339 75.303 89.441 75.426C89.543 75.549 89.7251 75.566 89.8481 75.465C93.3891 72.535 97.512 76.189 97.553 76.225C97.602 76.269 97.66 76.293 97.72 76.299Z" fill="#763633"/>
<path d="M46.9681 78.207C46.1661 80.89 41.4441 81.847 36.4201 80.345C31.3961 78.843 27.9741 75.451 28.7761 72.769C29.5781 70.087 34.3001 69.129 39.3241 70.631C44.3471 72.132 47.7701 75.524 46.9681 78.207Z" fill="#ECA278"/>
<path d="M25.3271 74.254L22.4171 58.572C22.4171 58.572 8.90608 52.152 6.81308 66.442C4.72108 80.731 19.7381 82.893 25.3271 74.254Z" fill="#F8BC8D"/>
<path d="M33.93 53.596C33.93 53.596 31.309 50.779 37.664 48.174C44.019 45.569 46.079 46.471 46.909 48.154C47.666 49.69 46.074 51.733 42.475 53.124C38.156 54.794 35.345 55.206 33.93 53.596Z" fill="#BE6854"/>
<path d="M45.7961 64.943C45.6471 66.903 44.2211 68.394 42.6131 68.271C41.0041 68.148 39.8211 66.46 39.9711 64.499C40.1201 62.538 41.5461 61.048 43.1541 61.171C44.7631 61.293 45.9451 62.982 45.7961 64.943Z" fill="#000100"/>
<path d="M65.9231 80.009C66.2051 82.795 70.6621 84.625 75.8791 84.097C81.0961 83.569 85.0961 80.883 84.8141 78.097C84.5321 75.311 80.0741 73.481 74.8581 74.009C69.6421 74.538 65.6411 77.224 65.9231 80.009Z" fill="#ECA278"/>
<path d="M83.3661 58.297C83.3661 58.297 86.4711 56.025 80.7211 52.268C74.9711 48.512 72.7781 49.009 71.6451 50.506C70.6121 51.872 71.7911 54.179 75.0631 56.223C78.9901 58.677 81.6731 59.611 83.3661 58.297Z" fill="#BE6854"/>
<path d="M70.43 66.667C70.281 68.627 71.463 70.316 73.072 70.439C74.681 70.562 76.106 69.072 76.255 67.111C76.405 65.15 75.222 63.462 73.613 63.339C72.005 63.217 70.58 64.707 70.43 66.667Z" fill="#000100"/>
<path d="M20.3411 74.62C20.3011 74.616 20.2611 74.604 20.2241 74.583C20.0861 74.504 20.0381 74.326 20.1181 74.188C20.1561 74.121 23.8821 67.51 19.3711 63.842C17.7861 62.553 16.1551 62 14.5191 62.194C11.6961 62.532 9.78006 65.015 9.76106 65.04C9.66406 65.167 9.48306 65.192 9.35606 65.096C9.22806 65 9.20406 64.818 9.30006 64.691C9.38406 64.581 11.3771 61.991 14.4451 61.621C16.2431 61.406 18.0231 62.001 19.7351 63.394C24.6281 67.374 20.6591 74.406 20.6181 74.477C20.5601 74.578 20.4501 74.631 20.3411 74.62Z" fill="#763633"/>
<path d="M13.7881 68.318C13.7001 68.31 13.6181 68.262 13.5681 68.18C13.4851 68.043 13.5291 67.866 13.6651 67.783C13.7161 67.752 18.8791 64.687 22.1211 68.615C22.2231 68.738 22.2051 68.921 22.0821 69.022C21.9591 69.124 21.7771 69.106 21.6751 68.983C18.7501 65.438 14.0121 68.249 13.9651 68.278C13.9101 68.311 13.8481 68.323 13.7881 68.318Z" fill="#763633"/>
<path d="M63.801 64.047C63.174 63.305 62.23 63.141 61.146 63.582C61.113 63.595 61.062 63.619 60.994 63.65C58.768 64.676 57.336 64.591 56.736 63.401C56.28 62.497 56.76 57.787 57.354 53.364C57.187 53.387 57.022 53.389 56.86 53.362C56.279 57.668 55.773 62.565 56.304 63.619C56.813 64.626 58.074 65.525 61.195 64.088C61.255 64.061 61.3 64.04 61.328 64.029C62.217 63.666 62.943 63.78 63.432 64.358C64.246 65.321 64.261 67.37 63.463 68.658C62.447 70.297 60.439 71.005 60.419 71.012C60.293 71.056 60.226 71.193 60.27 71.319C60.302 71.412 60.384 71.472 60.475 71.481C60.508 71.484 60.543 71.48 60.576 71.469C60.665 71.439 62.766 70.701 63.874 68.912C64.784 67.443 64.75 65.17 63.801 64.047Z" fill="#763633"/>
<path d="M64.778 65.783C65.259 57.227 72.611 50.658 81.166 51.139C89.722 51.62 96.291 58.972 95.81 67.527C95.329 76.083 87.977 82.652 79.422 82.171C70.867 81.69 64.297 74.339 64.778 65.783ZM65.603 65.829C65.148 73.93 71.368 80.891 79.469 81.346C87.57 81.801 94.531 75.581 94.986 67.48C95.441 59.379 89.221 52.418 81.12 51.962C73.019 51.508 66.058 57.728 65.603 65.829Z" fill="#151723"/>
<path d="M22.359 63.399C22.84 54.843 30.191 48.274 38.747 48.754C47.303 49.235 53.872 56.587 53.391 65.142C52.91 73.698 45.558 80.267 37.003 79.786C28.447 79.306 21.878 71.954 22.359 63.399ZM23.183 63.445C22.728 71.546 28.948 78.507 37.049 78.962C45.15 79.417 52.111 73.197 52.567 65.096C53.022 56.995 46.802 50.034 38.701 49.579C30.599 49.124 23.638 55.344 23.183 63.445Z" fill="#151723"/>
<path d="M53.077 63.371C53.148 63.375 53.22 63.361 53.288 63.326C59.387 60.199 65.18 63.959 65.238 63.998C65.428 64.123 65.685 64.071 65.811 63.882C65.937 63.692 65.885 63.436 65.695 63.309C65.633 63.269 59.435 59.248 52.911 62.59C52.708 62.695 52.628 62.943 52.732 63.146C52.802 63.283 52.935 63.363 53.077 63.371Z" fill="#151723"/>
<path d="M57.0831 80.617C57.0831 80.617 54.9061 79.405 54.2101 78.31C54.2101 78.31 54.5951 76.756 54.6461 75.297C54.7001 74.925 54.7801 74.51 55.1121 74.292C55.4151 74.093 55.8471 74.133 56.1651 74.311C56.4831 74.489 56.7061 74.78 56.8911 75.078C57.9461 76.773 58.0081 78.96 57.0501 80.704C56.9851 80.701 57.0311 80.581 57.0831 80.617Z" fill="#E95236"/>
<path d="M53.1331 77.13C53.1331 77.13 56.6901 82.868 62.5291 80.888" stroke="#763633" stroke-width="0.6376" stroke-miterlimit="10" stroke-linecap="round" stroke-linejoin="round"/>
<path d="M81.266 125.37C80.61 124.703 80.051 123.94 79.613 123.114C79.422 122.753 79.256 122.3 79.474 121.954C79.743 121.526 80.379 121.578 80.863 121.724C82.841 122.322 84.595 123.633 85.728 125.361" fill="#F8BC8D"/>
<path d="M49.5281 155.625C49.3551 155.467 49.1821 155.31 49.0091 155.152C48.0861 154.711 47.2751 154.142 46.7621 153.222C46.6361 153.028 46.5341 152.824 46.4431 152.611L53.5 139.5L68.5801 136.976C71.7431 137.021 74.7021 136.537 76.5211 133.535C78.8201 129.74 76.4081 124.243 72.0961 123.276C71.0091 123.032 70.6211 123.544 70.5581 124.451C70.4561 125.931 70.2231 127.399 70.2091 128.889C70.2001 129.821 68.5801 136.976 68.5801 136.976C68.3371 136.985 46.4431 152.611 46.4431 152.611L38.0061 125.216C37.9831 124.215 38.0341 123.213 38.0171 122.211C37.9971 121.967 37.9981 121.723 38.0061 121.479C37.9991 121.24 38.0091 120.999 38.0181 120.76C38.0721 119.823 38.0661 118.868 38.6961 118.076C39.2931 117.545 39.1941 116.531 40.0161 116.146C42.9261 115.071 45.9531 114.969 49.0031 115.045C49.9671 114.991 50.9301 115.02 51.8941 115.038C53.8741 114.914 55.8531 115.142 57.8331 115.024C58.8561 114.994 59.8741 114.984 60.7071 115.727C63.1871 115.859 65.6661 116.026 68.1471 116.108C69.2691 116.145 69.9911 116.503 69.8571 117.727C69.7581 118.633 70.1591 118.787 70.9291 118.721C76.1341 118.277 82.2771 123.479 82.3761 129.226C82.3621 130.661 82.2891 132.098 80.9931 133.043C80.1921 133.627 80.4511 134.37 80.5261 135.105C80.6241 135.275 80.6911 135.457 80.7331 135.648C80.7191 135.942 80.6291 136.216 80.4951 136.476C78.7831 139.142 76.3731 140.857 73.2881 141.505C71.7001 141.838 70.0661 142.28 68.4291 141.861C67.3951 141.596 67.0611 141.991 66.8211 142.93C66.1791 145.439 64.9081 147.69 63.7271 149.971C62.9681 151.437 61.9131 152.688 60.7441 153.846C58.9841 155.692 56.8831 156.784 54.2941 156.957C53.5571 157.006 52.9291 156.885 52.2921 156.595C51.0321 157.234 50.3391 156.263 49.5281 155.625Z" fill="#7F0025"/>
<path d="M87.324 125.523C87.324 125.523 84.364 122.291 75 124.073C75 124.073 72.517 124.707 73.792 126.731C74.305 127.547 75.967 127.214 75.967 127.214C75.967 127.214 72.826 127.456 73.067 128.905C73.309 130.355 73.067 130.838 76.45 130.355C76.45 130.355 73.067 130.355 73.309 132.046C73.551 133.737 75.967 133.254 75.967 133.254C75.967 133.254 73.792 133.496 73.792 134.945C73.792 136.395 76.48 135.7 76.48 135.7C76.48 135.7 78.866 138.569 85.149 141.469C85.149 141.469 92.398 172.399 106.171 176.99C119.944 181.581 126.952 169.741 120.669 158.867C114.388 147.995 92.157 130.356 87.324 125.523Z" fill="#F8BC8D"/>
</svg>
