<svg width="166" height="345" viewBox="0 0 166 345" fill="none" xmlns="http://www.w3.org/2000/svg">
<path d="M95.057 344.973C133.96 344.973 165.498 340.133 165.498 334.162C165.498 328.191 133.96 323.351 95.057 323.351C56.1535 323.351 24.616 328.191 24.616 334.162C24.616 340.133 56.1535 344.973 95.057 344.973Z" fill="#EFE8DF"/>
<path d="M143.646 57.702C143.646 57.702 143.771 48.53 141.823 43.385C139.875 38.24 136.597 34.061 133.727 33.508C130.857 32.956 122.276 35.31 121.158 39.14C120.039 42.969 124.903 54.971 129.153 61.437L143.646 57.702Z" fill="#F8BC8D"/>
<path d="M82.4 329.453C87.711 335.107 88.558 338.871 88.558 338.871C88.558 338.871 87.858 339.695 78.363 337.179C78.878 334.157 80.326 331.409 82.4 329.453Z" fill="white"/>
<path d="M55.942 316.311C62.58 324.419 75.371 322.143 75.371 322.143C78.541 324.541 80.517 327.448 82.4 329.453C80.327 331.409 78.879 334.157 78.363 337.179C75.916 336.531 72.895 335.664 69.14 334.5C50.814 328.82 51.967 323.701 51.967 323.701C53.669 318.94 55.908 316.59 55.942 316.311Z" fill="#E95336"/>
<path d="M51.966 323.701C51.672 324.643 51.405 325.651 51.184 326.733C51.184 326.733 55.601 330.582 69.581 336.065C85.203 342.193 88.02 340.901 88.02 340.901C88.02 340.901 88.431 340.154 88.557 338.87C70.685 335.681 58.277 328.294 51.966 323.701Z" fill="white"/>
<path d="M74.573 331.296C74.58 331.299 74.586 331.301 74.593 331.303C74.715 331.338 74.845 331.263 74.882 331.137C76.01 327.317 79.191 326.68 79.326 326.655C79.452 326.631 79.539 326.507 79.52 326.377C79.5 326.248 79.384 326.163 79.257 326.184C79.221 326.191 75.655 326.892 74.44 331.008C74.405 331.13 74.464 331.253 74.573 331.296Z" fill="#E55239"/>
<path d="M71.917 329.001C72.036 329.047 72.171 328.984 72.219 328.861C73.749 324.926 76.57 324.342 76.598 324.336C76.724 324.312 76.81 324.188 76.791 324.058C76.772 323.928 76.655 323.842 76.528 323.867C76.402 323.89 73.425 324.492 71.791 328.695C71.742 328.817 71.799 328.955 71.917 329.001Z" fill="#E55239"/>
<path d="M74.803 325.111C74.718 325.077 74.662 324.992 74.661 324.897C74.657 324.481 74.66 320.806 75.851 319.969C76.057 319.824 76.396 319.706 76.861 319.893C77.229 320.053 77.457 320.333 77.521 320.704C77.776 322.179 75.334 324.764 75.055 325.054C74.989 325.122 74.891 325.145 74.805 325.112L74.803 325.111ZM76.103 320.361C75.399 320.856 75.179 322.996 75.133 324.283C75.957 323.342 77.217 321.68 77.065 320.802C77.028 320.584 76.902 320.435 76.67 320.335C76.659 320.33 76.647 320.325 76.636 320.321C76.363 320.213 76.202 320.292 76.103 320.361Z" fill="#E55239"/>
<path d="M74.77 325.157C74.407 324.985 71.221 323.434 71.059 321.982C71.03 321.731 71.08 321.359 71.472 321.018C71.785 320.745 72.136 320.653 72.487 320.75C73.897 321.155 74.973 324.481 75.092 324.861C75.12 324.951 75.093 325.051 75.023 325.116C74.957 325.177 74.864 325.195 74.784 325.164C74.779 325.161 74.775 325.159 74.77 325.157ZM72.356 321.211C72.149 321.154 71.961 321.208 71.764 321.379C71.515 321.595 71.505 321.788 71.519 321.914C71.615 322.771 73.367 323.878 74.461 324.463C74.048 323.34 73.241 321.554 72.432 321.237C72.406 321.227 72.381 321.218 72.356 321.211Z" fill="#E55239"/>
<path d="M133.032 325.276C140.164 328.328 142.448 331.437 142.448 331.437C142.448 331.437 142.137 332.473 132.43 333.972C131.69 330.996 131.916 327.899 133.032 325.276Z" fill="white"/>
<path d="M103.525 323.837C112.856 328.606 123.663 321.395 123.663 321.395C127.528 322.321 130.503 324.193 133.033 325.276C131.917 327.899 131.692 330.997 132.43 333.973C129.928 334.36 126.813 334.776 122.906 335.215C103.84 337.355 102.844 332.203 102.844 332.203C102.496 327.157 103.605 324.106 103.525 323.837Z" fill="#E95336"/>
<path d="M102.844 332.202C102.952 333.183 103.111 334.214 103.343 335.293C103.343 335.293 108.932 337.049 123.938 336.471C140.706 335.825 142.769 333.513 142.769 333.513C142.769 333.513 142.846 332.663 142.447 331.437C124.795 335.676 110.466 333.881 102.844 332.202Z" fill="white"/>
<path d="M126.6 330.1C126.607 330.1 126.614 330.1 126.621 330.098C126.747 330.081 126.836 329.961 126.819 329.83C126.322 325.879 128.981 324.02 129.094 323.943C129.2 323.871 129.23 323.722 129.161 323.611C129.091 323.501 128.951 323.47 128.843 323.54C128.813 323.561 125.827 325.632 126.363 329.891C126.379 330.015 126.483 330.105 126.6 330.1Z" fill="#E55239"/>
<path d="M123.246 329.062C123.373 329.056 123.472 328.945 123.467 328.812C123.293 324.594 125.642 322.928 125.666 322.912C125.772 322.84 125.801 322.691 125.731 322.58C125.662 322.469 125.52 322.437 125.413 322.51C125.307 322.581 122.821 324.326 123.007 328.831C123.013 328.964 123.12 329.067 123.246 329.062Z" fill="#E55239"/>
<path d="M124.332 324.342C124.24 324.345 124.155 324.29 124.116 324.203C123.946 323.824 122.476 320.456 123.231 319.211C123.362 318.996 123.625 318.752 124.126 318.737C124.527 318.736 124.849 318.902 125.056 319.215C125.88 320.464 124.679 323.811 124.539 324.189C124.506 324.278 124.425 324.338 124.333 324.342H124.332ZM123.619 319.469C123.173 320.204 123.828 322.254 124.302 323.451C124.68 322.259 125.169 320.231 124.677 319.487C124.555 319.302 124.381 319.216 124.128 319.217C124.116 319.217 124.103 319.217 124.091 319.218C123.799 319.229 123.682 319.366 123.619 319.469Z" fill="#E55239"/>
<path d="M124.32 324.397C123.919 324.385 120.378 324.24 119.648 322.975C119.521 322.756 119.417 322.396 119.64 321.927C119.817 321.552 120.102 321.327 120.463 321.275C121.917 321.081 124.236 323.697 124.497 323.998C124.559 324.069 124.574 324.172 124.536 324.259C124.5 324.342 124.422 324.395 124.336 324.399C124.33 324.397 124.325 324.397 124.32 324.397ZM120.527 321.749C120.315 321.78 120.164 321.904 120.052 322.14C119.911 322.438 119.978 322.618 120.041 322.728C120.472 323.475 122.521 323.787 123.758 323.884C122.929 323.021 121.474 321.708 120.607 321.742C120.579 321.743 120.552 321.745 120.527 321.749Z" fill="#E55239"/>
<path d="M76.899 177.704C95.372 171.033 103.405 150.996 109.942 132.249C109.097 133.009 108.303 133.912 107.58 135.013C93.948 154.624 74.603 177.721 52.679 161.81C43.643 156.151 38.667 148.132 33.618 139.859C32.932 149.286 33.72 159.168 33.88 162.894C33.947 164.459 34.312 167.362 34.939 170.938C47.298 179.113 62.131 183.037 76.899 177.704Z" fill="#253269"/>
<path d="M59.995 265.162L52.144 315.481C52.144 315.481 61.396 325.08 82.19 326.862C82.19 326.862 97.008 279.405 97.7 266.339C98.763 246.275 94.013 224.32 94.013 224.32C94.013 224.32 102.992 262.918 103.034 268.717C103.076 274.516 101.353 303.526 101.511 325.273C101.511 325.273 106.848 328.134 130.98 323.61C130.98 323.61 138.001 292.145 136.348 264.127C135.047 242.08 124.839 208.732 120.546 195.516C99.864 209.701 76.599 219.617 51.711 222.277C54.032 236.005 57.373 254.715 59.995 265.162Z" fill="#5FAFE2"/>
<path d="M48.929 205.314C48.929 205.314 50.064 212.546 51.71 222.275C76.599 219.615 99.863 209.699 120.545 195.514C119.382 191.934 118.652 189.827 118.652 189.827L48.929 205.314Z" fill="#4AA2D3"/>
<path d="M54.239 204.551C54.239 204.551 65.996 259.802 66.266 263.667C66.536 267.531 56.504 317.141 56.504 317.141" stroke="#2F2035" stroke-width="0.5739" stroke-miterlimit="10" stroke-linecap="round" stroke-linejoin="round"/>
<path d="M87.05 230.652L105.364 223.512" stroke="#2F2035" stroke-width="0.5739" stroke-miterlimit="10" stroke-linecap="round" stroke-linejoin="round"/>
<path d="M95.003 227.695L101.55 230.789" stroke="#2F2035" stroke-width="0.5739" stroke-miterlimit="10" stroke-linecap="round" stroke-linejoin="round"/>
<path d="M98.418 232.02C98.418 232.02 105.88 261.447 106.651 267.724C107.421 274.001 104.643 324.042 104.643 324.042" stroke="#2F2035" stroke-width="0.5739" stroke-miterlimit="10" stroke-linecap="round" stroke-linejoin="round"/>
<path d="M88.744 197.535L94.462 219.725" stroke="#2F2035" stroke-width="0.5739" stroke-miterlimit="10" stroke-linecap="round" stroke-linejoin="round"/>
<path d="M93.965 217.795C93.965 217.795 98.048 214.382 96.309 207.871C94.57 201.359 92.338 193.401 92.338 193.401" stroke="#2F2035" stroke-width="0.5739" stroke-miterlimit="10" stroke-linecap="round" stroke-linejoin="round"/>
<path d="M59.228 226.021C59.228 226.021 70.04 217.485 66.046 199.874" stroke="#2F2035" stroke-width="0.5739" stroke-miterlimit="10" stroke-linecap="round" stroke-linejoin="round"/>
<path d="M110.436 189.887C110.436 189.887 112.935 201.226 125.086 210.804" stroke="#2F2035" stroke-width="0.5739" stroke-miterlimit="10" stroke-linecap="round" stroke-linejoin="round"/>
<path d="M117.706 159.387C113.626 137.936 112.308 132.005 112.011 130.733C111.288 131.142 110.601 131.655 109.942 132.248C103.405 150.996 95.371 171.033 76.899 177.703C62.131 183.036 47.299 179.112 34.94 170.937C37.023 182.817 42.034 202.205 48.928 205.313C48.928 205.313 85.392 201.908 96.002 198.931C106.613 195.954 116.245 191.293 118.65 189.826C118.65 189.826 122.479 184.483 117.706 159.387Z" fill="#334B9A"/>
<path d="M125.001 75.904C124.987 80.578 124.873 84.747 124.533 85.879C123.658 88.796 101.789 99.256 95.09 101.767L95.091 101.769C90.957 102.794 63.939 109.152 63.939 109.152C63.939 109.152 45.602 113.03 39.379 121.291C36.331 125.338 34.178 132.174 33.619 139.858C38.668 148.131 43.644 156.151 52.68 161.809C74.604 177.72 93.949 154.623 107.581 135.012C108.304 133.911 109.098 133.008 109.943 132.248C110.602 131.655 111.289 131.141 112.012 130.733C111.961 130.517 111.94 130.431 111.94 130.431L110.748 128.181C115.793 125.99 133.817 117.77 143.506 108.133C151.499 100.182 150.502 80.509 147.947 67.243C140.773 71.826 133.103 75.255 125.001 75.904Z" fill="#334B9A"/>
<path d="M61.406 112.207C61.406 112.207 61.245 112.243 60.966 112.315C59.798 112.618 56.553 113.559 54.303 115.178C51.514 117.184 63.939 123.284 77.345 119.683C90.751 116.082 92.328 108.011 92.428 105.791C92.529 103.572 61.406 112.207 61.406 112.207Z" fill="#E55239"/>
<path d="M146.77 61.99C145.987 58.95 145.168 56.577 144.465 55.28C144.465 55.28 131.51 59.852 124.793 59.901C124.793 59.901 124.85 62.033 124.904 65.08C132.314 65.019 139.663 64.046 146.77 61.99Z" fill="#E55239"/>
<path d="M124.904 65.08C124.959 68.167 125.012 72.194 125.001 75.904C133.104 75.255 140.774 71.827 147.946 67.244C147.579 65.339 147.179 63.578 146.77 61.99C139.663 64.046 132.314 65.019 124.904 65.08Z" fill="#253269"/>
<path d="M56.733 107.406L58.426 115.354C58.426 115.354 66.181 118.439 77.037 115.944C87.893 113.449 88.584 108.853 88.584 108.853L87.475 100.078C78.956 105.757 67.835 107.964 56.733 107.406Z" fill="#F8BC8D"/>
<path d="M54.674 97.741L56.733 107.406C67.835 107.964 78.956 105.757 87.475 100.078L86.021 88.574L54.674 97.741Z" fill="#ECA278"/>
<path d="M81.648 32.154C81.648 32.154 90.47 42.984 96.44 61.079C101.098 75.197 94.385 92.735 77.517 99.541C61.663 105.938 42.679 104.969 30.133 83.911C17.587 62.853 18.771 42.399 37.724 30.547C56.677 18.695 72.789 19.445 81.648 32.154Z" fill="#F8BC8D"/>
<path d="M27.57 79.542C27.57 79.542 34.065 72.599 29.801 60.92C29.801 60.92 36.126 55.413 35.624 47.136C35.624 47.136 68.584 44.097 74.239 30.598C74.239 30.598 91.345 29.179 89.298 20.087C87.25 10.995 79.139 9.299 70.359 11.214C70.359 11.214 72.025 3.85401 62.48 3.14201C52.935 2.43001 49.138 14.025 36.962 17.394C24.786 20.762 10.368 29.891 10.779 38.577C10.779 38.577 11.999 30.301 7.16201 30.157C2.32501 30.013 10.165 41.42 10.165 41.42C10.165 41.42 5.803 35.169 1.657 37.315C-2.49 39.46 8.06901 42.318 8.06901 42.318C8.06901 42.318 -1.191 64.135 7.885 64.924C7.885 64.924 8.337 90.052 19.698 94.625C19.698 94.625 28.159 104.535 37.352 100.673C42.557 102.806 47.304 100.181 42.425 95.128C42.425 95.128 40.041 89.135 35.597 87.734C35.597 87.734 34.823 83.239 27.57 79.542Z" fill="#FFB525"/>
<path d="M11.414 41.587L11.916 41.396C9.587 35.294 12.594 27.755 18.483 24.932C21.57 23.453 25.181 23.212 28.672 22.981C32.971 22.696 37.416 22.402 40.851 19.76C43.597 17.649 45.132 14.437 46.616 11.331C48.041 8.34902 49.514 5.26602 52.05 3.21902C56.417 -0.302984 63.624 0.449017 67.168 4.80102C70.712 9.15402 69.989 16.363 65.652 19.926L65.993 20.341C70.546 16.6 71.305 9.03101 67.585 4.46201C63.864 -0.107988 56.301 -0.899983 51.713 2.80102C49.081 4.92402 47.581 8.06301 46.131 11.099C44.675 14.148 43.168 17.301 40.524 19.334C37.218 21.877 33.05 22.153 28.637 22.445C25.096 22.68 21.434 22.923 18.251 24.448C12.12 27.387 8.989 35.235 11.414 41.587Z" fill="#FFB525"/>
<path d="M24.788 96.546C26.867 96.037 28.653 94.636 29.382 92.801L28.883 92.603C28.009 94.801 25.458 96.319 22.814 96.211C20.487 96.116 18.072 94.875 16.189 92.805C14.355 90.788 13.2 88.295 12.312 86.122C9.897 80.207 7.81001 71.687 11.58 64.684L11.968 63.964L11.229 64.314C9.34601 65.205 7.191 66.081 5.405 65.178C4.055 64.496 3.195 62.899 2.849 60.432C1.968 54.152 3.79101 47.433 7.72501 42.459L7.304 42.125C3.28 47.212 1.416 54.083 2.317 60.506C2.689 63.158 3.64601 64.891 5.16201 65.657C6.86101 66.516 8.829 65.97 10.754 65.122C7.373 72.168 9.434 80.496 11.814 86.325C12.72 88.542 13.9 91.088 15.79 93.167C17.769 95.342 20.321 96.648 22.791 96.749C23.47 96.776 24.143 96.704 24.788 96.546Z" fill="#FFB525"/>
<path d="M54.256 31.996C54.113 31.925 54.025 31.89 54.025 31.89C54.025 31.89 54.109 31.93 54.256 31.996Z" fill="#32293F"/>
<path d="M40.568 90.792L32.408 78.786C32.408 78.786 18.8 78.376 22.281 91.051C25.762 103.726 39.068 100.036 40.568 90.792Z" fill="#F8BC8D"/>
<path d="M41.834 64.838C41.834 64.838 38.031 62.593 42.568 56.722C47.105 50.851 49.443 51.042 51.04 52.702C52.497 54.216 52.05 57.355 49.439 60.579C46.306 64.448 43.932 66.157 41.834 64.838Z" fill="#FFB525"/>
<path d="M87.118 45.277C87.118 45.277 88.015 40.953 80.619 40.36C73.223 39.767 71.791 41.625 71.945 43.923C72.085 46.02 74.708 47.801 78.85 48.039C83.821 48.324 86.683 47.716 87.118 45.277Z" fill="#FFB525"/>
<path d="M58.263 71.128C58.823 72.828 58.148 74.578 56.753 75.038C55.359 75.498 53.774 74.493 53.213 72.794C52.652 71.095 53.328 69.344 54.723 68.884C56.118 68.424 57.703 69.428 58.263 71.128Z" fill="black"/>
<path d="M86.135 58.521C86.696 60.22 86.02 61.971 84.625 62.431C83.231 62.891 81.646 61.886 81.085 60.187C80.524 58.488 81.2 56.737 82.595 56.277C83.989 55.817 85.574 56.822 86.135 58.521Z" fill="black"/>
<path d="M36.546 92.921C36.511 92.932 36.474 92.937 36.435 92.932C36.291 92.916 36.186 92.786 36.202 92.642C36.209 92.572 36.897 85.7 31.796 84.292C30.004 83.797 28.442 83.933 27.15 84.693C24.921 86.007 24.232 88.777 24.225 88.804C24.19 88.945 24.049 89.032 23.908 88.998C23.767 88.965 23.679 88.822 23.713 88.681C23.742 88.559 24.456 85.671 26.878 84.241C28.298 83.404 29.999 83.249 31.935 83.784C37.468 85.312 36.732 92.624 36.724 92.698C36.713 92.805 36.64 92.89 36.546 92.921Z" fill="#44332C"/>
<path d="M28.779 90.064C28.703 90.089 28.616 90.079 28.545 90.03C28.426 89.947 28.397 89.782 28.481 89.663C28.512 89.618 31.695 85.176 35.833 87.264C35.963 87.329 36.015 87.488 35.95 87.617C35.885 87.747 35.727 87.799 35.597 87.734C31.863 85.849 28.942 89.925 28.913 89.966C28.878 90.014 28.832 90.047 28.779 90.064Z" fill="#44332C"/>
<path d="M74.741 61.016C73.79 60.551 72.777 60.8 71.888 61.714C71.861 61.741 71.82 61.788 71.766 61.849C69.994 63.847 68.528 64.389 67.408 63.465C66.453 62.676 64.575 56.586 63.15 51.478C63.1 51.759 62.983 52.018 62.808 52.232C64.155 57.031 65.996 62.98 67.074 63.87C68.022 64.652 69.674 64.997 72.16 62.197C72.207 62.144 72.243 62.103 72.266 62.08C72.994 61.329 73.769 61.125 74.51 61.488C75.744 62.093 76.656 64.131 76.424 65.765C76.128 67.845 74.434 69.431 74.417 69.447C74.31 69.546 74.304 69.712 74.402 69.819C74.474 69.897 74.583 69.922 74.678 69.89C74.713 69.879 74.745 69.86 74.774 69.834C74.85 69.765 76.623 68.109 76.945 65.839C77.209 63.975 76.18 61.721 74.741 61.016Z" fill="#44332C"/>
<path d="M65.62 83.195C66.244 85.688 62.966 88.656 58.298 89.825C53.63 90.994 49.34 89.921 48.715 87.429C48.091 84.936 51.369 81.968 56.037 80.799C60.705 79.629 64.995 80.702 65.62 83.195Z" fill="#ECA278"/>
<path d="M83.5 74.198C84.801 75.958 88.528 75.409 91.823 72.972C95.118 70.535 96.735 67.133 95.434 65.373C94.133 63.613 90.406 64.162 87.111 66.599C83.815 69.036 82.198 72.438 83.5 74.198Z" fill="#ECA278"/>
<path d="M65.445 80.446C65.549 80.861 65.705 81.2631 65.921 81.6281C67.511 84.3091 70.89 86.0801 76.267 84.8071C78.43 84.2951 79.872 83.296 80.819 82.207C76.287 79.842 70.812 79.313 65.445 80.446Z" fill="#E95236"/>
<path d="M82.389 78.03C82.156 76.797 80.347 75.015 77.218 76.721C77.218 76.721 74.76 78.085 70.258 76.21C66.369 74.59 64.781 77.81 65.445 80.445C70.812 79.313 76.287 79.842 80.819 82.206C82.226 80.587 82.529 78.766 82.389 78.03Z" fill="black"/>
<path d="M95.092 78.926C95.092 78.926 93.893 75.744 97.41 74.375C100.927 73.006 104.259 69.287 110.807 69.072C117.355 68.857 128.094 67.435 132.281 65.893C136.469 64.351 139.299 60.972 139.299 60.972L131.348 52.968L114.271 60.313C114.271 60.313 101.336 59.903 100.664 59.908C99.992 59.913 94.678 68.181 94.678 68.181C94.678 68.181 91.521 72.738 95.092 78.926Z" fill="#F3A07F"/>
<path d="M118.781 33.745C118.781 33.745 127.7 36.199 133.282 41.701C138.864 47.203 143.156 60.103 142.342 63.636C141.528 67.169 136.15 66.704 134.111 63.36C132.071 60.016 131.053 58.512 129.854 55.329C128.655 52.147 127.621 48.459 124.749 46.129C121.877 43.799 119.514 42.136 118.498 40.968C117.481 39.801 112.573 34.63 118.781 33.745Z" fill="#F3A07F"/>
<path d="M118.533 38.114C118.533 38.114 104.659 47.116 100.823 50.838C96.987 54.561 96.681 58.593 95.023 61.628C93.365 64.663 88.015 67.893 89.398 73.425C90.782 78.957 93.184 85.993 96.87 84.791C100.556 83.589 96.503 80.427 96.141 76.903C95.779 73.379 95.582 69.35 97.601 69.839C99.62 70.328 98.985 75.371 101.853 77.198C104.721 79.025 105.881 76.833 104.849 73.481C103.817 70.129 101.778 66.785 105.806 66.42C109.834 66.055 108.846 68.749 116.388 66.679C123.931 64.609 123.603 65.787 128.297 64.577C132.991 63.367 137.007 61.323 137.335 60.313C137.663 59.303 137.305 56.115 133.244 51.945C129.183 47.776 128.834 45.931 127.136 43.424C125.439 40.919 118.533 38.114 118.533 38.114Z" fill="#FFB525"/>
<path d="M131.536 56.307C131.337 58.85 128.627 60.712 125.483 60.466C122.339 60.22 119.952 57.959 120.15 55.417C120.349 52.874 123.059 51.012 126.203 51.258C129.347 51.504 131.735 53.764 131.536 56.307Z" fill="#D83D2A"/>
<path d="M130.17 55.626C129.996 57.854 127.622 59.485 124.867 59.27C122.113 59.055 120.021 57.074 120.195 54.846C120.369 52.618 122.743 50.987 125.498 51.202C128.252 51.418 130.344 53.399 130.17 55.626Z" fill="#E55239"/>
<path d="M126.599 57.074C126.799 57.339 127.115 57.608 127.426 57.491C127.635 57.412 127.75 57.173 127.742 56.95C127.735 56.727 127.628 56.519 127.505 56.333C127.24 55.932 126.887 55.59 126.477 55.339C126.35 55.261 126.212 55.19 126.063 55.185C125.151 55.158 126.423 56.841 126.599 57.074Z" fill="#D83D2A"/>
<path d="M122.25 55.71C121.952 55.856 121.627 56.114 121.683 56.442C121.72 56.662 121.933 56.821 122.153 56.856C122.373 56.891 122.597 56.827 122.804 56.742C123.248 56.559 123.651 56.277 123.976 55.924C124.077 55.814 124.173 55.692 124.206 55.547C124.408 54.655 122.512 55.581 122.25 55.71Z" fill="#D83D2A"/>
<path d="M124.498 52.455C124.381 52.228 124.177 51.983 123.927 52.031C123.759 52.063 123.64 52.229 123.617 52.399C123.594 52.569 123.647 52.74 123.716 52.897C123.864 53.235 124.087 53.54 124.364 53.784C124.45 53.86 124.545 53.931 124.658 53.954C125.343 54.095 124.601 52.654 124.498 52.455Z" fill="#D83D2A"/>
<path d="M127.434 53.612C127.671 53.519 127.937 53.342 127.915 53.088C127.901 52.917 127.748 52.782 127.581 52.741C127.415 52.7 127.239 52.735 127.076 52.787C126.724 52.899 126.398 53.088 126.126 53.339C126.042 53.417 125.961 53.504 125.926 53.613C125.715 54.281 127.225 53.694 127.434 53.612Z" fill="#D83D2A"/>
<path d="M117.436 47.083C118.45 49.051 117.298 51.663 114.865 52.916C112.431 54.169 109.637 53.589 108.624 51.621C107.611 49.653 108.762 47.041 111.195 45.788C113.628 44.535 116.423 45.115 117.436 47.083Z" fill="#D83D2A"/>
<path d="M116.117 47.204C117.005 48.928 115.996 51.216 113.864 52.314C111.732 53.412 109.284 52.904 108.396 51.179C107.508 49.455 108.517 47.167 110.649 46.069C112.781 44.972 115.229 45.48 116.117 47.204Z" fill="#E55239"/>
<path d="M114.141 49.902C114.41 50.006 114.766 50.061 114.942 49.833C115.06 49.68 115.036 49.45 114.929 49.289C114.822 49.128 114.648 49.023 114.473 48.942C114.095 48.767 113.678 48.676 113.261 48.677C113.132 48.678 112.997 48.688 112.885 48.753C112.198 49.148 113.905 49.811 114.141 49.902Z" fill="#D83D2A"/>
<path d="M110.307 50.88C110.153 51.124 110.032 51.463 110.222 51.679C110.35 51.824 110.58 51.844 110.758 51.77C110.937 51.696 111.073 51.546 111.186 51.389C111.431 51.051 111.6 50.659 111.678 50.25C111.702 50.123 111.718 49.989 111.675 49.866C111.419 49.116 110.442 50.665 110.307 50.88Z" fill="#D83D2A"/>
<path d="M110.482 47.451C110.292 47.337 110.03 47.249 109.867 47.399C109.758 47.5 109.746 47.676 109.806 47.812C109.866 47.948 109.984 48.05 110.106 48.135C110.369 48.317 110.673 48.441 110.989 48.494C111.087 48.511 111.19 48.52 111.284 48.486C111.854 48.276 110.649 47.551 110.482 47.451Z" fill="#D83D2A"/>
<path d="M113.178 46.965C113.311 46.788 113.426 46.536 113.294 46.359C113.205 46.24 113.031 46.209 112.889 46.255C112.747 46.301 112.634 46.407 112.537 46.52C112.328 46.763 112.174 47.052 112.087 47.361C112.06 47.457 112.04 47.558 112.064 47.655C112.214 48.244 113.061 47.121 113.178 46.965Z" fill="#D83D2A"/>
<path d="M98.544 60.866C98.78 63.406 101.516 65.229 104.656 64.937C107.796 64.646 110.15 62.351 109.915 59.811C109.679 57.271 106.943 55.449 103.803 55.74C100.663 56.031 98.309 58.327 98.544 60.866Z" fill="#D83D2A"/>
<path d="M99.9 60.166C100.106 62.391 102.504 63.988 105.255 63.733C108.006 63.478 110.069 61.467 109.862 59.242C109.656 57.017 107.258 55.42 104.507 55.675C101.757 55.93 99.694 57.941 99.9 60.166Z" fill="#E55239"/>
<path d="M103.491 61.5611C103.295 61.8291 102.983 62.1021 102.671 61.9901C102.461 61.9141 102.343 61.677 102.347 61.454C102.351 61.231 102.455 61.022 102.575 60.834C102.834 60.429 103.182 60.082 103.588 59.825C103.714 59.745 103.851 59.672 104 59.666C104.911 59.624 103.664 61.3261 103.491 61.5611Z" fill="#D83D2A"/>
<path d="M107.821 60.135C108.121 60.277 108.45 60.53 108.399 60.858C108.365 61.078 108.154 61.2401 107.935 61.2791C107.715 61.3181 107.49 61.256 107.283 61.174C106.836 60.998 106.429 60.722 106.099 60.373C105.997 60.265 105.899 60.144 105.864 59.999C105.648 59.111 107.557 60.01 107.821 60.135Z" fill="#D83D2A"/>
<path d="M105.526 56.913C105.64 56.685 105.84 56.437 106.091 56.481C106.26 56.511 106.381 56.675 106.407 56.845C106.433 57.014 106.382 57.186 106.316 57.344C106.173 57.684 105.955 57.992 105.681 58.24C105.596 58.317 105.502 58.39 105.39 58.415C104.704 58.565 105.426 57.113 105.526 56.913Z" fill="#D83D2A"/>
<path d="M102.607 58.112C102.368 58.023 102.101 57.849 102.118 57.595C102.13 57.424 102.281 57.287 102.447 57.243C102.613 57.199 102.789 57.232 102.953 57.282C103.306 57.389 103.636 57.574 103.911 57.82C103.996 57.896 104.079 57.983 104.115 58.091C104.335 58.757 102.817 58.191 102.607 58.112Z" fill="#D83D2A"/>
<path d="M131.528 33.429C131.528 33.429 121.513 35.603 120.482 38.429C119.451 41.255 130.892 38.019 130.892 38.019C130.892 38.019 122.7 41.327 123.19 42.947C123.679 44.567 133.119 42.111 133.119 42.111C133.119 42.111 126.091 44.87 125.603 46.369C125.115 47.868 130.579 47.575 134.483 45.732C134.483 45.732 126.866 49.226 128.12 50.937C129.374 52.647 137.851 49.147 137.851 49.147C137.851 49.147 137.399 52.685 141.725 56.379C141.725 56.379 143.107 49.395 140.01 43.877C136.914 38.358 134.301 33.696 131.528 33.429Z" fill="#F8BC8D"/>
<path d="M86.122 135.935C86.122 135.935 104.763 140.693 107.935 144.959C107.935 144.959 100.227 148.398 93.125 143.737C86.024 139.077 86.122 135.935 86.122 135.935Z" fill="#D83D2A"/>
<path d="M103.268 146.735C107.239 142.028 115.067 131.572 113.574 130.082C112.081 128.591 106.019 135.359 106.019 135.359C106.019 135.359 112.726 126.651 111.184 125.309C109.641 123.967 103.05 133.322 103.05 133.322C103.05 133.322 108.945 123.57 107.57 122.222C105.15 120.029 99.468 132.131 99.468 132.131C99.468 132.131 102.876 121.884 100.736 120.841C98.597 119.798 94.467 133.174 94.467 133.174C94.467 133.174 94.425 126.863 91.939 128.357C89.454 129.851 89.992 140.692 89.992 140.692C89.992 140.692 91.822 146.626 103.268 146.735Z" fill="#F8BC8D"/>
<path d="M84.592 139.739C82.455 144.52 78.24 152.17 72.954 152.704C65.227 153.485 60.055 139.99 59.808 139.267C59.561 138.544 55.813 130.296 53.429 126.023C49.267 118.562 40.348 121.527 38.183 122.992C36.019 124.458 28.913 144.324 39.41 158.988C49.907 173.652 63.323 181.921 78.71 180.21C93.154 178.603 102.791 158.223 106.374 149.206C98.333 147.775 90.793 145.135 84.592 139.739Z" fill="#334B9A"/>
<path d="M107.936 144.959C94.876 143.362 86.123 135.934 86.123 135.934C86.123 135.934 85.579 137.531 84.592 139.738C90.794 145.134 98.333 147.775 106.375 149.205C107.403 146.617 107.936 144.959 107.936 144.959Z" fill="#E55239"/>
<path d="M105.529 151.27C101.41 161.002 92.135 178.716 78.711 180.21C63.324 181.921 49.908 173.653 39.411 158.988" stroke="#2F2035" stroke-width="0.5739" stroke-miterlimit="10" stroke-linecap="round" stroke-linejoin="round"/>
<path d="M53.429 126.023C55.813 130.296 59.561 138.544 59.808 139.267C60.055 139.99 65.227 153.485 72.954 152.704C77.463 152.248 81.194 146.614 83.519 142.001" stroke="#2F2035" stroke-width="0.5739" stroke-miterlimit="10" stroke-linecap="round" stroke-linejoin="round"/>
<path d="M94.998 184.278C99.445 178.519 103.004 172.077 105.511 165.246" stroke="#2F2035" stroke-width="0.5739" stroke-miterlimit="10" stroke-linecap="round" stroke-linejoin="round"/>
<path d="M106.095 183.33C110.371 176.665 112.905 168.894 113.379 160.99" stroke="#2F2035" stroke-width="0.5739" stroke-miterlimit="10" stroke-linecap="round" stroke-linejoin="round"/>
<path d="M105.047 112.831C113.657 114.28 122.466 114.542 131.147 113.609" stroke="#2F2035" stroke-width="0.5739" stroke-miterlimit="10" stroke-linecap="round" stroke-linejoin="round"/>
<path d="M114.929 109.64C120.889 109.466 126.849 109.292 132.809 109.118" stroke="#2F2035" stroke-width="0.5739" stroke-miterlimit="10" stroke-linecap="round" stroke-linejoin="round"/>
</svg>
