<svg width="166" height="348" viewBox="0 0 166 348" fill="none" xmlns="http://www.w3.org/2000/svg">
<path d="M94.732 347.973C133.635 347.973 165.173 343.133 165.173 337.162C165.173 331.191 133.635 326.351 94.732 326.351C55.8285 326.351 24.291 331.191 24.291 337.162C24.291 343.133 55.8285 347.973 94.732 347.973Z" fill="#EFE8DF"/>
<path d="M108.136 287.476C105.021 295.783 100.678 327.825 100.678 327.825C95.712 343.661 113.834 338.435 113.834 338.435C113.834 338.435 139.7 340.533 139.6 335.745C139.5 330.958 121.135 324.091 121.135 324.091C121.561 320.165 133.937 297.937 136.527 280.351C136.625 279.974 136.693 279.585 136.693 279.168C136.693 274.266 134.77 263.212 132.835 253.329C123.117 257.612 112.819 260.669 102.209 262.833L108.136 287.476Z" fill="#88564A"/>
<path d="M98.271 246.458L102.209 262.833C112.818 260.67 123.117 257.612 132.835 253.329C130.876 243.322 128.905 234.516 128.905 234.516L98.271 246.458Z" fill="#77463C"/>
<path d="M131.754 328.334C139.357 331.747 141.752 335.131 141.752 335.131C141.752 335.131 141.398 336.238 130.942 337.665C130.205 334.453 130.506 331.131 131.754 328.334Z" fill="white"/>
<path d="M100.084 326.23C110.017 331.529 121.762 323.988 121.762 323.988C125.897 325.056 129.057 327.123 131.753 328.334C130.505 331.131 130.204 334.454 130.941 337.664C128.246 338.032 124.892 338.421 120.687 338.818C100.165 340.756 99.194 335.202 99.194 335.202C98.917 329.776 100.166 326.52 100.084 326.23Z" fill="#4CA5A2"/>
<path d="M99.195 335.202C99.292 336.258 99.444 337.368 99.672 338.532C99.672 338.532 105.643 340.524 121.773 340.187C139.797 339.811 142.058 337.366 142.058 337.366C142.058 337.366 142.157 336.455 141.752 335.13C122.709 339.349 107.351 337.15 99.195 335.202Z" fill="white"/>
<path d="M124.753 333.395C124.761 333.395 124.768 333.395 124.775 333.394C124.911 333.378 125.008 333.251 124.993 333.109C124.533 328.855 127.425 326.908 127.549 326.829C127.664 326.753 127.699 326.594 127.627 326.473C127.554 326.353 127.404 326.317 127.287 326.391C127.254 326.413 124.007 328.581 124.502 333.166C124.518 333.299 124.627 333.397 124.753 333.395Z" fill="#429797"/>
<path d="M121.17 332.216C121.307 332.212 121.415 332.094 121.412 331.952C121.304 327.418 123.86 325.673 123.886 325.655C124.001 325.579 124.035 325.42 123.962 325.3C123.89 325.179 123.738 325.142 123.622 325.219C123.507 325.294 120.803 327.121 120.918 331.964C120.922 332.106 121.034 332.219 121.17 332.216Z" fill="#429797"/>
<path d="M122.426 327.166C122.327 327.167 122.237 327.107 122.196 327.012C122.021 326.601 120.505 322.955 121.34 321.633C121.485 321.404 121.772 321.147 122.31 321.141C122.741 321.148 123.083 321.331 123.3 321.672C124.162 323.029 122.808 326.602 122.651 327.005C122.614 327.1 122.526 327.163 122.427 327.165L122.426 327.166ZM121.753 321.918C121.259 322.699 121.925 324.913 122.411 326.208C122.84 324.935 123.403 322.766 122.889 321.957C122.762 321.756 122.576 321.66 122.304 321.657C122.291 321.656 122.278 321.657 122.265 321.657C121.95 321.664 121.822 321.808 121.753 321.918Z" fill="#429797"/>
<path d="M122.412 327.225C121.981 327.205 118.18 326.982 117.42 325.609C117.288 325.372 117.183 324.983 117.431 324.483C117.628 324.083 117.939 323.847 118.327 323.798C119.893 323.617 122.334 326.472 122.609 326.799C122.675 326.877 122.689 326.987 122.646 327.08C122.605 327.168 122.521 327.224 122.429 327.226C122.423 327.225 122.418 327.226 122.412 327.225ZM118.388 324.309C118.16 324.338 117.995 324.469 117.87 324.72C117.713 325.037 117.782 325.233 117.848 325.352C118.297 326.163 120.492 326.536 121.818 326.664C120.944 325.721 119.406 324.283 118.474 324.303C118.444 324.304 118.415 324.305 118.388 324.309Z" fill="#429797"/>
<path d="M61.925 287.476C58.81 295.783 54.467 327.825 54.467 327.825C49.501 343.661 67.623 338.435 67.623 338.435C67.623 338.435 93.489 340.533 93.389 335.745C93.289 330.958 74.924 324.091 74.924 324.091C75.35 320.165 87.726 297.937 90.316 280.351C90.414 279.974 90.482 279.585 90.482 279.168C90.482 276.198 89.774 270.963 88.787 265.103C78.334 266.533 67.707 267.274 57.149 267.617L61.925 287.476Z" fill="#88564A"/>
<path d="M52.06 246.458L57.149 267.618C67.707 267.275 78.334 266.535 88.787 265.104C86.496 251.503 82.694 234.516 82.694 234.516L52.06 246.458Z" fill="#77463C"/>
<path d="M85.544 328.334C93.147 331.747 95.542 335.13 95.542 335.13C95.542 335.13 95.188 336.237 84.732 337.664C83.994 334.454 84.295 331.131 85.544 328.334Z" fill="white"/>
<path d="M53.874 326.23C63.807 331.529 75.552 323.988 75.552 323.988C79.687 325.056 82.847 327.123 85.543 328.334C84.295 331.131 83.994 334.454 84.731 337.664C82.036 338.032 78.682 338.421 74.477 338.818C53.955 340.756 52.984 335.202 52.984 335.202C52.707 329.776 53.955 326.52 53.874 326.23Z" fill="#4CA5A2"/>
<path d="M52.984 335.202C53.081 336.258 53.233 337.368 53.461 338.532C53.461 338.532 59.432 340.524 75.562 340.187C93.586 339.811 95.847 337.366 95.847 337.366C95.847 337.366 95.946 336.455 95.541 335.13C76.498 339.349 61.14 337.15 52.984 335.202Z" fill="white"/>
<path d="M78.543 333.395C78.551 333.395 78.558 333.395 78.565 333.394C78.701 333.378 78.798 333.251 78.783 333.109C78.323 328.855 81.215 326.908 81.339 326.829C81.454 326.753 81.489 326.594 81.417 326.473C81.344 326.353 81.194 326.317 81.077 326.391C81.044 326.413 77.797 328.581 78.292 333.166C78.307 333.299 78.417 333.397 78.543 333.395Z" fill="#429797"/>
<path d="M74.96 332.216C75.097 332.212 75.2051 332.094 75.2021 331.952C75.0941 327.418 77.6501 325.673 77.6761 325.655C77.7911 325.579 77.825 325.42 77.752 325.3C77.68 325.179 77.528 325.142 77.412 325.219C77.297 325.294 74.593 327.121 74.708 331.964C74.711 332.106 74.824 332.219 74.96 332.216Z" fill="#429797"/>
<path d="M76.216 327.166C76.117 327.167 76.027 327.107 75.986 327.012C75.811 326.601 74.295 322.955 75.13 321.633C75.275 321.404 75.562 321.147 76.1 321.141C76.531 321.148 76.873 321.331 77.09 321.672C77.952 323.029 76.598 326.602 76.441 327.005C76.404 327.1 76.316 327.163 76.217 327.165L76.216 327.166ZM75.542 321.918C75.049 322.699 75.714 324.913 76.2 326.208C76.629 324.935 77.192 322.766 76.678 321.957C76.551 321.756 76.365 321.66 76.093 321.657C76.08 321.656 76.067 321.657 76.054 321.657C75.74 321.664 75.612 321.808 75.542 321.918Z" fill="#429797"/>
<path d="M76.202 327.225C75.771 327.205 71.97 326.982 71.21 325.609C71.078 325.372 70.973 324.983 71.221 324.483C71.419 324.083 71.729 323.847 72.117 323.798C73.683 323.617 76.124 326.472 76.399 326.799C76.465 326.877 76.479 326.987 76.436 327.08C76.395 327.168 76.311 327.224 76.219 327.226C76.213 327.225 76.207 327.226 76.202 327.225ZM72.177 324.309C71.949 324.338 71.784 324.469 71.659 324.72C71.502 325.037 71.571 325.233 71.636 325.352C72.085 326.163 74.28 326.536 75.607 326.664C74.733 325.721 73.195 324.283 72.262 324.303C72.234 324.304 72.205 324.305 72.177 324.309Z" fill="#429797"/>
<path d="M138.756 167.315C138.756 167.315 122.711 160.897 114.405 155.423C106.099 149.949 125.92 135.603 125.92 135.603L143.475 137.679L138.756 167.315Z" fill="#77463C"/>
<path d="M32.554 45.723C33.154 54.46 26.558 62.028 17.821 62.628C9.08398 63.228 1.51601 56.632 0.916008 47.895C0.316008 39.158 6.91198 31.59 15.649 30.99C24.385 30.39 31.954 36.986 32.554 45.723Z" fill="#44332C"/>
<path d="M95.1974 25.0273C97.7037 16.6363 92.9332 7.80237 84.5422 5.29611C76.1512 2.78985 67.3173 7.56037 64.811 15.9514C62.3047 24.3423 67.0752 33.1763 75.4662 35.6826C83.8572 38.1888 92.6912 33.4183 95.1974 25.0273Z" fill="#44332C"/>
<path d="M108.678 53.967C108.678 53.967 110.389 69.835 114.013 75.216C117.637 80.597 128.228 84.749 125.01 99.145C121.792 113.541 122.712 118.476 126.869 124.547C126.869 124.547 124.954 127.736 114.155 128.804L110.387 118.841L109.159 129.17C109.159 129.17 57.601 140.704 36.954 134.454L36.688 120.114L32.399 133.678C32.399 133.678 29.156 134.466 17.566 129.357C17.566 129.357 21.721 124.989 20.091 119.865C18.461 114.741 11.465 106.539 12.73 95.143C13.995 83.747 18.511 67.567 19.3 56.647C20.087 45.727 108.678 53.967 108.678 53.967Z" fill="#44332C"/>
<path d="M100.106 86.422L98.089 72.216C98.089 72.216 107.768 62.866 113.651 74.45C119.534 86.034 107.35 92.184 100.106 86.422Z" fill="#88564A"/>
<path d="M44.599 97.199L38.843 84.056C38.843 84.056 25.694 81.195 26.782 94.141C27.871 107.087 41.468 105.91 44.599 97.199Z" fill="#88564A"/>
<path d="M60.575 110.458L61.792 118.293C70.298 119.86 78.934 119.51 86.777 117.214L86.126 105.93L60.575 110.458Z" fill="#77463C"/>
<path d="M56.745 181.183L56.453 166.308C56.453 166.308 33.549 154.982 29.019 164.798C27.457 168.181 26.644 173.479 26.258 179.01C35.266 182.749 46.123 182.272 56.745 181.183Z" fill="#77463C"/>
<path d="M26.258 179.011C25.524 189.526 26.337 200.886 26.502 201.545L56.956 191.981L56.744 181.184C46.123 182.272 35.266 182.749 26.258 179.011Z" fill="#88564A"/>
<path d="M112.223 153.114C119.216 147.986 123.477 141.036 126.646 133.335C121.014 128.513 112.992 121.928 108.742 119.745C101.758 116.158 80.238 119.745 75.519 120.878C70.8 122.011 45.568 127.422 36.318 139.126C30.41 146.602 26.328 156.253 24.147 162.255C53.108 174.578 86.865 173.189 112.223 153.114Z" fill="#E95336"/>
<path d="M126.646 133.335C123.476 141.036 119.216 147.986 112.223 153.114C86.866 173.188 53.109 174.578 24.148 162.255C22.915 165.65 22.287 167.882 22.287 167.882C22.287 167.882 42.674 176.188 54.566 177.132C54.566 177.132 49.28 195.82 49.092 196.386C48.903 196.952 117.237 183.55 117.237 183.55C117.237 183.55 115.349 169.959 114.594 164.673C114.594 164.673 127.619 146.929 132.904 138.812C132.904 138.812 130.268 136.437 126.646 133.335Z" fill="#FFB525"/>
<path d="M59.496 125.954C57.859 126.538 57.409 128.673 58.71 129.825C61.853 132.607 68.279 136.395 78.519 134.033C93.866 130.494 91.576 121.936 90.936 119.839C90.383 118.024 68.456 122.756 59.496 125.954Z" fill="#FFB525"/>
<path d="M61.792 118.293L63.293 125.126C63.293 125.126 65.168 131.437 74.957 130.745C85.927 129.969 87.081 123.444 87.081 123.444L86.778 117.214C78.934 119.511 70.298 119.86 61.792 118.293Z" fill="#88564A"/>
<path d="M99.009 44.992C99.009 44.992 101.763 60.081 104.211 78.067C106.192 92.628 96.484 108.456 78.861 112.017C62.297 115.363 44.026 110.985 35.646 88.252C27.266 65.519 28.35 45.835 48.912 37.749C69.474 29.662 90.822 27.693 99.009 44.992Z" fill="#88564A"/>
<path d="M73.681 43.362C73.572 43.248 73.503 43.185 73.503 43.185C73.503 43.185 73.567 43.251 73.681 43.362Z" fill="#56372F"/>
<path d="M46.2281 74.506C46.2281 74.506 42.939 71.636 48.411 66.752C53.883 61.868 56.12 62.477 57.371 64.379C58.513 66.115 57.511 69.084 54.39 71.744C50.644 74.937 48.0271 76.167 46.2281 74.506Z" fill="#44332C"/>
<path d="M95.233 63.924C95.233 63.924 96.888 59.885 89.808 57.97C82.728 56.055 81.001 57.601 80.734 59.863C80.49 61.926 82.717 64.132 86.698 65.112C91.477 66.287 94.368 66.215 95.233 63.924Z" fill="#44332C"/>
<path d="M40.246 98.168C40.21 98.173 40.173 98.17 40.136 98.159C39.998 98.118 39.92 97.972 39.962 97.835C39.982 97.769 41.894 91.215 37.192 88.924C35.54 88.119 33.998 87.968 32.605 88.473C30.201 89.346 29.031 91.913 29.019 91.939C28.96 92.07 28.807 92.129 28.676 92.071C28.544 92.013 28.486 91.859 28.544 91.728C28.595 91.614 29.811 88.938 32.424 87.986C33.955 87.43 35.636 87.587 37.421 88.457C42.522 90.943 40.482 97.916 40.461 97.986C40.43 98.086 40.344 98.155 40.246 98.168Z" fill="#44332C"/>
<path d="M33.217 93.986C33.139 93.997 33.056 93.971 32.996 93.91C32.896 93.807 32.897 93.642 33 93.542C33.039 93.504 36.935 89.763 40.578 92.542C40.692 92.629 40.714 92.793 40.627 92.906C40.54 93.021 40.377 93.042 40.263 92.956C36.975 90.448 33.4 93.88 33.364 93.915C33.322 93.955 33.271 93.979 33.217 93.986Z" fill="#44332C"/>
<path d="M77.876 76.145C77.037 75.521 76.007 75.58 74.977 76.307C74.946 76.329 74.898 76.366 74.834 76.416C72.75 78.037 71.227 78.298 70.307 77.198C69.528 76.266 68.811 70.105 68.351 64.911C68.348 64.915 68.344 64.918 68.34 64.922C68.199 65.082 68.032 65.196 67.856 65.289C68.295 70.223 69.013 76.46 69.909 77.531C70.689 78.463 72.232 79.097 75.154 76.826C75.21 76.783 75.252 76.75 75.279 76.731C76.123 76.133 76.912 76.075 77.567 76.561C78.656 77.372 79.174 79.518 78.653 81.064C77.989 83.032 76.056 84.266 76.037 84.279C75.916 84.356 75.879 84.516 75.955 84.638C76.011 84.727 76.112 84.771 76.21 84.757C76.246 84.752 76.281 84.74 76.313 84.719C76.399 84.665 78.422 83.377 79.146 81.23C79.739 79.468 79.146 77.091 77.876 76.145Z" fill="#44332C"/>
<path d="M104.463 85.304C104.496 85.289 104.526 85.268 104.552 85.239C104.647 85.131 104.637 84.967 104.53 84.872C104.478 84.826 99.405 80.258 102.199 75.836C103.18 74.283 104.413 73.343 105.863 73.039C108.366 72.518 110.712 74.085 110.736 74.101C110.855 74.182 111.016 74.151 111.097 74.032C111.178 73.914 111.147 73.751 111.029 73.671C110.926 73.601 108.484 71.964 105.762 72.529C104.167 72.862 102.82 73.879 101.76 75.558C98.729 80.355 104.131 85.212 104.186 85.261C104.264 85.331 104.373 85.344 104.463 85.304Z" fill="#44332C"/>
<path d="M108.243 78.05C108.315 78.018 108.372 77.953 108.391 77.87C108.422 77.73 108.334 77.59 108.194 77.559C108.141 77.547 102.86 76.414 101.223 80.694C101.171 80.828 101.239 80.979 101.373 81.03C101.507 81.081 101.657 81.014 101.709 80.88C103.187 77.018 108.032 78.057 108.081 78.067C108.137 78.079 108.193 78.072 108.243 78.05Z" fill="#44332C"/>
<path d="M63.192 93.695C63.038 96.209 59.097 98.013 54.388 97.725C49.68 97.437 45.988 95.165 46.142 92.651C46.296 90.137 50.238 88.333 54.946 88.621C59.654 88.909 63.346 91.181 63.192 93.695Z" fill="#77463C"/>
<path d="M84.18 90.377C85.102 92.721 89.408 93.222 93.797 91.495C98.187 89.768 100.998 86.469 100.076 84.125C99.154 81.781 94.848 81.281 90.459 83.007C86.07 84.733 83.258 88.033 84.18 90.377Z" fill="#77463C"/>
<path d="M53.61 84.442C53.61 84.442 53.153 79.222 57.297 78.282C61.442 77.343 63.108 82.289 63.108 82.289" stroke="black" stroke-width="0.5607" stroke-miterlimit="10" stroke-linecap="round" stroke-linejoin="round"/>
<path d="M53.599 83.776L50.759 83.082" stroke="black" stroke-width="0.5607" stroke-miterlimit="10" stroke-linecap="round" stroke-linejoin="round"/>
<path d="M53.43 82.476L51.508 81.912" stroke="black" stroke-width="0.663" stroke-miterlimit="10" stroke-linecap="round" stroke-linejoin="round"/>
<path d="M92.404 77.92C92.404 77.92 90.566 73.013 86.421 73.952C82.276 74.891 82.906 80.072 82.906 80.072" stroke="black" stroke-width="0.5607" stroke-miterlimit="10" stroke-linecap="round" stroke-linejoin="round"/>
<path d="M92.126 77.314L94.389 75.464" stroke="black" stroke-width="0.5607" stroke-miterlimit="10" stroke-linecap="round" stroke-linejoin="round"/>
<path d="M91.718 76.069L93.209 74.731" stroke="black" stroke-width="0.663" stroke-miterlimit="10" stroke-linecap="round" stroke-linejoin="round"/>
<path d="M67.437 92.8719C67.553 93.2259 67.712 93.5659 67.921 93.8699C69.463 96.1049 72.504 97.442 77.099 96.015C78.947 95.441 80.141 94.4869 80.898 93.4839C76.821 91.7009 72.033 91.5679 67.437 92.8719Z" fill="#E95236"/>
<path d="M82.014 89.762C81.738 88.705 80.061 87.265 77.444 88.933C77.444 88.933 75.389 90.265 71.367 88.904C67.892 87.729 66.704 90.621 67.438 92.871C72.034 91.567 76.822 91.7 80.9 93.484C82.025 91.994 82.179 90.394 82.014 89.762Z" fill="black"/>
<path d="M43.474 30.927C43.474 30.927 19.614 37.734 18.612 52.392C17.61 67.05 28.994 83.242 28.994 83.242C28.994 83.242 43.107 75.631 48.001 47.404C48.001 47.404 106.898 71.409 110.629 68.715C114.36 66.021 109.061 39.475 100.142 31.475C91.2231 23.474 64.232 18.755 43.474 30.927Z" fill="#44332C"/>
<path d="M40.877 38.266C40.877 38.266 32.352 31.623 35.359 30.047C38.366 28.471 42.062 35.439 42.062 35.439C42.062 35.439 38.156 22.471 42.768 23.696C47.38 24.921 47.753 34.847 44.659 37.296" fill="#44332C"/>
<path d="M126.146 123.157L126.555 122.901C124.105 118.983 125.167 113.775 126.366 109.676L126.624 108.799C127.878 104.557 129.173 100.171 127.849 95.99C126.63 92.143 123.478 89.465 120.429 86.876C118.233 85.011 115.961 83.082 114.395 80.718C111.137 75.797 111.156 69.556 111.174 63.521C111.176 62.935 111.178 62.352 111.176 61.774C111.163 55.828 110.715 48.165 107.339 41.625C104.153 35.455 98.486 30.466 91.38 27.576C85.18 25.055 77.822 24.136 70.101 24.918C62.478 25.692 54.903 28.055 48.195 31.753L48.428 32.175C55.08 28.508 62.591 26.164 70.15 25.397C77.792 24.621 85.071 25.529 91.199 28.022C98.198 30.869 103.778 35.778 106.911 41.846C110.239 48.294 110.682 55.883 110.695 61.775C110.696 62.353 110.694 62.936 110.692 63.521C110.674 69.628 110.654 75.943 113.993 80.985C115.597 83.406 117.894 85.358 120.116 87.245C123.251 89.907 126.211 92.422 127.388 96.138C128.668 100.178 127.393 104.492 126.16 108.664L125.901 109.543C124.676 113.737 123.595 119.076 126.146 123.157Z" fill="#44332C"/>
<path d="M18.466 129.909C22.292 128.83 24.2079 124.578 24.0689 121.126C23.9429 118.007 22.528 114.738 19.744 111.134C18.941 110.095 18.076 109.078 17.241 108.093C15.761 106.35 14.23 104.547 13.007 102.583C9.523 96.981 8.55998 89.861 10.432 83.535C11.054 81.431 11.987 79.382 12.888 77.399C14.105 74.724 15.3629 71.957 15.8839 69.008C16.2939 66.685 16.237 64.295 16.182 61.983C16.145 60.422 16.107 58.807 16.213 57.233C17.017 45.382 27.278 34.697 39.087 33.415L39.035 32.936C27.005 34.242 16.5519 45.126 15.7329 57.2C15.6249 58.796 15.663 60.422 15.7 61.994C15.755 64.282 15.811 66.648 15.409 68.924C14.899 71.812 13.654 74.551 12.449 77.199C11.541 79.196 10.6009 81.261 9.96995 83.397C8.05895 89.853 9.042 97.119 12.598 102.836C13.839 104.831 15.382 106.647 16.873 108.404C17.705 109.383 18.565 110.397 19.361 111.427C22.083 114.949 23.465 118.128 23.587 121.144C23.72 124.412 21.923 128.432 18.335 129.445L18.466 129.909Z" fill="#44332C"/>
<path d="M48.399 129.562C48.399 129.562 54.943 156.493 54.691 161.527C54.439 166.561 49.657 187.703 49.657 187.703C49.657 187.703 46.888 217.402 46.385 231.245C45.882 245.088 45.63 253.142 45.63 253.142C45.63 253.142 65.262 264.216 91.941 253.897L89.927 240.809L92.947 240.306L96.974 253.394C96.974 253.394 119.878 252.387 132.211 237.789C132.211 237.789 124.409 213.627 121.388 205.321C118.368 197.015 115.851 165.302 115.851 165.302C115.851 165.302 109.307 156.996 107.545 152.466C105.783 147.936 96.722 117.984 96.722 117.984L90.178 118.236L99.994 151.207L63.751 158.506L54.438 126.793L48.399 129.562Z" fill="#5FAFE2"/>
<path d="M64.123 159.466L55.078 161.68C53.728 162.011 52.365 161.184 52.035 159.834C51.704 158.484 52.531 157.121 53.881 156.791L62.926 154.576C64.276 154.245 65.639 155.072 65.969 156.422C66.299 157.773 65.473 159.135 64.123 159.466Z" stroke="#2F2035" stroke-width="0.5978" stroke-miterlimit="10" stroke-linecap="round" stroke-linejoin="round"/>
<path d="M60.229 165.899C61.7406 165.899 62.966 164.674 62.966 163.162C62.966 161.65 61.7406 160.425 60.229 160.425C58.7174 160.425 57.492 161.65 57.492 163.162C57.492 164.674 58.7174 165.899 60.229 165.899Z" fill="#2F2035"/>
<path d="M67.624 168.898C67.624 168.898 94.09 162.943 100.376 162.281C100.376 162.281 105.008 180.146 90.451 184.778C75.894 189.41 67.624 168.898 67.624 168.898Z" stroke="#2F2035" stroke-width="0.5238" stroke-miterlimit="10" stroke-linecap="round" stroke-linejoin="round"/>
<path d="M79.105 242.067C79.105 242.067 92.319 241.312 111.573 236.782" stroke="#2F2035" stroke-width="0.5978" stroke-miterlimit="10" stroke-linecap="round" stroke-linejoin="round"/>
<path d="M93.137 240.431L100.813 243.514" stroke="#2F2035" stroke-width="0.5978" stroke-miterlimit="10" stroke-linecap="round" stroke-linejoin="round"/>
<path d="M51.734 207.208C51.734 207.208 84.957 209.851 115.349 195.693" stroke="#2F2035" stroke-width="0.5978" stroke-miterlimit="10" stroke-linecap="round" stroke-linejoin="round"/>
<path d="M90.054 226.84L86.845 204.376" stroke="#2F2035" stroke-width="0.5978" stroke-miterlimit="10" stroke-linecap="round" stroke-linejoin="round"/>
<path d="M89.676 224.952C89.676 224.952 94.206 225.518 93.829 219.667C93.451 213.815 91.375 203.811 91.375 203.811" stroke="#2F2035" stroke-width="0.5978" stroke-miterlimit="10" stroke-linecap="round" stroke-linejoin="round"/>
<path d="M110.358 198.376C113.424 204.785 118.462 210.234 124.612 213.792" stroke="#2F2035" stroke-width="0.5978" stroke-miterlimit="10" stroke-linecap="round" stroke-linejoin="round"/>
<path d="M50.769 227.651C56.661 222.779 60.808 215.838 62.305 208.34" stroke="#2F2035" stroke-width="0.5978" stroke-miterlimit="10" stroke-linecap="round" stroke-linejoin="round"/>
<path d="M48.714 247.038C48.714 246.283 49.847 207.397 49.847 207.397" stroke="#2F2035" stroke-width="0.5978" stroke-miterlimit="10" stroke-linecap="round" stroke-linejoin="round"/>
<path d="M108.168 150.028L99.123 152.243C97.773 152.573 96.41 151.747 96.08 150.397C95.749 149.047 96.576 147.684 97.926 147.354L106.971 145.14C108.321 144.809 109.684 145.636 110.014 146.986C110.345 148.335 109.519 149.697 108.168 150.028Z" stroke="#2F2035" stroke-width="0.5978" stroke-miterlimit="10" stroke-linecap="round" stroke-linejoin="round"/>
<path d="M107.011 153.724C107.011 155.236 105.785 156.461 104.274 156.461C102.762 156.461 101.537 155.236 101.537 153.724C101.537 152.212 102.762 150.987 104.274 150.987C105.786 150.987 107.011 152.212 107.011 153.724Z" fill="#2F2035"/>
<path d="M143.223 99.925C143.223 99.925 155.401 151.212 154.926 156.744C154.36 163.351 148.13 172.223 136.049 166.182C123.968 160.141 125.856 104.266 125.856 104.266L143.223 99.925Z" fill="#88564A"/>
<path d="M115.866 88.631C115.862 90.665 116.664 92.691 118.061 94.17C119.458 95.649 121.434 96.566 123.465 96.679C124.896 96.758 126.353 96.456 127.754 96.763C129.691 97.187 131.193 98.695 132.997 99.518C134.831 100.354 136.993 100.445 138.891 99.765C140.789 99.085 142.401 97.642 143.287 95.831C144.187 93.991 144.332 91.881 144.958 89.931C145.653 87.764 146.935 85.817 147.583 83.636C148.231 81.454 148.073 78.773 146.322 77.32C145.158 76.354 143.497 76.103 142.429 75.032C141.37 73.97 141.088 72.285 139.948 71.311C139.035 70.531 137.741 70.366 136.543 70.454C135.345 70.542 134.167 70.846 132.966 70.87C131.765 70.893 130.569 70.609 129.487 70.086C129.211 70.736 128.825 71.329 128.346 71.835C128.456 72.282 128.532 72.743 128.532 73.225C128.532 76.439 125.926 79.045 122.712 79.045C121.964 79.045 121.254 78.891 120.596 78.634C120.019 80.479 118.559 81.922 116.709 82.474C116.708 82.615 116.712 82.757 116.702 82.895C116.569 84.824 115.87 86.696 115.866 88.631ZM131.789 79.675C135.143 79.675 137.862 82.394 137.862 85.748C137.862 89.102 135.143 91.821 131.789 91.821C128.435 91.821 125.716 89.102 125.716 85.748C125.715 82.394 128.435 79.675 131.789 79.675Z" fill="#E95336"/>
<path d="M131.789 67.438C131.156 67.438 130.532 67.47 129.916 67.533C129.922 67.638 129.947 67.738 129.947 67.845C129.947 68.642 129.779 69.397 129.487 70.087C130.568 70.609 131.765 70.894 132.966 70.871C134.167 70.848 135.345 70.543 136.543 70.455C137.741 70.367 139.035 70.532 139.948 71.312C141.088 72.286 141.371 73.971 142.429 75.033C143.497 76.104 145.158 76.355 146.322 77.321C148.073 78.774 148.231 81.455 147.583 83.637C146.935 85.818 145.654 87.765 144.958 89.932C144.332 91.882 144.187 93.992 143.287 95.832C142.401 97.643 140.789 99.086 138.891 99.766C136.993 100.446 134.832 100.356 132.997 99.519C131.192 98.696 129.691 97.189 127.754 96.764C126.354 96.457 124.897 96.759 123.465 96.68C121.434 96.568 119.458 95.65 118.061 94.171C116.664 92.692 115.861 90.666 115.866 88.632C115.87 86.697 116.569 84.826 116.701 82.895C116.711 82.757 116.707 82.615 116.708 82.474C116.186 82.629 115.639 82.726 115.066 82.726C114.62 82.726 114.19 82.665 113.772 82.57C113.591 83.604 113.478 84.663 113.478 85.749C113.478 95.862 121.676 104.059 131.788 104.059C141.901 104.059 150.098 95.861 150.098 85.749C150.099 75.636 141.901 67.438 131.789 67.438Z" fill="#F3A07F"/>
<path d="M118.841 89.087C118.725 89.087 118.614 89.019 118.567 88.906C118.502 88.754 118.572 88.579 118.723 88.513L122.026 87.097C122.177 87.032 122.354 87.102 122.418 87.254C122.483 87.406 122.413 87.581 122.262 87.647L118.959 89.063C118.921 89.08 118.881 89.087 118.841 89.087Z" fill="#5FAFE2"/>
<path d="M130.781 76.994C130.747 77.104 130.649 77.19 130.527 77.202C130.363 77.22 130.216 77.101 130.198 76.936L129.823 73.362C129.806 73.199 129.925 73.05 130.089 73.034C130.253 73.016 130.4 73.135 130.418 73.3L130.793 76.874C130.798 76.916 130.793 76.956 130.781 76.994Z" fill="#5FAFE2"/>
<path d="M131.426 96.072C131.31 96.072 131.2 96.004 131.152 95.891C131.087 95.739 131.157 95.564 131.308 95.498L134.611 94.082C134.762 94.017 134.939 94.087 135.003 94.239C135.068 94.391 134.998 94.566 134.847 94.632L131.544 96.048C131.505 96.064 131.465 96.072 131.426 96.072Z" fill="#5FAFE2"/>
<path d="M140.172 79.775C140.056 79.775 139.945 79.707 139.898 79.594C139.833 79.442 139.903 79.267 140.054 79.201L143.357 77.785C143.508 77.72 143.685 77.79 143.749 77.942C143.814 78.094 143.744 78.269 143.593 78.335L140.29 79.751C140.251 79.767 140.212 79.775 140.172 79.775Z" fill="#5FAFE2"/>
<path d="M141.964 89.933C141.969 90.049 141.907 90.163 141.796 90.216C141.648 90.289 141.469 90.227 141.396 90.079L139.824 86.848C139.752 86.701 139.814 86.52 139.962 86.449C140.111 86.377 140.289 86.438 140.362 86.586L141.934 89.818C141.953 89.854 141.962 89.894 141.964 89.933Z" fill="#5FAFE2"/>
<path d="M126.579 95.5C126.578 95.616 126.509 95.726 126.395 95.772C126.243 95.836 126.068 95.764 126.004 95.611L124.623 92.293C124.56 92.142 124.632 91.965 124.784 91.902C124.936 91.838 125.111 91.91 125.175 92.063L126.556 95.381C126.572 95.42 126.579 95.46 126.579 95.5Z" fill="#FFB525"/>
<path d="M137.464 77.944C137.463 78.06 137.394 78.17 137.28 78.216C137.128 78.28 136.952 78.208 136.889 78.055L135.508 74.737C135.445 74.586 135.517 74.409 135.669 74.346C135.822 74.282 135.997 74.354 136.06 74.507L137.441 77.825C137.457 77.865 137.465 77.905 137.464 77.944Z" fill="#FFB525"/>
<path d="M140.107 93.738C140.106 93.854 140.037 93.964 139.923 94.01C139.771 94.074 139.596 94.002 139.532 93.849L138.151 90.531C138.088 90.38 138.16 90.203 138.312 90.14C138.464 90.076 138.639 90.148 138.703 90.301L140.084 93.619C140.1 93.658 140.107 93.698 140.107 93.738Z" fill="#FFB525"/>
<path d="M145.438 81.512C145.552 81.494 145.672 81.544 145.737 81.648C145.825 81.788 145.783 81.972 145.643 82.06L142.6 83.972C142.461 84.059 142.275 84.018 142.188 83.878C142.1 83.738 142.142 83.554 142.282 83.466L145.325 81.554C145.36 81.532 145.398 81.518 145.438 81.512Z" fill="#FFB525"/>
<path d="M122.016 82.453C121.901 82.449 121.792 82.377 121.748 82.263C121.688 82.109 121.764 81.936 121.918 81.876L125.269 80.577C125.422 80.518 125.597 80.594 125.655 80.748C125.715 80.902 125.639 81.075 125.485 81.135L122.134 82.433C122.095 82.448 122.055 82.454 122.016 82.453Z" fill="#FFB525"/>
<path d="M149.047 93.367C148.842 90.217 146.719 82.949 143.769 81.894C140.819 80.839 144.262 92.734 144.262 92.734C144.262 92.734 140.765 84.223 139.08 84.743C137.395 85.263 140.014 95.08 140.014 95.08C140.014 95.08 137.096 87.778 135.531 87.278C133.966 86.779 134.307 92.469 136.252 96.523C136.252 96.523 132.564 88.611 130.79 89.929C129.142 91.153 132.214 98.83 132.66 99.916C132.562 99.958 132.466 100 132.369 100.042C131.368 100.055 128.334 100.429 125.208 104.134C125.208 104.134 125.234 104.139 125.246 104.141C124.91 104.674 125.155 105.286 126.166 106.481C128.242 108.935 135.604 106.292 141.645 103.461C146.486 101.192 148.318 96.085 148.856 94.143C148.951 93.885 149.064 93.628 149.047 93.367Z" fill="#88564A"/>
<path d="M83.805 183.018C83.805 183.018 93.83 179.139 93.22 177.235C92.611 175.331 82.355 179.81 82.355 179.81C82.355 179.81 92.229 174.646 91.764 172.821C90.853 169.76 79.965 176.998 79.965 176.998C79.965 176.998 88.011 170.158 86.751 168.201C85.491 166.244 75.254 175.333 75.254 175.333C75.254 175.333 78.419 170.035 75.583 170.024C72.747 170.012 67.699 179.35 67.699 179.35C67.699 179.35 36.568 187.2 32.038 189.465C27.508 191.73 24.991 199.029 27.004 203.811C29.017 208.593 35.813 212.368 47.391 209.6C58.969 206.832 75.735 191.136 75.735 191.136C81.443 189.214 93.29 184.442 92.798 182.438C92.307 180.433 83.805 183.018 83.805 183.018Z" fill="#88564A"/>
</svg>
