<svg width="142" height="325" viewBox="0 0 142 325" fill="none" xmlns="http://www.w3.org/2000/svg">
<path d="M70.583 324.973C109.487 324.973 141.024 320.133 141.024 314.162C141.024 308.191 109.487 303.351 70.583 303.351C31.6796 303.351 0.142029 308.191 0.142029 314.162C0.142029 320.133 31.6796 324.973 70.583 324.973Z" fill="#EFE8DF"/>
<path d="M38.93 264.349C40.997 281.141 43.15 297.962 43.562 301.758C43.562 301.758 26.194 308.252 26.1 312.779C26.006 317.306 50.467 315.322 50.467 315.322C50.467 315.322 67.604 320.265 62.908 305.288C62.908 305.288 64.162 288.498 65.611 268.705C56.667 268.274 47.746 266.883 38.93 264.349Z" fill="#F3A07F"/>
<path d="M69.914 205.653C63.978 205.709 40.822 229.077 34.902 228.807C35.322 234.522 37.092 249.425 38.929 264.35C47.745 266.884 56.667 268.274 65.61 268.706C67.69 240.277 70.171 205.65 69.914 205.653Z" fill="#F08864"/>
<path d="M33.5191 305.769C26.3291 308.997 24.0651 312.196 24.0651 312.196C24.0651 312.196 24.4001 313.243 34.2881 314.592C34.9841 311.557 34.7001 308.414 33.5191 305.769Z" fill="white"/>
<path d="M63.468 303.78C54.075 308.791 42.968 301.66 42.968 301.66C39.058 302.67 36.069 304.625 33.519 305.77C34.699 308.415 34.984 311.557 34.287 314.594C36.835 314.942 40.007 315.309 43.984 315.685C63.391 317.517 64.31 312.266 64.31 312.266C64.572 307.134 63.392 304.054 63.468 303.78Z" fill="#5FAFE2"/>
<path d="M64.31 312.264C64.218 313.262 64.075 314.312 63.859 315.413C63.859 315.413 58.213 317.297 42.958 316.978C25.913 316.622 23.775 314.31 23.775 314.31C23.775 314.31 23.682 313.448 24.065 312.195C42.073 316.186 56.597 314.107 64.31 312.264Z" fill="white"/>
<path d="M40.1401 310.555C40.1331 310.555 40.1251 310.555 40.1191 310.554C39.9911 310.539 39.8991 310.419 39.9131 310.285C40.3481 306.262 37.6131 304.421 37.4961 304.346C37.3871 304.274 37.3541 304.124 37.4221 304.009C37.4911 303.896 37.6331 303.862 37.7441 303.931C37.7751 303.952 40.8451 306.002 40.3771 310.338C40.3621 310.465 40.2591 310.558 40.1401 310.555Z" fill="#429797"/>
<path d="M43.528 309.44C43.399 309.436 43.296 309.325 43.3 309.19C43.402 304.902 40.985 303.252 40.961 303.236C40.852 303.164 40.82 303.014 40.889 302.9C40.957 302.785 41.101 302.751 41.21 302.823C41.319 302.893 43.876 304.621 43.767 309.202C43.763 309.336 43.656 309.443 43.528 309.44Z" fill="#429797"/>
<path d="M42.339 304.665C42.246 304.663 42.163 304.603 42.128 304.513C41.979 304.132 40.699 300.753 41.514 299.47C41.719 299.148 42.042 298.974 42.45 298.967C42.959 298.973 43.231 299.216 43.368 299.432C44.158 300.683 42.724 304.13 42.559 304.519C42.521 304.608 42.435 304.665 42.342 304.664C42.34 304.665 42.339 304.665 42.339 304.665ZM42.493 299.456C42.481 299.456 42.468 299.455 42.456 299.456C42.199 299.459 42.023 299.55 41.903 299.74C41.417 300.504 41.95 302.555 42.355 303.76C42.815 302.536 43.444 300.442 42.977 299.703C42.911 299.598 42.791 299.462 42.493 299.456Z" fill="#429797"/>
<path d="M42.338 304.721C42.25 304.719 42.171 304.666 42.132 304.583C42.092 304.495 42.105 304.391 42.167 304.317C42.427 304.007 44.735 301.308 46.216 301.479C46.583 301.526 46.876 301.749 47.063 302.127C47.297 302.6 47.198 302.968 47.074 303.192C46.355 304.491 42.76 304.701 42.353 304.72C42.348 304.721 42.343 304.721 42.338 304.721ZM46.078 301.957C45.196 301.939 43.742 303.298 42.915 304.19C44.169 304.069 46.245 303.716 46.67 302.949C46.732 302.836 46.798 302.652 46.649 302.352C46.531 302.114 46.376 301.99 46.16 301.963C46.133 301.959 46.106 301.958 46.078 301.957Z" fill="#429797"/>
<path d="M100.8 264.349C98.733 281.141 96.58 297.962 96.168 301.758C96.168 301.758 113.536 308.252 113.63 312.779C113.725 317.306 89.263 315.322 89.263 315.322C89.263 315.322 72.126 320.265 76.822 305.288C76.822 305.288 75.568 288.498 74.119 268.705C83.063 268.274 91.984 266.883 100.8 264.349Z" fill="#F3A07F"/>
<path d="M69.816 205.653C75.752 205.709 98.908 229.077 104.828 228.807C104.408 234.522 102.638 249.425 100.801 264.35C91.985 266.884 83.063 268.274 74.12 268.706C72.039 240.277 69.559 205.65 69.816 205.653Z" fill="#F08864"/>
<path d="M106.211 305.769C113.401 308.997 115.665 312.196 115.665 312.196C115.665 312.196 115.33 313.243 105.442 314.592C104.746 311.557 105.03 308.414 106.211 305.769Z" fill="white"/>
<path d="M76.2611 303.78C85.6541 308.791 96.7621 301.66 96.7621 301.66C100.672 302.67 103.661 304.625 106.211 305.77C105.031 308.415 104.746 311.557 105.443 314.594C102.895 314.942 99.7231 315.309 95.7461 315.685C76.3391 317.517 75.4201 312.266 75.4201 312.266C75.1581 307.134 76.3391 304.054 76.2611 303.78Z" fill="#5FAFE2"/>
<path d="M75.4202 312.264C75.5122 313.262 75.6552 314.312 75.8712 315.413C75.8712 315.413 81.5172 317.297 96.7722 316.978C113.817 316.622 115.955 314.31 115.955 314.31C115.955 314.31 116.048 313.448 115.666 312.195C97.6571 316.186 83.1332 314.107 75.4202 312.264Z" fill="white"/>
<path d="M99.5901 310.555C99.5971 310.555 99.6051 310.555 99.6111 310.554C99.7391 310.539 99.8311 310.419 99.8171 310.285C99.3821 306.262 102.117 304.421 102.234 304.346C102.343 304.274 102.376 304.124 102.308 304.009C102.239 303.896 102.097 303.862 101.986 303.931C101.955 303.952 98.8841 306.002 99.3521 310.338C99.3671 310.465 99.4711 310.558 99.5901 310.555Z" fill="#429797"/>
<path d="M96.2021 309.44C96.3311 309.436 96.4341 309.325 96.4301 309.19C96.3281 304.902 98.7451 303.252 98.7691 303.236C98.8781 303.164 98.9101 303.014 98.8411 302.9C98.7731 302.785 98.6301 302.751 98.5201 302.823C98.4111 302.893 95.8541 304.621 95.9631 309.202C95.9671 309.336 96.0741 309.443 96.2021 309.44Z" fill="#429797"/>
<path d="M97.3892 304.665C97.2952 304.666 97.2102 304.609 97.1722 304.52C97.0062 304.131 95.5732 300.684 96.3622 299.433C96.4992 299.217 96.7702 298.974 97.2802 298.968C97.6882 298.975 98.0112 299.148 98.2162 299.471C99.0312 300.754 97.7512 304.133 97.6022 304.514C97.5672 304.604 97.4842 304.664 97.3912 304.666L97.3892 304.665ZM96.7532 299.702C96.2862 300.441 96.9162 302.535 97.3752 303.759C97.7802 302.555 98.3132 300.504 97.8272 299.739C97.7072 299.549 97.5312 299.459 97.2742 299.455C97.2612 299.454 97.2492 299.455 97.2372 299.455C96.9392 299.462 96.8192 299.598 96.7532 299.702Z" fill="#429797"/>
<path d="M97.3771 304.72C96.9701 304.701 93.3751 304.49 92.6561 303.192C92.5311 302.968 92.4321 302.6 92.6671 302.127C92.8541 301.749 93.1471 301.526 93.5141 301.479C94.9951 301.308 97.3031 304.007 97.5631 304.317C97.6251 304.391 97.6391 304.495 97.5981 304.583C97.5601 304.666 97.4801 304.719 97.3921 304.721C97.3871 304.721 97.3821 304.721 97.3771 304.72ZM93.5701 301.963C93.3541 301.99 93.1981 302.114 93.0811 302.352C92.9321 302.652 92.9971 302.837 93.0601 302.949C93.4851 303.716 95.5611 304.069 96.8151 304.19C95.9891 303.298 94.5341 301.939 93.6521 301.957C93.6241 301.958 93.5971 301.959 93.5701 301.963Z" fill="#429797"/>
<path d="M92.836 85.572C101.955 81.95 108.691 73.603 111.867 64.319C115.043 55.035 114.972 44.9 113.337 35.225C112.262 28.863 110.397 22.366 106.099 17.554C101.905 12.859 95.77 10.252 89.565 9.18199C83.361 8.11199 77.011 8.44099 70.724 8.77399" stroke="#E95336" stroke-width="0.5831" stroke-miterlimit="10"/>
<path d="M57.125 7.74801C46.576 4.55001 34.539 6.76001 25.814 13.495C17.088 20.23 11.902 31.315 12.324 42.33C12.56 48.496 14.427 54.473 16.444 60.305C19.897 70.289 24.391 80.79 33.404 86.3" stroke="#E95336" stroke-width="0.5831" stroke-miterlimit="10"/>
<path d="M54.99 9.656C54.429 8.221 53.8691 6.786 53.3081 5.351C53.0281 4.633 52.769 3.749 53.259 3.154C53.74 2.568 54.719 2.657 55.307 3.135C55.895 3.613 56.19 4.355 56.462 5.063C56.382 4.075 56.3131 3.03099 56.7561 2.14499C57.1991 1.25899 58.354 0.650001 59.212 1.146C59.792 1.482 60.044 2.184 60.161 2.844C60.461 4.537 60.1491 6.33199 59.2951 7.82499" fill="#E95336"/>
<path d="M31.644 75.084C31.398 75.82 19.123 91.042 13.231 96.197C13.231 96.197 16.423 100.862 22.315 103.317L30.171 94.479C30.171 94.479 26.243 103.563 26.243 104.299C26.243 105.036 30.662 107.245 36.309 108.227L39.255 102.335L39.746 108.964C39.746 108.964 44.902 111.665 51.039 109.946C51.039 109.946 50.303 93.497 53.74 85.15C57.177 76.803 31.644 75.084 31.644 75.084Z" fill="#E95336"/>
<path d="M124.578 149.315C123.727 144.721 117.163 122.318 106.103 108.706C95.043 95.094 78.098 102.184 78.098 102.184H67.025H66.017H54.944C54.944 102.184 36.681 96.456 25.621 110.068C14.561 123.68 9.51301 144.722 8.66301 149.316C7.81201 153.91 20.908 167.599 33.84 167.939C33.84 167.939 30.953 187.6 43.034 189.642C51.718 191.11 61.632 190.555 66.521 190.128C71.41 190.556 81.325 191.11 90.008 189.642C102.089 187.6 99.082 166.489 99.082 166.489C112.014 166.148 125.429 153.909 124.578 149.315Z" fill="#FFB525"/>
<path d="M49.3051 102.636C49.3051 102.636 54.5611 114.597 66.1591 114.416C77.7571 114.235 80.4761 105.173 80.8391 102.817" stroke="#F59D0B" stroke-width="0.5739" stroke-miterlimit="10"/>
<path d="M100.14 172.55C100.14 172.55 118.921 216.005 124.077 240.31C124.077 240.31 120.198 240.412 113.491 241.942C108.66 243.044 102.363 245.44 94.9921 246.471C89.1241 247.292 82.5751 246.828 75.5451 247.191C70.8311 247.435 65.9 248.682 60.813 248.583C55.63 248.482 50.2841 247.027 44.8391 246.454C40.8671 246.036 36.841 246.626 32.787 245.904C30.287 245.459 25.8691 243.212 23.3531 242.637C20.0831 241.89 18.7141 242.769 15.4401 241.782C15.4401 241.782 29.434 179.914 33.485 173.654L100.14 172.55Z" fill="#4CA5A2"/>
<path d="M33.1171 168.499C33.1171 168.499 68.1021 174.023 100.14 166.289V172.549C100.14 172.549 78.044 179.914 33.485 173.654L33.1171 168.499Z" fill="#429797"/>
<path d="M75.5171 83.884C76.0301 84.467 82.9931 102.739 84.4781 110.427C84.4781 110.427 90.1151 110.02 95.2051 106.167L91.5281 94.928C91.5281 94.928 97.3961 102.898 98.0321 103.269C98.6681 103.64 102.803 100.936 106.496 96.553L102.891 91.04L108.864 93.955C108.864 93.955 113.794 90.862 115.402 84.694C115.402 84.694 100.822 77.043 95.3431 69.869C89.8651 62.695 75.5171 83.884 75.5171 83.884Z" fill="#E95336"/>
<path d="M15.129 32.849C13.768 45.557 15.837 58.751 21.883 70.011C27.929 81.272 38.076 90.458 50.205 94.486C59.323 97.514 69.4 97.577 78.555 94.662C85.6 92.419 92.09 88.438 97.248 83.141C106.907 73.22 111.524 58.624 109.328 44.953C107.132 31.282 98.175 18.867 85.895 12.471" fill="#E95336"/>
<path d="M52.654 90.679L53.304 98.263C61.348 100.323 69.642 100.556 77.306 98.872L77.425 88.021L52.654 90.679Z" fill="#F08864"/>
<path d="M53.304 98.263L54.292 104.906C54.292 104.906 55.673 111.074 65.094 111.055C75.652 111.033 77.187 104.859 77.187 104.859L77.306 98.872C69.642 100.557 61.348 100.323 53.304 98.263Z" fill="#F3A07F"/>
<path d="M95.829 26.597C95.829 26.597 101.319 40.88 101.362 61.752C101.396 78.037 88.426 94.004 68.546 95.336C49.861 96.588 30.43 89.104 24.551 62.905C18.672 36.706 26.881 15.817 50.654 9.94301C74.425 4.07001 90.942 10.346 95.829 26.597Z" fill="#F3A07F"/>
<path d="M93.0959 73.504L97.433 58.205C97.433 58.205 111.438 53.08 112.196 67.458C112.954 81.836 97.8479 82.595 93.0959 73.504Z" fill="#F3A07F"/>
<path d="M98.013 74.328C98.053 74.328 98.094 74.319 98.132 74.302C98.277 74.236 98.34 74.065 98.274 73.92C98.242 73.85 95.154 66.944 99.97 63.719C101.662 62.586 103.332 62.187 104.939 62.531C107.71 63.127 109.382 65.769 109.399 65.795C109.484 65.93 109.661 65.971 109.795 65.888C109.931 65.804 109.972 65.626 109.888 65.492C109.815 65.375 108.076 62.62 105.064 61.969C103.299 61.59 101.477 62.016 99.649 63.241C94.424 66.74 97.715 74.087 97.749 74.162C97.799 74.266 97.904 74.328 98.013 74.328Z" fill="#763633"/>
<path d="M105.1 68.676C105.188 68.676 105.274 68.636 105.331 68.56C105.426 68.432 105.399 68.251 105.271 68.156C105.223 68.12 100.381 64.601 96.7999 68.201C96.6879 68.314 96.6879 68.497 96.8009 68.609C96.9139 68.721 97.096 68.721 97.209 68.608C100.44 65.359 104.884 68.587 104.928 68.62C104.979 68.658 105.04 68.676 105.1 68.676Z" fill="#763633"/>
<path d="M69.405 73.816C69.324 73.679 69.151 73.644 69.01 73.716C66.804 75.024 65.232 74.72 64.25 74.166C64.253 74.207 64.266 74.245 64.266 74.287C64.245 74.442 64.224 74.597 64.203 74.752C64.201 74.759 64.197 74.764 64.195 74.771C65.198 75.267 66.646 75.508 68.547 74.615C68.792 74.5 69.045 74.366 69.304 74.212C69.441 74.13 69.486 73.953 69.405 73.816Z" fill="#763633"/>
<path d="M63.914 71.455C65.786 75.44 62.69 77.458 62.657 77.479C62.523 77.564 62.345 77.524 62.261 77.39C62.176 77.264 62.215 77.079 62.349 76.992C62.474 76.912 65.383 74.985 63.016 70.993C62.944 70.851 62.98 70.679 63.116 70.598C63.253 70.517 63.43 70.562 63.511 70.698C63.666 70.958 63.799 71.21 63.914 71.455Z" fill="#763633"/>
<path d="M54.922 75.463C54.385 78.202 49.791 79.608 44.661 78.602C39.531 77.596 35.808 74.56 36.345 71.821C36.882 69.082 41.476 67.677 46.606 68.682C51.736 69.688 55.459 72.724 54.922 75.463Z" fill="#F08864"/>
<path d="M33.067 73.627L28.667 58.346C28.667 58.346 14.641 53.278 13.942 67.66C13.244 82.041 28.353 82.738 33.067 73.627Z" fill="#F3A07F"/>
<path d="M39.612 52.298C39.612 52.298 36.7401 49.756 42.7951 46.558C48.8501 43.36 50.981 44.056 51.967 45.647C52.867 47.098 51.483 49.279 48.046 51.006C43.921 53.08 41.171 53.76 39.612 52.298Z" fill="#E95336"/>
<path d="M51.249 61.997C51.253 63.957 49.952 65.549 48.344 65.553C46.736 65.556 45.428 63.97 45.424 62.009C45.42 60.049 46.721 58.457 48.329 58.453C49.938 58.45 51.245 60.036 51.249 61.997Z" fill="#000100"/>
<path d="M73.905 75.424C74.453 78.161 79.053 79.547 84.179 78.521C89.305 77.494 93.015 74.443 92.467 71.706C91.919 68.969 87.319 67.583 82.193 68.609C77.068 69.636 73.357 72.687 73.905 75.424Z" fill="#F08864"/>
<path d="M89.12 52.197C89.12 52.197 91.982 49.643 85.914 46.47C79.846 43.297 77.718 44.002 76.738 45.597C75.844 47.052 77.237 49.227 80.681 50.94C84.815 52.996 87.567 53.664 89.12 52.197Z" fill="#E95336"/>
<path d="M76.2431 61.945C76.2471 63.905 77.554 65.492 79.163 65.489C80.771 65.486 82.072 63.894 82.068 61.934C82.064 59.974 80.7571 58.387 79.1481 58.39C77.5401 58.393 76.2391 59.985 76.2431 61.945Z" fill="#000100"/>
<path d="M28.154 74.471C28.114 74.471 28.073 74.463 28.035 74.445C27.89 74.38 27.826 74.209 27.891 74.064C27.922 73.994 30.982 67.075 26.153 63.869C24.456 62.743 22.784 62.351 21.18 62.702C18.412 63.309 16.75 65.958 16.733 65.984C16.649 66.119 16.472 66.161 16.337 66.078C16.201 65.995 16.159 65.817 16.242 65.682C16.314 65.565 18.042 62.802 21.051 62.139C22.814 61.753 24.638 62.171 26.471 63.388C31.71 66.865 28.449 74.226 28.416 74.301C28.368 74.408 28.263 74.471 28.154 74.471Z" fill="#763633"/>
<path d="M21.044 68.849C20.956 68.849 20.87 68.809 20.812 68.734C20.717 68.606 20.743 68.426 20.87 68.33C20.918 68.294 25.746 64.755 29.341 68.34C29.454 68.452 29.454 68.635 29.342 68.748C29.23 68.861 29.047 68.861 28.934 68.749C25.689 65.513 21.259 68.76 21.215 68.793C21.164 68.83 21.104 68.849 21.044 68.849Z" fill="#763633"/>
<path d="M67 69.078C66.891 69.078 66.786 69.016 66.738 68.91C66.672 68.765 66.736 68.594 66.88 68.528C66.903 68.517 69.207 67.444 70.225 65.38C71.024 63.758 70.769 61.325 69.692 60.275C69.044 59.645 68.168 59.593 67.154 60.127C67.122 60.144 67.071 60.174 67.003 60.213C63.46 62.28 61.859 61.358 61.138 60.22C59.816 58.13 60.922 41.614 61.052 39.738C61.064 39.579 61.204 39.462 61.36 39.47C61.519 39.481 61.638 39.619 61.627 39.778C61.276 44.825 60.592 58.279 61.625 59.912C62.475 61.256 64.186 61.191 66.713 59.716C66.791 59.671 66.849 59.636 66.886 59.617C68.123 58.968 69.263 59.054 70.094 59.863C71.351 61.088 71.654 63.785 70.742 65.635C69.632 67.888 67.222 69.007 67.119 69.053C67.08 69.07 67.04 69.078 67 69.078Z" fill="#763633"/>
<path d="M57.559 6.60299C57.559 6.60299 3.71704 -0.858013 16.187 60.562C16.187 60.562 19.67 60.135 24.052 57.496C24.924 56.971 26.637 52.519 27.747 52.082C29.292 51.474 32.492 49.4 34.453 48.715C34.453 48.715 34.706 39.986 36.226 39.52C37.414 39.156 39.745 47.985 41.031 47.64C48.404 45.66 61.483 45.377 71.232 45.671C72.81 45.719 74.557 28.991 76.175 29.141C77.793 29.291 82.354 45.793 84.006 46.058C86.401 46.442 90.045 47.943 91.651 48.598C91.651 48.598 91.356 38.803 92.452 39.405C93.548 40.006 95.289 50.468 96.658 51.228C97.623 51.764 98.693 52.34 99.92 52.96C100.856 53.433 100.097 56.802 101.028 57.321C104.376 59.186 109.102 59.125 109.92 60.37C110.739 61.615 120.048 33.614 105.283 18.07C87.141 -1.02901 68.564 2.51899 57.559 6.60299Z" fill="#E95336"/>
<path d="M55.104 143.049C49.909 137.975 44.593 136.283 44.593 136.283L48.701 147.942L59.575 152.171C59.575 152.171 56.921 144.824 55.104 143.049Z" fill="#F59D0B"/>
<path d="M81.6571 140.519C76.4751 145.607 74.6731 150.887 74.6731 150.887L86.4151 147.023L88.3921 136.271C88.3921 136.271 83.4691 138.739 81.6571 140.519Z" fill="#F59D0B"/>
<path d="M38.339 167.83C47.619 161.672 59.696 151.99 59.696 151.99C59.696 151.99 46.068 167.911 43.169 168.395C40.268 168.878 38.339 167.83 38.339 167.83Z" fill="#F59D0B"/>
<path d="M23.048 147.095C31.448 144.02 44.848 136.271 44.848 136.271" stroke="#F59D0B" stroke-width="0.5739" stroke-miterlimit="10"/>
<path d="M89.955 164.445C79.051 154.511 82.808 157.74 74.349 148.498C69.227 145.814 58.715 139.501 59.484 137.676C60.253 135.85 67.924 139.584 67.924 139.584C67.924 139.584 59.005 134.393 59.87 132.679C60.735 130.966 69.783 136.76 69.783 136.76C69.783 136.76 61.201 130.373 61.917 128.713C63.243 125.948 72.474 134.454 72.474 134.454C72.474 134.454 65.878 126.755 67.367 125.089C68.857 123.424 77.191 133.586 77.191 133.586C77.191 133.586 74.99 128.085 77.68 128.502C80.37 128.919 83.747 138.534 83.747 138.534C83.747 138.534 84.603 136.471 100.644 147.839C96.218 152.848 92.46 158.508 89.955 164.445Z" fill="#F3A07F"/>
<path d="M61.5281 148.625C61.3551 148.467 61.1821 148.31 61.0091 148.152C60.0861 147.711 59.2751 147.142 58.7621 146.222C58.6361 146.028 58.5341 145.824 58.4431 145.611L65.5 132.5L80.5801 129.976C83.7431 130.021 86.7021 129.537 88.5211 126.535C90.8201 122.74 88.4081 117.243 84.0961 116.276C83.0091 116.032 82.6211 116.544 82.5581 117.451C82.4561 118.931 82.2231 120.399 82.2091 121.889C82.2001 122.821 80.5801 129.976 80.5801 129.976C80.3371 129.985 58.4431 145.611 58.4431 145.611L50.0061 118.216C49.9831 117.215 50.0341 116.213 50.0171 115.211C49.9971 114.967 49.9981 114.723 50.0061 114.479C49.9991 114.24 50.0091 113.999 50.0181 113.76C50.0721 112.823 50.0661 111.868 50.6961 111.076C51.2931 110.545 51.1941 109.531 52.0161 109.146C54.9261 108.071 57.9531 107.969 61.0031 108.045C61.9671 107.991 62.9301 108.02 63.8941 108.038C65.8741 107.914 67.8531 108.142 69.8331 108.024C70.8561 107.994 71.8741 107.984 72.7071 108.727C75.1871 108.859 77.6661 109.026 80.1471 109.108C81.2691 109.145 81.9911 109.503 81.8571 110.727C81.7581 111.633 82.1591 111.787 82.9291 111.721C88.1341 111.277 94.2771 116.479 94.3761 122.226C94.3621 123.661 94.2891 125.098 92.9931 126.043C92.1921 126.627 92.4511 127.37 92.5261 128.105C92.6241 128.275 92.6911 128.457 92.7331 128.648C92.7191 128.942 92.6291 129.216 92.4951 129.476C90.7831 132.142 88.3731 133.857 85.2881 134.505C83.7001 134.838 82.0661 135.28 80.4291 134.861C79.3951 134.596 79.0611 134.991 78.8211 135.93C78.1791 138.439 76.9081 140.69 75.7271 142.971C74.9681 144.437 73.9131 145.688 72.7441 146.846C70.9841 148.692 68.8831 149.784 66.2941 149.957C65.5571 150.006 64.9291 149.885 64.2921 149.595C63.0321 150.234 62.3391 149.263 61.5281 148.625Z" fill="#7F0025"/>
<path d="M73.95 148.287C68.702 145.497 58.733 139.455 59.483 137.675C60.252 135.849 67.923 139.583 67.923 139.583C67.923 139.583 59.004 134.392 59.869 132.678C60.734 130.965 69.782 136.759 69.782 136.759C69.782 136.759 61.2 130.372 61.916 128.712C63.242 125.947 72.473 134.453 72.473 134.453C72.473 134.453 65.877 126.754 67.366 125.088C68.856 123.423 77.19 133.585 77.19 133.585C77.19 133.585 74.989 128.084 77.679 128.501" stroke="#763633" stroke-width="0.2869" stroke-miterlimit="10"/>
<path d="M74.78 150.903C74.78 150.903 90.625 165.28 94.37 167.696C94.37 167.696 86.904 168.877 81.588 163.32C76.272 157.763 74.78 150.903 74.78 150.903Z" fill="#F59D0B"/>
<path d="M89.054 136.525C89.054 136.525 97.149 141.962 109.714 147.036" stroke="#F59D0B" stroke-width="0.5739" stroke-miterlimit="10"/>
<path d="M30.3361 143.895C30.3361 143.895 32.1481 129.034 32.7521 126.014" stroke="#F59D0B" stroke-width="0.5739" stroke-miterlimit="10"/>
<path d="M101.982 143.533L98.8411 127.585" stroke="#F59D0B" stroke-width="0.5739" stroke-miterlimit="10"/>
<path d="M57.491 161.805C63.085 160.037 68.376 157.314 73.067 153.79" stroke="#F59D0B" stroke-width="0.5739" stroke-miterlimit="10"/>
<path d="M65.662 165.228C68.791 162.475 71.919 159.722 75.048 156.969" stroke="#F59D0B" stroke-width="0.5739" stroke-miterlimit="10"/>
<path d="M89.955 164.445C79.051 154.511 82.808 157.74 74.349 148.498C69.227 145.814 58.715 139.501 59.484 137.676C60.253 135.85 67.924 139.584 67.924 139.584C67.924 139.584 59.005 134.393 59.87 132.679C60.735 130.966 69.783 136.76 69.783 136.76C69.783 136.76 61.201 130.373 61.917 128.713C63.243 125.948 72.474 134.454 72.474 134.454C72.474 134.454 65.878 126.755 67.367 125.089C68.857 123.424 77.191 133.586 77.191 133.586C77.191 133.586 74.99 128.085 77.68 128.502C80.37 128.919 83.747 138.534 83.747 138.534C83.747 138.534 87.847 140.752 100.644 147.839C96.218 152.848 92.46 158.508 89.955 164.445Z" fill="#F3A07F"/>
<path d="M43.2861 164.445C54.1901 154.511 50.4331 157.74 58.8921 148.498C64.0141 145.814 74.526 139.501 73.757 137.676C72.988 135.85 65.317 139.584 65.317 139.584C65.317 139.584 74.2361 134.393 73.3711 132.679C72.5061 130.966 63.4581 136.76 63.4581 136.76C63.4581 136.76 72.0411 130.373 71.3241 128.713C69.9981 125.948 60.7671 134.454 60.7671 134.454C60.7671 134.454 67.3641 126.755 65.8741 125.089C64.3841 123.424 56.05 133.586 56.05 133.586C56.05 133.586 58.2511 128.085 55.5611 128.502C52.8711 128.919 49.494 138.534 49.494 138.534C49.494 138.534 43.021 141.598 32.597 147.839C37.023 152.848 40.7811 158.508 43.2861 164.445Z" fill="#F3A07F"/>
<path d="M88.392 136.27C88.392 136.27 82.437 147.84 74.78 150.903C74.78 150.903 93.534 168.547 101.701 172.29C109.868 176.033 115.994 174.332 120.588 167.696C125.182 161.06 124.578 149.315 124.578 149.315C124.578 149.315 119.19 150.223 110.853 147.33C102.515 144.438 88.392 136.27 88.392 136.27Z" fill="#FFB525"/>
<path d="M44.849 136.27C44.849 136.27 52.039 148.927 59.696 151.99C59.696 151.99 39.35 168.303 31.183 172.046C23.016 175.789 16.89 174.088 12.296 167.452C7.70201 160.816 8.66402 149.315 8.66402 149.315C8.66402 149.315 14.052 150.223 22.389 147.33C30.726 144.438 44.849 136.27 44.849 136.27Z" fill="#FFB525"/>
<path d="M28.7661 232.455C28.2831 230.522 40.3651 180.745 40.3651 180.745" stroke="#035A5B" stroke-width="0.5739" stroke-miterlimit="10" stroke-linecap="round" stroke-linejoin="round"/>
<path d="M47.8551 228.952L50.9361 184.007" stroke="#035A5B" stroke-width="0.5739" stroke-miterlimit="10" stroke-linecap="round" stroke-linejoin="round"/>
<path d="M69.0591 181.107L76.4891 236.926" stroke="#035A5B" stroke-width="0.5739" stroke-miterlimit="10" stroke-linecap="round" stroke-linejoin="round"/>
<path d="M81.3821 181.651L91.1691 224.059" stroke="#035A5B" stroke-width="0.5739" stroke-miterlimit="10" stroke-linecap="round" stroke-linejoin="round"/>
<path d="M91.894 198.324L102.767 234.751" stroke="#035A5B" stroke-width="0.5739" stroke-miterlimit="10" stroke-linecap="round" stroke-linejoin="round"/>
<path d="M97.3301 177.664L106.935 206.661" stroke="#035A5B" stroke-width="0.5739" stroke-miterlimit="10" stroke-linecap="round" stroke-linejoin="round"/>
</svg>
